M48
; DRILL file {KiCad 5.1.10-88a1d61d58~88~ubuntu20.04.1} date Mon May 10 23:56:58 2021
; FORMAT={-:-/ absolute / metric / decimal}
; #@! TF.CreationDate,2021-05-10T23:56:58-04:00
; #@! TF.GenerationSoftware,Kicad,Pcbnew,5.1.10-88a1d61d58~88~ubuntu20.04.1
; #@! TF.FileFunction,Plated,1,2,PTH
FMAT,2
METRIC
T1C0.400
T2C0.500
T3C1.000
%
G90
G05
T1
X143.0Y-105.0
T2
X124.5Y-98.5
X124.5Y-99.75
X124.5Y-101.0
X124.5Y-106.5
X124.5Y-107.75
X124.5Y-109.0
X130.485Y-114.3
X131.735Y-114.3
X132.985Y-114.3
X138.355Y-114.3
X139.605Y-114.3
X140.855Y-114.3
X146.265Y-114.3
X147.515Y-114.3
X148.765Y-114.3
X154.155Y-114.3
X155.405Y-114.3
X156.655Y-114.3
X162.09Y-109.03
X162.09Y-114.28
X163.34Y-109.03
X163.34Y-114.28
X164.59Y-109.03
X164.59Y-114.28
X165.84Y-109.03
X165.84Y-114.28
X170.5Y-114.28
X171.75Y-114.28
X179.07Y-105.41
X180.115Y-99.69
X180.32Y-105.41
X180.34Y-110.49
X181.365Y-99.69
X181.57Y-105.41
X181.59Y-110.49
T3
X128.4Y-91.25
X128.4Y-93.79
X130.94Y-91.25
X130.94Y-93.79
X133.35Y-99.0
X133.35Y-101.54
X133.48Y-91.25
X133.48Y-93.79
X135.89Y-99.0
X135.89Y-101.54
X136.02Y-91.25
X136.02Y-93.79
X138.43Y-99.0
X138.43Y-101.54
X138.56Y-91.25
X138.56Y-93.79
X140.97Y-99.0
X140.97Y-101.54
X141.1Y-91.25
X141.1Y-93.79
X143.64Y-91.25
X143.64Y-93.79
X146.18Y-91.25
X146.18Y-93.79
X147.0Y-100.0
X148.72Y-91.25
X148.72Y-93.79
X149.54Y-100.0
X151.26Y-91.25
X151.26Y-93.79
X152.08Y-100.0
X153.8Y-91.25
X153.8Y-93.79
X156.34Y-91.25
X156.34Y-93.79
X158.0Y-98.96
X158.0Y-101.5
X158.88Y-91.25
X158.88Y-93.79
X160.54Y-98.96
X160.54Y-101.5
X161.42Y-91.25
X161.42Y-93.79
X163.08Y-98.96
X163.08Y-101.5
X163.96Y-91.25
X163.96Y-93.79
X166.5Y-91.25
X166.5Y-93.79
X169.04Y-91.25
X169.04Y-93.79
X171.58Y-91.25
X171.58Y-93.79
X174.12Y-91.25
X174.12Y-93.79
X176.66Y-91.25
X176.66Y-93.79
T0
M30
