%TF.GenerationSoftware,KiCad,Pcbnew,5.1.10-88a1d61d58~88~ubuntu20.04.1*%
%TF.CreationDate,2021-05-10T23:55:53-04:00*%
%TF.ProjectId,reminder-mainboard,72656d69-6e64-4657-922d-6d61696e626f,rev?*%
%TF.SameCoordinates,Original*%
%TF.FileFunction,Copper,L1,Top*%
%TF.FilePolarity,Positive*%
%FSLAX46Y46*%
G04 Gerber Fmt 4.6, Leading zero omitted, Abs format (unit mm)*
G04 Created by KiCad (PCBNEW 5.1.10-88a1d61d58~88~ubuntu20.04.1) date 2021-05-10 23:55:53*
%MOMM*%
%LPD*%
G01*
G04 APERTURE LIST*
%TA.AperFunction,SMDPad,CuDef*%
%ADD10R,0.900000X0.800000*%
%TD*%
%TA.AperFunction,ComponentPad*%
%ADD11O,0.800000X1.300000*%
%TD*%
%TA.AperFunction,ComponentPad*%
%ADD12O,1.700000X1.700000*%
%TD*%
%TA.AperFunction,ComponentPad*%
%ADD13R,1.700000X1.700000*%
%TD*%
%TA.AperFunction,ComponentPad*%
%ADD14O,1.300000X0.800000*%
%TD*%
%TA.AperFunction,ViaPad*%
%ADD15C,0.800000*%
%TD*%
%TA.AperFunction,Conductor*%
%ADD16C,0.750000*%
%TD*%
%TA.AperFunction,Conductor*%
%ADD17C,0.250000*%
%TD*%
%TA.AperFunction,Conductor*%
%ADD18C,0.254000*%
%TD*%
%TA.AperFunction,Conductor*%
%ADD19C,0.100000*%
%TD*%
G04 APERTURE END LIST*
D10*
X174085000Y-99690000D03*
X172085000Y-100640000D03*
X172085000Y-98740000D03*
%TA.AperFunction,SMDPad,CuDef*%
G36*
G01*
X171912500Y-110925001D02*
X171912500Y-109074999D01*
G75*
G02*
X172162499Y-108825000I249999J0D01*
G01*
X172987501Y-108825000D01*
G75*
G02*
X173237500Y-109074999I0J-249999D01*
G01*
X173237500Y-110925001D01*
G75*
G02*
X172987501Y-111175000I-249999J0D01*
G01*
X172162499Y-111175000D01*
G75*
G02*
X171912500Y-110925001I0J249999D01*
G01*
G37*
%TD.AperFunction*%
%TA.AperFunction,SMDPad,CuDef*%
G36*
G01*
X168837500Y-110925001D02*
X168837500Y-109074999D01*
G75*
G02*
X169087499Y-108825000I249999J0D01*
G01*
X169912501Y-108825000D01*
G75*
G02*
X170162500Y-109074999I0J-249999D01*
G01*
X170162500Y-110925001D01*
G75*
G02*
X169912501Y-111175000I-249999J0D01*
G01*
X169087499Y-111175000D01*
G75*
G02*
X168837500Y-110925001I0J249999D01*
G01*
G37*
%TD.AperFunction*%
D11*
X165840000Y-114280000D03*
X164590000Y-114280000D03*
X163340000Y-114280000D03*
%TA.AperFunction,ComponentPad*%
G36*
G01*
X161690000Y-114730000D02*
X161690000Y-113830000D01*
G75*
G02*
X161890000Y-113630000I200000J0D01*
G01*
X162290000Y-113630000D01*
G75*
G02*
X162490000Y-113830000I0J-200000D01*
G01*
X162490000Y-114730000D01*
G75*
G02*
X162290000Y-114930000I-200000J0D01*
G01*
X161890000Y-114930000D01*
G75*
G02*
X161690000Y-114730000I0J200000D01*
G01*
G37*
%TD.AperFunction*%
%TA.AperFunction,SMDPad,CuDef*%
G36*
G01*
X169950000Y-107775000D02*
X169950000Y-107225000D01*
G75*
G02*
X170150000Y-107025000I200000J0D01*
G01*
X170550000Y-107025000D01*
G75*
G02*
X170750000Y-107225000I0J-200000D01*
G01*
X170750000Y-107775000D01*
G75*
G02*
X170550000Y-107975000I-200000J0D01*
G01*
X170150000Y-107975000D01*
G75*
G02*
X169950000Y-107775000I0J200000D01*
G01*
G37*
%TD.AperFunction*%
%TA.AperFunction,SMDPad,CuDef*%
G36*
G01*
X171600000Y-107775000D02*
X171600000Y-107225000D01*
G75*
G02*
X171800000Y-107025000I200000J0D01*
G01*
X172200000Y-107025000D01*
G75*
G02*
X172400000Y-107225000I0J-200000D01*
G01*
X172400000Y-107775000D01*
G75*
G02*
X172200000Y-107975000I-200000J0D01*
G01*
X171800000Y-107975000D01*
G75*
G02*
X171600000Y-107775000I0J200000D01*
G01*
G37*
%TD.AperFunction*%
X171750000Y-114280000D03*
%TA.AperFunction,ComponentPad*%
G36*
G01*
X170100000Y-114730000D02*
X170100000Y-113830000D01*
G75*
G02*
X170300000Y-113630000I200000J0D01*
G01*
X170700000Y-113630000D01*
G75*
G02*
X170900000Y-113830000I0J-200000D01*
G01*
X170900000Y-114730000D01*
G75*
G02*
X170700000Y-114930000I-200000J0D01*
G01*
X170300000Y-114930000D01*
G75*
G02*
X170100000Y-114730000I0J200000D01*
G01*
G37*
%TD.AperFunction*%
%TA.AperFunction,SMDPad,CuDef*%
G36*
G01*
X172437500Y-105243750D02*
X172437500Y-105756250D01*
G75*
G02*
X172218750Y-105975000I-218750J0D01*
G01*
X171781250Y-105975000D01*
G75*
G02*
X171562500Y-105756250I0J218750D01*
G01*
X171562500Y-105243750D01*
G75*
G02*
X171781250Y-105025000I218750J0D01*
G01*
X172218750Y-105025000D01*
G75*
G02*
X172437500Y-105243750I0J-218750D01*
G01*
G37*
%TD.AperFunction*%
%TA.AperFunction,SMDPad,CuDef*%
G36*
G01*
X170862500Y-105243750D02*
X170862500Y-105756250D01*
G75*
G02*
X170643750Y-105975000I-218750J0D01*
G01*
X170206250Y-105975000D01*
G75*
G02*
X169987500Y-105756250I0J218750D01*
G01*
X169987500Y-105243750D01*
G75*
G02*
X170206250Y-105025000I218750J0D01*
G01*
X170643750Y-105025000D01*
G75*
G02*
X170862500Y-105243750I0J-218750D01*
G01*
G37*
%TD.AperFunction*%
D12*
X163080000Y-98960000D03*
X163080000Y-101500000D03*
X160540000Y-98960000D03*
X160540000Y-101500000D03*
X158000000Y-98960000D03*
D13*
X158000000Y-101500000D03*
D11*
X165840000Y-109030000D03*
X164590000Y-109030000D03*
X163340000Y-109030000D03*
%TA.AperFunction,ComponentPad*%
G36*
G01*
X161690000Y-109480000D02*
X161690000Y-108580000D01*
G75*
G02*
X161890000Y-108380000I200000J0D01*
G01*
X162290000Y-108380000D01*
G75*
G02*
X162490000Y-108580000I0J-200000D01*
G01*
X162490000Y-109480000D01*
G75*
G02*
X162290000Y-109680000I-200000J0D01*
G01*
X161890000Y-109680000D01*
G75*
G02*
X161690000Y-109480000I0J200000D01*
G01*
G37*
%TD.AperFunction*%
%TA.AperFunction,SMDPad,CuDef*%
G36*
G01*
X176255000Y-99930000D02*
X176805000Y-99930000D01*
G75*
G02*
X177005000Y-100130000I0J-200000D01*
G01*
X177005000Y-100530000D01*
G75*
G02*
X176805000Y-100730000I-200000J0D01*
G01*
X176255000Y-100730000D01*
G75*
G02*
X176055000Y-100530000I0J200000D01*
G01*
X176055000Y-100130000D01*
G75*
G02*
X176255000Y-99930000I200000J0D01*
G01*
G37*
%TD.AperFunction*%
%TA.AperFunction,SMDPad,CuDef*%
G36*
G01*
X176255000Y-98280000D02*
X176805000Y-98280000D01*
G75*
G02*
X177005000Y-98480000I0J-200000D01*
G01*
X177005000Y-98880000D01*
G75*
G02*
X176805000Y-99080000I-200000J0D01*
G01*
X176255000Y-99080000D01*
G75*
G02*
X176055000Y-98880000I0J200000D01*
G01*
X176055000Y-98480000D01*
G75*
G02*
X176255000Y-98280000I200000J0D01*
G01*
G37*
%TD.AperFunction*%
%TA.AperFunction,ComponentPad*%
G36*
G01*
X130085000Y-114750000D02*
X130085000Y-113850000D01*
G75*
G02*
X130285000Y-113650000I200000J0D01*
G01*
X130685000Y-113650000D01*
G75*
G02*
X130885000Y-113850000I0J-200000D01*
G01*
X130885000Y-114750000D01*
G75*
G02*
X130685000Y-114950000I-200000J0D01*
G01*
X130285000Y-114950000D01*
G75*
G02*
X130085000Y-114750000I0J200000D01*
G01*
G37*
%TD.AperFunction*%
X131735000Y-114300000D03*
X132985000Y-114300000D03*
D12*
X176660000Y-91250000D03*
X176660000Y-93790000D03*
X174120000Y-91250000D03*
X174120000Y-93790000D03*
X171580000Y-91250000D03*
X171580000Y-93790000D03*
X169040000Y-91250000D03*
X169040000Y-93790000D03*
X166500000Y-91250000D03*
X166500000Y-93790000D03*
X163960000Y-91250000D03*
X163960000Y-93790000D03*
X161420000Y-91250000D03*
X161420000Y-93790000D03*
X158880000Y-91250000D03*
X158880000Y-93790000D03*
X156340000Y-91250000D03*
X156340000Y-93790000D03*
X153800000Y-91250000D03*
X153800000Y-93790000D03*
X151260000Y-91250000D03*
X151260000Y-93790000D03*
X148720000Y-91250000D03*
X148720000Y-93790000D03*
X146180000Y-91250000D03*
X146180000Y-93790000D03*
X143640000Y-91250000D03*
X143640000Y-93790000D03*
X141100000Y-91250000D03*
X141100000Y-93790000D03*
X138560000Y-91250000D03*
X138560000Y-93790000D03*
X136020000Y-91250000D03*
X136020000Y-93790000D03*
X133480000Y-91250000D03*
X133480000Y-93790000D03*
X130940000Y-91250000D03*
X130940000Y-93790000D03*
X128400000Y-91250000D03*
D13*
X128400000Y-93790000D03*
D12*
X152080000Y-100000000D03*
X149540000Y-100000000D03*
D13*
X147000000Y-100000000D03*
%TA.AperFunction,SMDPad,CuDef*%
G36*
G01*
X176775000Y-109900000D02*
X176225000Y-109900000D01*
G75*
G02*
X176025000Y-109700000I0J200000D01*
G01*
X176025000Y-109300000D01*
G75*
G02*
X176225000Y-109100000I200000J0D01*
G01*
X176775000Y-109100000D01*
G75*
G02*
X176975000Y-109300000I0J-200000D01*
G01*
X176975000Y-109700000D01*
G75*
G02*
X176775000Y-109900000I-200000J0D01*
G01*
G37*
%TD.AperFunction*%
%TA.AperFunction,SMDPad,CuDef*%
G36*
G01*
X176775000Y-111550000D02*
X176225000Y-111550000D01*
G75*
G02*
X176025000Y-111350000I0J200000D01*
G01*
X176025000Y-110950000D01*
G75*
G02*
X176225000Y-110750000I200000J0D01*
G01*
X176775000Y-110750000D01*
G75*
G02*
X176975000Y-110950000I0J-200000D01*
G01*
X176975000Y-111350000D01*
G75*
G02*
X176775000Y-111550000I-200000J0D01*
G01*
G37*
%TD.AperFunction*%
%TA.AperFunction,SMDPad,CuDef*%
G36*
G01*
X169905000Y-99930000D02*
X170455000Y-99930000D01*
G75*
G02*
X170655000Y-100130000I0J-200000D01*
G01*
X170655000Y-100530000D01*
G75*
G02*
X170455000Y-100730000I-200000J0D01*
G01*
X169905000Y-100730000D01*
G75*
G02*
X169705000Y-100530000I0J200000D01*
G01*
X169705000Y-100130000D01*
G75*
G02*
X169905000Y-99930000I200000J0D01*
G01*
G37*
%TD.AperFunction*%
%TA.AperFunction,SMDPad,CuDef*%
G36*
G01*
X169905000Y-98280000D02*
X170455000Y-98280000D01*
G75*
G02*
X170655000Y-98480000I0J-200000D01*
G01*
X170655000Y-98880000D01*
G75*
G02*
X170455000Y-99080000I-200000J0D01*
G01*
X169905000Y-99080000D01*
G75*
G02*
X169705000Y-98880000I0J200000D01*
G01*
X169705000Y-98480000D01*
G75*
G02*
X169905000Y-98280000I200000J0D01*
G01*
G37*
%TD.AperFunction*%
%TA.AperFunction,SMDPad,CuDef*%
G36*
G01*
X154759999Y-108657500D02*
X156010001Y-108657500D01*
G75*
G02*
X156260000Y-108907499I0J-249999D01*
G01*
X156260000Y-109532501D01*
G75*
G02*
X156010001Y-109782500I-249999J0D01*
G01*
X154759999Y-109782500D01*
G75*
G02*
X154510000Y-109532501I0J249999D01*
G01*
X154510000Y-108907499D01*
G75*
G02*
X154759999Y-108657500I249999J0D01*
G01*
G37*
%TD.AperFunction*%
%TA.AperFunction,SMDPad,CuDef*%
G36*
G01*
X154759999Y-105732500D02*
X156010001Y-105732500D01*
G75*
G02*
X156260000Y-105982499I0J-249999D01*
G01*
X156260000Y-106607501D01*
G75*
G02*
X156010001Y-106857500I-249999J0D01*
G01*
X154759999Y-106857500D01*
G75*
G02*
X154510000Y-106607501I0J249999D01*
G01*
X154510000Y-105982499D01*
G75*
G02*
X154759999Y-105732500I249999J0D01*
G01*
G37*
%TD.AperFunction*%
%TA.AperFunction,SMDPad,CuDef*%
G36*
G01*
X138979999Y-108657500D02*
X140230001Y-108657500D01*
G75*
G02*
X140480000Y-108907499I0J-249999D01*
G01*
X140480000Y-109532501D01*
G75*
G02*
X140230001Y-109782500I-249999J0D01*
G01*
X138979999Y-109782500D01*
G75*
G02*
X138730000Y-109532501I0J249999D01*
G01*
X138730000Y-108907499D01*
G75*
G02*
X138979999Y-108657500I249999J0D01*
G01*
G37*
%TD.AperFunction*%
%TA.AperFunction,SMDPad,CuDef*%
G36*
G01*
X138979999Y-105732500D02*
X140230001Y-105732500D01*
G75*
G02*
X140480000Y-105982499I0J-249999D01*
G01*
X140480000Y-106607501D01*
G75*
G02*
X140230001Y-106857500I-249999J0D01*
G01*
X138979999Y-106857500D01*
G75*
G02*
X138730000Y-106607501I0J249999D01*
G01*
X138730000Y-105982499D01*
G75*
G02*
X138979999Y-105732500I249999J0D01*
G01*
G37*
%TD.AperFunction*%
%TA.AperFunction,SMDPad,CuDef*%
G36*
G01*
X146869999Y-108657500D02*
X148120001Y-108657500D01*
G75*
G02*
X148370000Y-108907499I0J-249999D01*
G01*
X148370000Y-109532501D01*
G75*
G02*
X148120001Y-109782500I-249999J0D01*
G01*
X146869999Y-109782500D01*
G75*
G02*
X146620000Y-109532501I0J249999D01*
G01*
X146620000Y-108907499D01*
G75*
G02*
X146869999Y-108657500I249999J0D01*
G01*
G37*
%TD.AperFunction*%
%TA.AperFunction,SMDPad,CuDef*%
G36*
G01*
X146869999Y-105732500D02*
X148120001Y-105732500D01*
G75*
G02*
X148370000Y-105982499I0J-249999D01*
G01*
X148370000Y-106607501D01*
G75*
G02*
X148120001Y-106857500I-249999J0D01*
G01*
X146869999Y-106857500D01*
G75*
G02*
X146620000Y-106607501I0J249999D01*
G01*
X146620000Y-105982499D01*
G75*
G02*
X146869999Y-105732500I249999J0D01*
G01*
G37*
%TD.AperFunction*%
%TA.AperFunction,SMDPad,CuDef*%
G36*
G01*
X131089999Y-108657500D02*
X132340001Y-108657500D01*
G75*
G02*
X132590000Y-108907499I0J-249999D01*
G01*
X132590000Y-109532501D01*
G75*
G02*
X132340001Y-109782500I-249999J0D01*
G01*
X131089999Y-109782500D01*
G75*
G02*
X130840000Y-109532501I0J249999D01*
G01*
X130840000Y-108907499D01*
G75*
G02*
X131089999Y-108657500I249999J0D01*
G01*
G37*
%TD.AperFunction*%
%TA.AperFunction,SMDPad,CuDef*%
G36*
G01*
X131089999Y-105732500D02*
X132340001Y-105732500D01*
G75*
G02*
X132590000Y-105982499I0J-249999D01*
G01*
X132590000Y-106607501D01*
G75*
G02*
X132340001Y-106857500I-249999J0D01*
G01*
X131089999Y-106857500D01*
G75*
G02*
X130840000Y-106607501I0J249999D01*
G01*
X130840000Y-105982499D01*
G75*
G02*
X131089999Y-105732500I249999J0D01*
G01*
G37*
%TD.AperFunction*%
D14*
X124500000Y-98500000D03*
X124500000Y-99750000D03*
%TA.AperFunction,ComponentPad*%
G36*
G01*
X124950000Y-101400000D02*
X124050000Y-101400000D01*
G75*
G02*
X123850000Y-101200000I0J200000D01*
G01*
X123850000Y-100800000D01*
G75*
G02*
X124050000Y-100600000I200000J0D01*
G01*
X124950000Y-100600000D01*
G75*
G02*
X125150000Y-100800000I0J-200000D01*
G01*
X125150000Y-101200000D01*
G75*
G02*
X124950000Y-101400000I-200000J0D01*
G01*
G37*
%TD.AperFunction*%
D12*
X140970000Y-99000000D03*
X140970000Y-101540000D03*
X138430000Y-99000000D03*
X138430000Y-101540000D03*
X135890000Y-99000000D03*
X135890000Y-101540000D03*
X133350000Y-99000000D03*
D13*
X133350000Y-101540000D03*
D11*
X156655000Y-114300000D03*
X155405000Y-114300000D03*
%TA.AperFunction,ComponentPad*%
G36*
G01*
X153755000Y-114750000D02*
X153755000Y-113850000D01*
G75*
G02*
X153955000Y-113650000I200000J0D01*
G01*
X154355000Y-113650000D01*
G75*
G02*
X154555000Y-113850000I0J-200000D01*
G01*
X154555000Y-114750000D01*
G75*
G02*
X154355000Y-114950000I-200000J0D01*
G01*
X153955000Y-114950000D01*
G75*
G02*
X153755000Y-114750000I0J200000D01*
G01*
G37*
%TD.AperFunction*%
X140855000Y-114300000D03*
X139605000Y-114300000D03*
%TA.AperFunction,ComponentPad*%
G36*
G01*
X137955000Y-114750000D02*
X137955000Y-113850000D01*
G75*
G02*
X138155000Y-113650000I200000J0D01*
G01*
X138555000Y-113650000D01*
G75*
G02*
X138755000Y-113850000I0J-200000D01*
G01*
X138755000Y-114750000D01*
G75*
G02*
X138555000Y-114950000I-200000J0D01*
G01*
X138155000Y-114950000D01*
G75*
G02*
X137955000Y-114750000I0J200000D01*
G01*
G37*
%TD.AperFunction*%
D14*
X124500000Y-106500000D03*
X124500000Y-107750000D03*
%TA.AperFunction,ComponentPad*%
G36*
G01*
X124950000Y-109400000D02*
X124050000Y-109400000D01*
G75*
G02*
X123850000Y-109200000I0J200000D01*
G01*
X123850000Y-108800000D01*
G75*
G02*
X124050000Y-108600000I200000J0D01*
G01*
X124950000Y-108600000D01*
G75*
G02*
X125150000Y-108800000I0J-200000D01*
G01*
X125150000Y-109200000D01*
G75*
G02*
X124950000Y-109400000I-200000J0D01*
G01*
G37*
%TD.AperFunction*%
D11*
X148765000Y-114300000D03*
X147515000Y-114300000D03*
%TA.AperFunction,ComponentPad*%
G36*
G01*
X145865000Y-114750000D02*
X145865000Y-113850000D01*
G75*
G02*
X146065000Y-113650000I200000J0D01*
G01*
X146465000Y-113650000D01*
G75*
G02*
X146665000Y-113850000I0J-200000D01*
G01*
X146665000Y-114750000D01*
G75*
G02*
X146465000Y-114950000I-200000J0D01*
G01*
X146065000Y-114950000D01*
G75*
G02*
X145865000Y-114750000I0J200000D01*
G01*
G37*
%TD.AperFunction*%
X181365000Y-99690000D03*
%TA.AperFunction,ComponentPad*%
G36*
G01*
X179715000Y-100140000D02*
X179715000Y-99240000D01*
G75*
G02*
X179915000Y-99040000I200000J0D01*
G01*
X180315000Y-99040000D01*
G75*
G02*
X180515000Y-99240000I0J-200000D01*
G01*
X180515000Y-100140000D01*
G75*
G02*
X180315000Y-100340000I-200000J0D01*
G01*
X179915000Y-100340000D01*
G75*
G02*
X179715000Y-100140000I0J200000D01*
G01*
G37*
%TD.AperFunction*%
X181570000Y-105410000D03*
X180320000Y-105410000D03*
%TA.AperFunction,ComponentPad*%
G36*
G01*
X178670000Y-105860000D02*
X178670000Y-104960000D01*
G75*
G02*
X178870000Y-104760000I200000J0D01*
G01*
X179270000Y-104760000D01*
G75*
G02*
X179470000Y-104960000I0J-200000D01*
G01*
X179470000Y-105860000D01*
G75*
G02*
X179270000Y-106060000I-200000J0D01*
G01*
X178870000Y-106060000D01*
G75*
G02*
X178670000Y-105860000I0J200000D01*
G01*
G37*
%TD.AperFunction*%
X181590000Y-110490000D03*
%TA.AperFunction,ComponentPad*%
G36*
G01*
X179940000Y-110940000D02*
X179940000Y-110040000D01*
G75*
G02*
X180140000Y-109840000I200000J0D01*
G01*
X180540000Y-109840000D01*
G75*
G02*
X180740000Y-110040000I0J-200000D01*
G01*
X180740000Y-110940000D01*
G75*
G02*
X180540000Y-111140000I-200000J0D01*
G01*
X180140000Y-111140000D01*
G75*
G02*
X179940000Y-110940000I0J200000D01*
G01*
G37*
%TD.AperFunction*%
D15*
X143000000Y-105000000D03*
D16*
X169500000Y-113280000D02*
X170500000Y-114280000D01*
X169500000Y-110000000D02*
X169500000Y-113280000D01*
D17*
X181570000Y-105435318D02*
X181570000Y-105410000D01*
X181570000Y-106310000D02*
X181570000Y-105410000D01*
X178380000Y-109500000D02*
X181570000Y-106310000D01*
X176500000Y-109500000D02*
X178380000Y-109500000D01*
X173237500Y-109337500D02*
X172575000Y-110000000D01*
X173237500Y-106737500D02*
X173237500Y-109337500D01*
X172000000Y-105500000D02*
X173237500Y-106737500D01*
D16*
X172575000Y-113455000D02*
X171750000Y-114280000D01*
X172575000Y-110000000D02*
X172575000Y-113455000D01*
D17*
X176660000Y-95679998D02*
X176660000Y-93790000D01*
X172085000Y-100254998D02*
X176660000Y-95679998D01*
X172085000Y-100640000D02*
X172085000Y-100254998D01*
X123524990Y-101975010D02*
X124500000Y-101000000D01*
X123524990Y-108674990D02*
X123524990Y-101975010D01*
X123850000Y-109000000D02*
X123524990Y-108674990D01*
X124500000Y-109000000D02*
X123850000Y-109000000D01*
X145824999Y-104624999D02*
X147495000Y-106295000D01*
X145824999Y-96685001D02*
X145824999Y-104624999D01*
X148720000Y-93790000D02*
X145824999Y-96685001D01*
X147495000Y-106295000D02*
X155385000Y-106295000D01*
X139605000Y-106295000D02*
X147495000Y-106295000D01*
X131715000Y-106295000D02*
X139605000Y-106295000D01*
X129010000Y-109000000D02*
X124500000Y-109000000D01*
X131715000Y-106295000D02*
X129010000Y-109000000D01*
X181890308Y-111465010D02*
X182315010Y-111040308D01*
X181870308Y-104434990D02*
X179395010Y-104434990D01*
X179070000Y-104760000D02*
X179070000Y-105410000D01*
X182315010Y-104879692D02*
X181870308Y-104434990D01*
X180665010Y-111465010D02*
X181890308Y-111465010D01*
X179395010Y-104434990D02*
X179070000Y-104760000D01*
X182315010Y-111040308D02*
X182315010Y-104879692D01*
X180340000Y-110490000D02*
X180340000Y-111140000D01*
X180340000Y-111140000D02*
X180665010Y-111465010D01*
X140900000Y-105000000D02*
X139605000Y-106295000D01*
X143000000Y-105000000D02*
X140900000Y-105000000D01*
X165324999Y-92614999D02*
X166500000Y-93790000D01*
X160244999Y-93225999D02*
X160855999Y-92614999D01*
X160244999Y-94255001D02*
X160244999Y-93225999D01*
X155675001Y-98824999D02*
X160244999Y-94255001D01*
X148175001Y-98824999D02*
X155675001Y-98824999D01*
X160855999Y-92614999D02*
X165324999Y-92614999D01*
X147000000Y-100000000D02*
X148175001Y-98824999D01*
X166500000Y-97863590D02*
X166500000Y-93790000D01*
X169687532Y-101055010D02*
X169379990Y-100747468D01*
X169691421Y-101055010D02*
X169687532Y-101055010D01*
X176636411Y-108000000D02*
X169691421Y-101055010D01*
X169379990Y-100747468D02*
X169379990Y-100743580D01*
X178630000Y-108000000D02*
X176636411Y-108000000D01*
X169379990Y-100743580D02*
X166500000Y-97863590D01*
X180320000Y-106310000D02*
X178630000Y-108000000D01*
X180320000Y-105410000D02*
X180320000Y-106310000D01*
X162784999Y-94965001D02*
X163960000Y-93790000D01*
X160255997Y-94965001D02*
X162784999Y-94965001D01*
X154045997Y-101175001D02*
X160255997Y-94965001D01*
X150715001Y-101175001D02*
X154045997Y-101175001D01*
X149540000Y-100000000D02*
X150715001Y-101175001D01*
X181590000Y-110347522D02*
X181590000Y-110490000D01*
X179922532Y-109514990D02*
X180757468Y-109514990D01*
X180757468Y-109514990D02*
X181590000Y-110347522D01*
X178287522Y-111150000D02*
X179922532Y-109514990D01*
X176500000Y-111150000D02*
X178287522Y-111150000D01*
X165500000Y-97500000D02*
X165500000Y-95330000D01*
X165500000Y-95330000D02*
X163960000Y-93790000D01*
X168929979Y-100929979D02*
X165500000Y-97500000D01*
X169501132Y-101505021D02*
X168929979Y-100933868D01*
X169505021Y-101505021D02*
X169501132Y-101505021D01*
X175500000Y-107500000D02*
X169505021Y-101505021D01*
X168929979Y-100933868D02*
X168929979Y-100929979D01*
X176500000Y-111000000D02*
X175500000Y-110000000D01*
X175500000Y-110000000D02*
X175500000Y-107500000D01*
X176500000Y-111150000D02*
X176500000Y-111000000D01*
X169040000Y-97540000D02*
X170180000Y-98680000D01*
X169040000Y-93790000D02*
X169040000Y-97540000D01*
X175890000Y-99690000D02*
X176530000Y-100330000D01*
X174085000Y-99690000D02*
X175890000Y-99690000D01*
X181365000Y-100590000D02*
X181365000Y-99690000D01*
X180355000Y-101600000D02*
X181365000Y-100590000D01*
X177800000Y-101600000D02*
X180355000Y-101600000D01*
X176530000Y-100330000D02*
X177800000Y-101600000D01*
X139605000Y-114300000D02*
X139605000Y-109220000D01*
X137254999Y-97635001D02*
X141100000Y-93790000D01*
X137254999Y-100175001D02*
X137254999Y-97635001D01*
X135890000Y-101540000D02*
X137254999Y-100175001D01*
X155405000Y-109240000D02*
X155385000Y-109220000D01*
X155405000Y-114300000D02*
X155405000Y-109240000D01*
X142145001Y-97824999D02*
X146180000Y-93790000D01*
X142145001Y-100364999D02*
X142145001Y-97824999D01*
X140970000Y-101540000D02*
X142145001Y-100364999D01*
X160565410Y-98960000D02*
X160540000Y-98960000D01*
X161715001Y-100135001D02*
X160540000Y-98960000D01*
X161715001Y-101874003D02*
X161715001Y-100135001D01*
X164590000Y-104749002D02*
X161715001Y-101874003D01*
X164590000Y-109030000D02*
X164590000Y-104749002D01*
X159364999Y-100324999D02*
X158000000Y-98960000D01*
X159364999Y-102064001D02*
X159364999Y-100324999D01*
X163340000Y-106039002D02*
X159364999Y-102064001D01*
X163340000Y-109030000D02*
X163340000Y-106039002D01*
X125400000Y-107750000D02*
X127500000Y-105650000D01*
X124500000Y-107750000D02*
X125400000Y-107750000D01*
X137384999Y-92425001D02*
X138560000Y-91250000D01*
X135481409Y-92425001D02*
X137384999Y-92425001D01*
X134655001Y-93251409D02*
X135481409Y-92425001D01*
X134655001Y-94354001D02*
X134655001Y-93251409D01*
X127500000Y-101509002D02*
X134655001Y-94354001D01*
X127500000Y-105650000D02*
X127500000Y-101509002D01*
X147515000Y-109240000D02*
X147495000Y-109220000D01*
X147515000Y-114300000D02*
X147515000Y-109240000D01*
X139794999Y-97635001D02*
X143640000Y-93790000D01*
X139794999Y-100175001D02*
X139794999Y-97635001D01*
X138430000Y-101540000D02*
X139794999Y-100175001D01*
X133105997Y-92425001D02*
X134844999Y-92425001D01*
X132115001Y-93415997D02*
X133105997Y-92425001D01*
X132115001Y-94354001D02*
X132115001Y-93415997D01*
X126719002Y-99750000D02*
X132115001Y-94354001D01*
X134844999Y-92425001D02*
X136020000Y-91250000D01*
X124500000Y-99750000D02*
X126719002Y-99750000D01*
X131735000Y-109240000D02*
X131715000Y-109220000D01*
X131735000Y-114300000D02*
X131735000Y-109240000D01*
X134525001Y-99564001D02*
X134525001Y-95284999D01*
X133350000Y-100739002D02*
X134525001Y-99564001D01*
X134525001Y-95284999D02*
X136020000Y-93790000D01*
X133350000Y-101540000D02*
X133350000Y-100739002D01*
X170425000Y-105925000D02*
X172000000Y-107500000D01*
X170425000Y-105500000D02*
X170425000Y-105925000D01*
X170495000Y-100330000D02*
X172085000Y-98740000D01*
X170180000Y-100330000D02*
X170495000Y-100330000D01*
D18*
X184340001Y-90273382D02*
X184340000Y-117726619D01*
X183726620Y-118340000D01*
X121273381Y-118340000D01*
X120660000Y-117726620D01*
X120660000Y-115304495D01*
X121515000Y-115304495D01*
X121515000Y-115695505D01*
X121591282Y-116079003D01*
X121740915Y-116440250D01*
X121958149Y-116765364D01*
X122234636Y-117041851D01*
X122559750Y-117259085D01*
X122920997Y-117408718D01*
X123304495Y-117485000D01*
X123695505Y-117485000D01*
X124079003Y-117408718D01*
X124440250Y-117259085D01*
X124765364Y-117041851D01*
X125041851Y-116765364D01*
X125259085Y-116440250D01*
X125408718Y-116079003D01*
X125485000Y-115695505D01*
X125485000Y-115304495D01*
X125408718Y-114920997D01*
X125259085Y-114559750D01*
X125041851Y-114234636D01*
X124765364Y-113958149D01*
X124440250Y-113740915D01*
X124079003Y-113591282D01*
X123695505Y-113515000D01*
X123304495Y-113515000D01*
X122920997Y-113591282D01*
X122559750Y-113740915D01*
X122234636Y-113958149D01*
X121958149Y-114234636D01*
X121740915Y-114559750D01*
X121591282Y-114920997D01*
X121515000Y-115304495D01*
X120660000Y-115304495D01*
X120660000Y-101975010D01*
X122761314Y-101975010D01*
X122764991Y-102012342D01*
X122764990Y-108637667D01*
X122761314Y-108674990D01*
X122764990Y-108712312D01*
X122764990Y-108712322D01*
X122775987Y-108823975D01*
X122813534Y-108947753D01*
X122819444Y-108967236D01*
X122890016Y-109099266D01*
X122920574Y-109136500D01*
X122984989Y-109214991D01*
X123013993Y-109238794D01*
X123266929Y-109491730D01*
X123275722Y-109520716D01*
X123353169Y-109665608D01*
X123457394Y-109792606D01*
X123584392Y-109896831D01*
X123729284Y-109974278D01*
X123886500Y-110021969D01*
X124050000Y-110038072D01*
X124950000Y-110038072D01*
X125113500Y-110021969D01*
X125270716Y-109974278D01*
X125415608Y-109896831D01*
X125542606Y-109792606D01*
X125569365Y-109760000D01*
X128972678Y-109760000D01*
X129010000Y-109763676D01*
X129047322Y-109760000D01*
X129047333Y-109760000D01*
X129158986Y-109749003D01*
X129302247Y-109705546D01*
X129434276Y-109634974D01*
X129550001Y-109540001D01*
X129573804Y-109510997D01*
X130204618Y-108880183D01*
X130201928Y-108907499D01*
X130201928Y-109532501D01*
X130218992Y-109705755D01*
X130269528Y-109872351D01*
X130351595Y-110025887D01*
X130462038Y-110160462D01*
X130596613Y-110270905D01*
X130750149Y-110352972D01*
X130916745Y-110403508D01*
X130975001Y-110409246D01*
X130975000Y-113344584D01*
X130870266Y-113472203D01*
X130774159Y-113652008D01*
X130714976Y-113847106D01*
X130700000Y-113999163D01*
X130700000Y-114600838D01*
X130714976Y-114752895D01*
X130774159Y-114947993D01*
X130870267Y-115127797D01*
X130999605Y-115285396D01*
X131157204Y-115414734D01*
X131337008Y-115510841D01*
X131532106Y-115570024D01*
X131735000Y-115590007D01*
X131937895Y-115570024D01*
X132132993Y-115510841D01*
X132312797Y-115414734D01*
X132360001Y-115375995D01*
X132407204Y-115414734D01*
X132587008Y-115510841D01*
X132782106Y-115570024D01*
X132985000Y-115590007D01*
X133187895Y-115570024D01*
X133382993Y-115510841D01*
X133562797Y-115414734D01*
X133720396Y-115285396D01*
X133849734Y-115127797D01*
X133945841Y-114947992D01*
X134005024Y-114752894D01*
X134020000Y-114600837D01*
X134020000Y-113999162D01*
X134005024Y-113847105D01*
X133945841Y-113652007D01*
X133849734Y-113472203D01*
X133720396Y-113314604D01*
X133562797Y-113185266D01*
X133382992Y-113089159D01*
X133187894Y-113029976D01*
X132985000Y-113009993D01*
X132782105Y-113029976D01*
X132587007Y-113089159D01*
X132495000Y-113138338D01*
X132495000Y-110405306D01*
X132513255Y-110403508D01*
X132679851Y-110352972D01*
X132833387Y-110270905D01*
X132967962Y-110160462D01*
X133078405Y-110025887D01*
X133160472Y-109872351D01*
X133211008Y-109705755D01*
X133228072Y-109532501D01*
X133228072Y-108907499D01*
X138091928Y-108907499D01*
X138091928Y-109532501D01*
X138108992Y-109705755D01*
X138159528Y-109872351D01*
X138241595Y-110025887D01*
X138352038Y-110160462D01*
X138486613Y-110270905D01*
X138640149Y-110352972D01*
X138806745Y-110403508D01*
X138845001Y-110407276D01*
X138845000Y-113344584D01*
X138740266Y-113472203D01*
X138644159Y-113652008D01*
X138584976Y-113847106D01*
X138570000Y-113999163D01*
X138570000Y-114600838D01*
X138584976Y-114752895D01*
X138644159Y-114947993D01*
X138740267Y-115127797D01*
X138869605Y-115285396D01*
X139027204Y-115414734D01*
X139207008Y-115510841D01*
X139402106Y-115570024D01*
X139605000Y-115590007D01*
X139807895Y-115570024D01*
X140002993Y-115510841D01*
X140182797Y-115414734D01*
X140230001Y-115375995D01*
X140277204Y-115414734D01*
X140457008Y-115510841D01*
X140652106Y-115570024D01*
X140855000Y-115590007D01*
X141057895Y-115570024D01*
X141252993Y-115510841D01*
X141432797Y-115414734D01*
X141590396Y-115285396D01*
X141719734Y-115127797D01*
X141815841Y-114947992D01*
X141875024Y-114752894D01*
X141890000Y-114600837D01*
X141890000Y-113999162D01*
X141875024Y-113847105D01*
X141815841Y-113652007D01*
X141719734Y-113472203D01*
X141590396Y-113314604D01*
X141432797Y-113185266D01*
X141252992Y-113089159D01*
X141057894Y-113029976D01*
X140855000Y-113009993D01*
X140652105Y-113029976D01*
X140457007Y-113089159D01*
X140365000Y-113138338D01*
X140365000Y-110407276D01*
X140403255Y-110403508D01*
X140569851Y-110352972D01*
X140723387Y-110270905D01*
X140857962Y-110160462D01*
X140968405Y-110025887D01*
X141050472Y-109872351D01*
X141101008Y-109705755D01*
X141118072Y-109532501D01*
X141118072Y-108907499D01*
X145981928Y-108907499D01*
X145981928Y-109532501D01*
X145998992Y-109705755D01*
X146049528Y-109872351D01*
X146131595Y-110025887D01*
X146242038Y-110160462D01*
X146376613Y-110270905D01*
X146530149Y-110352972D01*
X146696745Y-110403508D01*
X146755001Y-110409246D01*
X146755000Y-113344584D01*
X146650266Y-113472203D01*
X146554159Y-113652008D01*
X146494976Y-113847106D01*
X146480000Y-113999163D01*
X146480000Y-114600838D01*
X146494976Y-114752895D01*
X146554159Y-114947993D01*
X146650267Y-115127797D01*
X146779605Y-115285396D01*
X146937204Y-115414734D01*
X147117008Y-115510841D01*
X147312106Y-115570024D01*
X147515000Y-115590007D01*
X147717895Y-115570024D01*
X147912993Y-115510841D01*
X148092797Y-115414734D01*
X148140001Y-115375995D01*
X148187204Y-115414734D01*
X148367008Y-115510841D01*
X148562106Y-115570024D01*
X148765000Y-115590007D01*
X148967895Y-115570024D01*
X149162993Y-115510841D01*
X149342797Y-115414734D01*
X149500396Y-115285396D01*
X149629734Y-115127797D01*
X149725841Y-114947992D01*
X149785024Y-114752894D01*
X149800000Y-114600837D01*
X149800000Y-113999162D01*
X149785024Y-113847105D01*
X149725841Y-113652007D01*
X149629734Y-113472203D01*
X149500396Y-113314604D01*
X149342797Y-113185266D01*
X149162992Y-113089159D01*
X148967894Y-113029976D01*
X148765000Y-113009993D01*
X148562105Y-113029976D01*
X148367007Y-113089159D01*
X148275000Y-113138338D01*
X148275000Y-110405306D01*
X148293255Y-110403508D01*
X148459851Y-110352972D01*
X148613387Y-110270905D01*
X148747962Y-110160462D01*
X148858405Y-110025887D01*
X148940472Y-109872351D01*
X148991008Y-109705755D01*
X149008072Y-109532501D01*
X149008072Y-108907499D01*
X153871928Y-108907499D01*
X153871928Y-109532501D01*
X153888992Y-109705755D01*
X153939528Y-109872351D01*
X154021595Y-110025887D01*
X154132038Y-110160462D01*
X154266613Y-110270905D01*
X154420149Y-110352972D01*
X154586745Y-110403508D01*
X154645001Y-110409246D01*
X154645000Y-113344584D01*
X154540266Y-113472203D01*
X154444159Y-113652008D01*
X154384976Y-113847106D01*
X154370000Y-113999163D01*
X154370000Y-114600838D01*
X154384976Y-114752895D01*
X154444159Y-114947993D01*
X154540267Y-115127797D01*
X154669605Y-115285396D01*
X154827204Y-115414734D01*
X155007008Y-115510841D01*
X155202106Y-115570024D01*
X155405000Y-115590007D01*
X155607895Y-115570024D01*
X155802993Y-115510841D01*
X155982797Y-115414734D01*
X156030001Y-115375995D01*
X156077204Y-115414734D01*
X156257008Y-115510841D01*
X156452106Y-115570024D01*
X156655000Y-115590007D01*
X156857895Y-115570024D01*
X157052993Y-115510841D01*
X157232797Y-115414734D01*
X157390396Y-115285396D01*
X157519734Y-115127797D01*
X157615841Y-114947992D01*
X157675024Y-114752894D01*
X157690000Y-114600837D01*
X157690000Y-113999162D01*
X157688031Y-113979163D01*
X162305000Y-113979163D01*
X162305000Y-114580838D01*
X162319976Y-114732895D01*
X162379159Y-114927993D01*
X162475267Y-115107797D01*
X162604605Y-115265396D01*
X162762204Y-115394734D01*
X162942008Y-115490841D01*
X163137106Y-115550024D01*
X163340000Y-115570007D01*
X163542895Y-115550024D01*
X163737993Y-115490841D01*
X163917797Y-115394734D01*
X163965001Y-115355995D01*
X164012204Y-115394734D01*
X164192008Y-115490841D01*
X164387106Y-115550024D01*
X164590000Y-115570007D01*
X164792895Y-115550024D01*
X164987993Y-115490841D01*
X165167797Y-115394734D01*
X165215001Y-115355995D01*
X165262204Y-115394734D01*
X165442008Y-115490841D01*
X165637106Y-115550024D01*
X165840000Y-115570007D01*
X166042895Y-115550024D01*
X166237993Y-115490841D01*
X166417797Y-115394734D01*
X166575396Y-115265396D01*
X166704734Y-115107797D01*
X166800841Y-114927992D01*
X166860024Y-114732894D01*
X166875000Y-114580837D01*
X166875000Y-113979162D01*
X166860024Y-113827105D01*
X166800841Y-113632007D01*
X166704734Y-113452203D01*
X166575396Y-113294604D01*
X166417797Y-113165266D01*
X166237992Y-113069159D01*
X166042894Y-113009976D01*
X165840000Y-112989993D01*
X165637105Y-113009976D01*
X165442007Y-113069159D01*
X165262203Y-113165266D01*
X165215000Y-113204004D01*
X165167797Y-113165266D01*
X164987992Y-113069159D01*
X164792894Y-113009976D01*
X164590000Y-112989993D01*
X164387105Y-113009976D01*
X164192007Y-113069159D01*
X164012203Y-113165266D01*
X163965000Y-113204004D01*
X163917797Y-113165266D01*
X163737992Y-113069159D01*
X163542894Y-113009976D01*
X163340000Y-112989993D01*
X163137105Y-113009976D01*
X162942007Y-113069159D01*
X162762203Y-113165266D01*
X162604604Y-113294604D01*
X162475266Y-113452203D01*
X162379159Y-113632008D01*
X162319976Y-113827106D01*
X162305000Y-113979163D01*
X157688031Y-113979163D01*
X157675024Y-113847105D01*
X157615841Y-113652007D01*
X157519734Y-113472203D01*
X157390396Y-113314604D01*
X157232797Y-113185266D01*
X157052992Y-113089159D01*
X156857894Y-113029976D01*
X156655000Y-113009993D01*
X156452105Y-113029976D01*
X156257007Y-113089159D01*
X156165000Y-113138338D01*
X156165000Y-110405306D01*
X156183255Y-110403508D01*
X156349851Y-110352972D01*
X156503387Y-110270905D01*
X156637962Y-110160462D01*
X156748405Y-110025887D01*
X156830472Y-109872351D01*
X156881008Y-109705755D01*
X156898072Y-109532501D01*
X156898072Y-108907499D01*
X156881008Y-108734245D01*
X156830472Y-108567649D01*
X156748405Y-108414113D01*
X156637962Y-108279538D01*
X156503387Y-108169095D01*
X156349851Y-108087028D01*
X156183255Y-108036492D01*
X156010001Y-108019428D01*
X154759999Y-108019428D01*
X154586745Y-108036492D01*
X154420149Y-108087028D01*
X154266613Y-108169095D01*
X154132038Y-108279538D01*
X154021595Y-108414113D01*
X153939528Y-108567649D01*
X153888992Y-108734245D01*
X153871928Y-108907499D01*
X149008072Y-108907499D01*
X148991008Y-108734245D01*
X148940472Y-108567649D01*
X148858405Y-108414113D01*
X148747962Y-108279538D01*
X148613387Y-108169095D01*
X148459851Y-108087028D01*
X148293255Y-108036492D01*
X148120001Y-108019428D01*
X146869999Y-108019428D01*
X146696745Y-108036492D01*
X146530149Y-108087028D01*
X146376613Y-108169095D01*
X146242038Y-108279538D01*
X146131595Y-108414113D01*
X146049528Y-108567649D01*
X145998992Y-108734245D01*
X145981928Y-108907499D01*
X141118072Y-108907499D01*
X141101008Y-108734245D01*
X141050472Y-108567649D01*
X140968405Y-108414113D01*
X140857962Y-108279538D01*
X140723387Y-108169095D01*
X140569851Y-108087028D01*
X140403255Y-108036492D01*
X140230001Y-108019428D01*
X138979999Y-108019428D01*
X138806745Y-108036492D01*
X138640149Y-108087028D01*
X138486613Y-108169095D01*
X138352038Y-108279538D01*
X138241595Y-108414113D01*
X138159528Y-108567649D01*
X138108992Y-108734245D01*
X138091928Y-108907499D01*
X133228072Y-108907499D01*
X133211008Y-108734245D01*
X133160472Y-108567649D01*
X133078405Y-108414113D01*
X132967962Y-108279538D01*
X132833387Y-108169095D01*
X132679851Y-108087028D01*
X132513255Y-108036492D01*
X132340001Y-108019428D01*
X131089999Y-108019428D01*
X131062683Y-108022118D01*
X131589230Y-107495572D01*
X132340001Y-107495572D01*
X132513255Y-107478508D01*
X132679851Y-107427972D01*
X132833387Y-107345905D01*
X132967962Y-107235462D01*
X133078405Y-107100887D01*
X133102932Y-107055000D01*
X138217068Y-107055000D01*
X138241595Y-107100887D01*
X138352038Y-107235462D01*
X138486613Y-107345905D01*
X138640149Y-107427972D01*
X138806745Y-107478508D01*
X138979999Y-107495572D01*
X140230001Y-107495572D01*
X140403255Y-107478508D01*
X140569851Y-107427972D01*
X140723387Y-107345905D01*
X140857962Y-107235462D01*
X140968405Y-107100887D01*
X140992932Y-107055000D01*
X146107068Y-107055000D01*
X146131595Y-107100887D01*
X146242038Y-107235462D01*
X146376613Y-107345905D01*
X146530149Y-107427972D01*
X146696745Y-107478508D01*
X146869999Y-107495572D01*
X148120001Y-107495572D01*
X148293255Y-107478508D01*
X148459851Y-107427972D01*
X148613387Y-107345905D01*
X148747962Y-107235462D01*
X148858405Y-107100887D01*
X148882932Y-107055000D01*
X153997068Y-107055000D01*
X154021595Y-107100887D01*
X154132038Y-107235462D01*
X154266613Y-107345905D01*
X154420149Y-107427972D01*
X154586745Y-107478508D01*
X154759999Y-107495572D01*
X156010001Y-107495572D01*
X156183255Y-107478508D01*
X156349851Y-107427972D01*
X156503387Y-107345905D01*
X156637962Y-107235462D01*
X156748405Y-107100887D01*
X156830472Y-106947351D01*
X156881008Y-106780755D01*
X156898072Y-106607501D01*
X156898072Y-105982499D01*
X156881008Y-105809245D01*
X156830472Y-105642649D01*
X156748405Y-105489113D01*
X156637962Y-105354538D01*
X156503387Y-105244095D01*
X156349851Y-105162028D01*
X156183255Y-105111492D01*
X156010001Y-105094428D01*
X154759999Y-105094428D01*
X154586745Y-105111492D01*
X154420149Y-105162028D01*
X154266613Y-105244095D01*
X154132038Y-105354538D01*
X154021595Y-105489113D01*
X153997068Y-105535000D01*
X148882932Y-105535000D01*
X148858405Y-105489113D01*
X148747962Y-105354538D01*
X148613387Y-105244095D01*
X148459851Y-105162028D01*
X148293255Y-105111492D01*
X148120001Y-105094428D01*
X147369230Y-105094428D01*
X146584999Y-104310198D01*
X146584999Y-101488072D01*
X147850000Y-101488072D01*
X147974482Y-101475812D01*
X148094180Y-101439502D01*
X148204494Y-101380537D01*
X148301185Y-101301185D01*
X148380537Y-101204494D01*
X148439502Y-101094180D01*
X148461513Y-101021620D01*
X148593368Y-101153475D01*
X148836589Y-101315990D01*
X149106842Y-101427932D01*
X149393740Y-101485000D01*
X149686260Y-101485000D01*
X149906408Y-101441210D01*
X150151202Y-101686004D01*
X150175000Y-101715002D01*
X150290725Y-101809975D01*
X150422754Y-101880547D01*
X150566015Y-101924004D01*
X150677668Y-101935001D01*
X150677677Y-101935001D01*
X150715000Y-101938677D01*
X150752323Y-101935001D01*
X154008675Y-101935001D01*
X154045997Y-101938677D01*
X154083319Y-101935001D01*
X154083330Y-101935001D01*
X154194983Y-101924004D01*
X154338244Y-101880547D01*
X154470273Y-101809975D01*
X154585998Y-101715002D01*
X154609801Y-101685998D01*
X156668890Y-99626909D01*
X156684010Y-99663411D01*
X156846525Y-99906632D01*
X156978380Y-100038487D01*
X156905820Y-100060498D01*
X156795506Y-100119463D01*
X156698815Y-100198815D01*
X156619463Y-100295506D01*
X156560498Y-100405820D01*
X156524188Y-100525518D01*
X156511928Y-100650000D01*
X156511928Y-102350000D01*
X156524188Y-102474482D01*
X156560498Y-102594180D01*
X156619463Y-102704494D01*
X156698815Y-102801185D01*
X156795506Y-102880537D01*
X156905820Y-102939502D01*
X157025518Y-102975812D01*
X157150000Y-102988072D01*
X158850000Y-102988072D01*
X158974482Y-102975812D01*
X159094180Y-102939502D01*
X159140787Y-102914590D01*
X162580001Y-106353805D01*
X162580000Y-108074584D01*
X162475266Y-108202203D01*
X162379159Y-108382008D01*
X162319976Y-108577106D01*
X162305000Y-108729163D01*
X162305000Y-109330838D01*
X162319976Y-109482895D01*
X162379159Y-109677993D01*
X162475267Y-109857797D01*
X162604605Y-110015396D01*
X162762204Y-110144734D01*
X162942008Y-110240841D01*
X163137106Y-110300024D01*
X163340000Y-110320007D01*
X163542895Y-110300024D01*
X163737993Y-110240841D01*
X163917797Y-110144734D01*
X163965001Y-110105995D01*
X164012204Y-110144734D01*
X164192008Y-110240841D01*
X164387106Y-110300024D01*
X164590000Y-110320007D01*
X164792895Y-110300024D01*
X164987993Y-110240841D01*
X165167797Y-110144734D01*
X165215001Y-110105995D01*
X165262204Y-110144734D01*
X165442008Y-110240841D01*
X165637106Y-110300024D01*
X165840000Y-110320007D01*
X166042895Y-110300024D01*
X166237993Y-110240841D01*
X166417797Y-110144734D01*
X166575396Y-110015396D01*
X166704734Y-109857797D01*
X166800841Y-109677992D01*
X166860024Y-109482894D01*
X166875000Y-109330837D01*
X166875000Y-108729162D01*
X166860024Y-108577105D01*
X166800841Y-108382007D01*
X166704734Y-108202203D01*
X166575396Y-108044604D01*
X166417797Y-107915266D01*
X166237992Y-107819159D01*
X166042894Y-107759976D01*
X165840000Y-107739993D01*
X165637105Y-107759976D01*
X165442007Y-107819159D01*
X165350000Y-107868338D01*
X165350000Y-104786335D01*
X165353677Y-104749002D01*
X165339003Y-104600016D01*
X165295546Y-104456755D01*
X165224974Y-104324726D01*
X165193196Y-104286004D01*
X165130001Y-104209001D01*
X165101003Y-104185203D01*
X163746909Y-102831110D01*
X163783411Y-102815990D01*
X164026632Y-102653475D01*
X164233475Y-102446632D01*
X164395990Y-102203411D01*
X164507932Y-101933158D01*
X164565000Y-101646260D01*
X164565000Y-101353740D01*
X164507932Y-101066842D01*
X164395990Y-100796589D01*
X164233475Y-100553368D01*
X164026632Y-100346525D01*
X163852240Y-100230000D01*
X164026632Y-100113475D01*
X164233475Y-99906632D01*
X164395990Y-99663411D01*
X164507932Y-99393158D01*
X164565000Y-99106260D01*
X164565000Y-98813740D01*
X164507932Y-98526842D01*
X164395990Y-98256589D01*
X164233475Y-98013368D01*
X164026632Y-97806525D01*
X163783411Y-97644010D01*
X163513158Y-97532068D01*
X163226260Y-97475000D01*
X162933740Y-97475000D01*
X162646842Y-97532068D01*
X162376589Y-97644010D01*
X162133368Y-97806525D01*
X161926525Y-98013368D01*
X161810000Y-98187760D01*
X161693475Y-98013368D01*
X161486632Y-97806525D01*
X161243411Y-97644010D01*
X160973158Y-97532068D01*
X160686260Y-97475000D01*
X160393740Y-97475000D01*
X160106842Y-97532068D01*
X159836589Y-97644010D01*
X159593368Y-97806525D01*
X159386525Y-98013368D01*
X159270000Y-98187760D01*
X159153475Y-98013368D01*
X158946632Y-97806525D01*
X158703411Y-97644010D01*
X158666909Y-97628891D01*
X160570799Y-95725001D01*
X162747677Y-95725001D01*
X162784999Y-95728677D01*
X162822321Y-95725001D01*
X162822332Y-95725001D01*
X162933985Y-95714004D01*
X163077246Y-95670547D01*
X163209275Y-95599975D01*
X163325000Y-95505002D01*
X163348803Y-95475998D01*
X163593592Y-95231209D01*
X163813740Y-95275000D01*
X164106260Y-95275000D01*
X164326408Y-95231210D01*
X164740001Y-95644803D01*
X164740000Y-97462677D01*
X164736324Y-97500000D01*
X164740000Y-97537322D01*
X164740000Y-97537332D01*
X164750997Y-97648985D01*
X164781790Y-97750498D01*
X164794454Y-97792246D01*
X164865026Y-97924276D01*
X164897854Y-97964276D01*
X164959999Y-98040001D01*
X164989003Y-98063804D01*
X168348383Y-101423185D01*
X168389978Y-101473869D01*
X168418981Y-101497671D01*
X168937332Y-102016023D01*
X168961131Y-102045022D01*
X169011822Y-102086623D01*
X171403825Y-104478626D01*
X171305225Y-104531329D01*
X171212500Y-104607426D01*
X171119775Y-104531329D01*
X170971642Y-104452150D01*
X170810908Y-104403392D01*
X170643750Y-104386928D01*
X170206250Y-104386928D01*
X170039092Y-104403392D01*
X169878358Y-104452150D01*
X169730225Y-104531329D01*
X169600385Y-104637885D01*
X169493829Y-104767725D01*
X169414650Y-104915858D01*
X169365892Y-105076592D01*
X169349428Y-105243750D01*
X169349428Y-105756250D01*
X169365892Y-105923408D01*
X169414650Y-106084142D01*
X169493829Y-106232275D01*
X169600385Y-106362115D01*
X169730225Y-106468671D01*
X169878358Y-106547850D01*
X170014280Y-106589082D01*
X170961928Y-107536730D01*
X170961928Y-107775000D01*
X170978031Y-107938500D01*
X171025722Y-108095716D01*
X171103169Y-108240608D01*
X171207394Y-108367606D01*
X171334392Y-108471831D01*
X171459368Y-108538633D01*
X171424095Y-108581613D01*
X171342028Y-108735149D01*
X171291492Y-108901745D01*
X171274428Y-109074999D01*
X171274428Y-110925001D01*
X171291492Y-111098255D01*
X171342028Y-111264851D01*
X171424095Y-111418387D01*
X171534538Y-111552962D01*
X171565000Y-111577962D01*
X171565001Y-113008213D01*
X171547105Y-113009976D01*
X171352007Y-113069159D01*
X171172203Y-113165266D01*
X171014604Y-113294604D01*
X170885266Y-113452203D01*
X170789159Y-113632008D01*
X170729976Y-113827106D01*
X170715000Y-113979163D01*
X170715000Y-114580838D01*
X170729976Y-114732895D01*
X170789159Y-114927993D01*
X170885267Y-115107797D01*
X171014605Y-115265396D01*
X171172204Y-115394734D01*
X171352008Y-115490841D01*
X171547106Y-115550024D01*
X171750000Y-115570007D01*
X171952895Y-115550024D01*
X172147993Y-115490841D01*
X172327797Y-115394734D01*
X172437753Y-115304495D01*
X179515000Y-115304495D01*
X179515000Y-115695505D01*
X179591282Y-116079003D01*
X179740915Y-116440250D01*
X179958149Y-116765364D01*
X180234636Y-117041851D01*
X180559750Y-117259085D01*
X180920997Y-117408718D01*
X181304495Y-117485000D01*
X181695505Y-117485000D01*
X182079003Y-117408718D01*
X182440250Y-117259085D01*
X182765364Y-117041851D01*
X183041851Y-116765364D01*
X183259085Y-116440250D01*
X183408718Y-116079003D01*
X183485000Y-115695505D01*
X183485000Y-115304495D01*
X183408718Y-114920997D01*
X183259085Y-114559750D01*
X183041851Y-114234636D01*
X182765364Y-113958149D01*
X182440250Y-113740915D01*
X182079003Y-113591282D01*
X181695505Y-113515000D01*
X181304495Y-113515000D01*
X180920997Y-113591282D01*
X180559750Y-113740915D01*
X180234636Y-113958149D01*
X179958149Y-114234636D01*
X179740915Y-114559750D01*
X179591282Y-114920997D01*
X179515000Y-115304495D01*
X172437753Y-115304495D01*
X172485396Y-115265396D01*
X172614734Y-115107797D01*
X172710841Y-114927992D01*
X172770024Y-114732894D01*
X172774892Y-114683463D01*
X173254094Y-114204261D01*
X173292633Y-114172633D01*
X173418847Y-114018840D01*
X173512632Y-113843380D01*
X173570385Y-113652994D01*
X173585000Y-113504608D01*
X173585000Y-113504606D01*
X173589886Y-113455001D01*
X173585000Y-113405396D01*
X173585000Y-111577962D01*
X173615462Y-111552962D01*
X173725905Y-111418387D01*
X173807972Y-111264851D01*
X173858508Y-111098255D01*
X173875572Y-110925001D01*
X173875572Y-109755979D01*
X173879301Y-109749003D01*
X173943046Y-109629747D01*
X173986503Y-109486486D01*
X173997500Y-109374833D01*
X173997500Y-109374824D01*
X174001176Y-109337501D01*
X173997500Y-109300178D01*
X173997500Y-107072302D01*
X174740001Y-107814803D01*
X174740000Y-109962677D01*
X174736324Y-110000000D01*
X174740000Y-110037322D01*
X174740000Y-110037332D01*
X174750997Y-110148985D01*
X174789220Y-110274990D01*
X174794454Y-110292246D01*
X174865026Y-110424276D01*
X174904871Y-110472826D01*
X174959999Y-110540001D01*
X174989002Y-110563804D01*
X175386928Y-110961729D01*
X175386928Y-111350000D01*
X175403031Y-111513500D01*
X175450722Y-111670716D01*
X175528169Y-111815608D01*
X175632394Y-111942606D01*
X175759392Y-112046831D01*
X175904284Y-112124278D01*
X176061500Y-112171969D01*
X176225000Y-112188072D01*
X176775000Y-112188072D01*
X176938500Y-112171969D01*
X177095716Y-112124278D01*
X177240608Y-112046831D01*
X177367606Y-111942606D01*
X177394365Y-111910000D01*
X178250200Y-111910000D01*
X178287522Y-111913676D01*
X178324844Y-111910000D01*
X178324855Y-111910000D01*
X178436508Y-111899003D01*
X178579769Y-111855546D01*
X178711798Y-111784974D01*
X178827523Y-111690001D01*
X178851326Y-111660997D01*
X179339162Y-111173161D01*
X179365722Y-111260716D01*
X179443169Y-111405608D01*
X179547394Y-111532606D01*
X179674392Y-111636831D01*
X179819284Y-111714278D01*
X179848270Y-111723071D01*
X180101206Y-111976007D01*
X180125009Y-112005011D01*
X180240734Y-112099984D01*
X180372763Y-112170556D01*
X180516024Y-112214013D01*
X180665010Y-112228687D01*
X180702343Y-112225010D01*
X181852986Y-112225010D01*
X181890308Y-112228686D01*
X181927630Y-112225010D01*
X181927641Y-112225010D01*
X182039294Y-112214013D01*
X182182555Y-112170556D01*
X182314584Y-112099984D01*
X182430309Y-112005011D01*
X182454112Y-111976007D01*
X182826008Y-111604111D01*
X182855011Y-111580309D01*
X182949984Y-111464584D01*
X183020556Y-111332555D01*
X183064013Y-111189294D01*
X183075010Y-111077641D01*
X183075010Y-111077632D01*
X183078686Y-111040309D01*
X183075010Y-111002986D01*
X183075010Y-104917025D01*
X183078687Y-104879692D01*
X183064013Y-104730706D01*
X183020556Y-104587445D01*
X182949984Y-104455416D01*
X182947304Y-104452150D01*
X182855011Y-104339691D01*
X182826007Y-104315888D01*
X182434112Y-103923993D01*
X182410309Y-103894989D01*
X182294584Y-103800016D01*
X182162555Y-103729444D01*
X182019294Y-103685987D01*
X181907641Y-103674990D01*
X181907630Y-103674990D01*
X181870308Y-103671314D01*
X181832986Y-103674990D01*
X179432343Y-103674990D01*
X179395010Y-103671313D01*
X179357677Y-103674990D01*
X179246024Y-103685987D01*
X179102763Y-103729444D01*
X178970734Y-103800016D01*
X178855009Y-103894989D01*
X178831206Y-103923993D01*
X178578270Y-104176929D01*
X178549284Y-104185722D01*
X178404392Y-104263169D01*
X178277394Y-104367394D01*
X178173169Y-104494392D01*
X178095722Y-104639284D01*
X178048031Y-104796500D01*
X178031928Y-104960000D01*
X178031928Y-105860000D01*
X178048031Y-106023500D01*
X178095722Y-106180716D01*
X178173169Y-106325608D01*
X178277394Y-106452606D01*
X178404392Y-106556831D01*
X178549284Y-106634278D01*
X178706500Y-106681969D01*
X178858281Y-106696918D01*
X178315199Y-107240000D01*
X176951213Y-107240000D01*
X171283177Y-101571965D01*
X171390820Y-101629502D01*
X171510518Y-101665812D01*
X171635000Y-101678072D01*
X172535000Y-101678072D01*
X172659482Y-101665812D01*
X172779180Y-101629502D01*
X172889494Y-101570537D01*
X172986185Y-101491185D01*
X173065537Y-101394494D01*
X173124502Y-101284180D01*
X173160812Y-101164482D01*
X173173072Y-101040000D01*
X173173072Y-100528095D01*
X173183815Y-100541185D01*
X173280506Y-100620537D01*
X173390820Y-100679502D01*
X173510518Y-100715812D01*
X173635000Y-100728072D01*
X174535000Y-100728072D01*
X174659482Y-100715812D01*
X174779180Y-100679502D01*
X174889494Y-100620537D01*
X174986185Y-100541185D01*
X175061018Y-100450000D01*
X175416928Y-100450000D01*
X175416928Y-100530000D01*
X175433031Y-100693500D01*
X175480722Y-100850716D01*
X175558169Y-100995608D01*
X175662394Y-101122606D01*
X175789392Y-101226831D01*
X175934284Y-101304278D01*
X176091500Y-101351969D01*
X176255000Y-101368072D01*
X176493271Y-101368072D01*
X177236201Y-102111003D01*
X177259999Y-102140001D01*
X177375724Y-102234974D01*
X177507753Y-102305546D01*
X177651014Y-102349003D01*
X177762667Y-102360000D01*
X177762676Y-102360000D01*
X177799999Y-102363676D01*
X177837322Y-102360000D01*
X180317678Y-102360000D01*
X180355000Y-102363676D01*
X180392322Y-102360000D01*
X180392333Y-102360000D01*
X180503986Y-102349003D01*
X180647247Y-102305546D01*
X180779276Y-102234974D01*
X180895001Y-102140001D01*
X180918804Y-102110998D01*
X181876004Y-101153798D01*
X181905001Y-101130001D01*
X181999974Y-101014276D01*
X182070546Y-100882247D01*
X182114003Y-100738986D01*
X182122976Y-100647882D01*
X182229734Y-100517797D01*
X182325841Y-100337992D01*
X182385024Y-100142894D01*
X182400000Y-99990837D01*
X182400000Y-99389162D01*
X182385024Y-99237105D01*
X182325841Y-99042007D01*
X182229734Y-98862203D01*
X182100396Y-98704604D01*
X181942797Y-98575266D01*
X181762992Y-98479159D01*
X181567894Y-98419976D01*
X181365000Y-98399993D01*
X181162105Y-98419976D01*
X180967007Y-98479159D01*
X180787203Y-98575266D01*
X180629604Y-98704604D01*
X180500266Y-98862203D01*
X180404159Y-99042008D01*
X180344976Y-99237106D01*
X180330000Y-99389163D01*
X180330000Y-99990838D01*
X180344976Y-100142895D01*
X180404159Y-100337993D01*
X180452244Y-100427954D01*
X180040199Y-100840000D01*
X178114802Y-100840000D01*
X177643072Y-100368271D01*
X177643072Y-100130000D01*
X177626969Y-99966500D01*
X177579278Y-99809284D01*
X177501831Y-99664392D01*
X177397606Y-99537394D01*
X177270608Y-99433169D01*
X177125716Y-99355722D01*
X176968500Y-99308031D01*
X176805000Y-99291928D01*
X176566729Y-99291928D01*
X176453803Y-99179002D01*
X176430001Y-99149999D01*
X176314276Y-99055026D01*
X176182247Y-98984454D01*
X176038986Y-98940997D01*
X175927333Y-98930000D01*
X175927322Y-98930000D01*
X175890000Y-98926324D01*
X175852678Y-98930000D01*
X175061018Y-98930000D01*
X174986185Y-98838815D01*
X174889494Y-98759463D01*
X174779180Y-98700498D01*
X174729402Y-98685398D01*
X177171004Y-96243796D01*
X177200001Y-96219999D01*
X177261551Y-96145000D01*
X177294974Y-96104275D01*
X177365546Y-95972245D01*
X177389342Y-95893799D01*
X177409003Y-95828984D01*
X177420000Y-95717331D01*
X177420000Y-95717322D01*
X177423676Y-95679999D01*
X177420000Y-95642676D01*
X177420000Y-95068178D01*
X177606632Y-94943475D01*
X177813475Y-94736632D01*
X177975990Y-94493411D01*
X178087932Y-94223158D01*
X178145000Y-93936260D01*
X178145000Y-93643740D01*
X178087932Y-93356842D01*
X177975990Y-93086589D01*
X177813475Y-92843368D01*
X177606632Y-92636525D01*
X177432240Y-92520000D01*
X177606632Y-92403475D01*
X177705612Y-92304495D01*
X179515000Y-92304495D01*
X179515000Y-92695505D01*
X179591282Y-93079003D01*
X179740915Y-93440250D01*
X179958149Y-93765364D01*
X180234636Y-94041851D01*
X180559750Y-94259085D01*
X180920997Y-94408718D01*
X181304495Y-94485000D01*
X181695505Y-94485000D01*
X182079003Y-94408718D01*
X182440250Y-94259085D01*
X182765364Y-94041851D01*
X183041851Y-93765364D01*
X183259085Y-93440250D01*
X183408718Y-93079003D01*
X183485000Y-92695505D01*
X183485000Y-92304495D01*
X183408718Y-91920997D01*
X183259085Y-91559750D01*
X183041851Y-91234636D01*
X182765364Y-90958149D01*
X182440250Y-90740915D01*
X182079003Y-90591282D01*
X181695505Y-90515000D01*
X181304495Y-90515000D01*
X180920997Y-90591282D01*
X180559750Y-90740915D01*
X180234636Y-90958149D01*
X179958149Y-91234636D01*
X179740915Y-91559750D01*
X179591282Y-91920997D01*
X179515000Y-92304495D01*
X177705612Y-92304495D01*
X177813475Y-92196632D01*
X177975990Y-91953411D01*
X178087932Y-91683158D01*
X178145000Y-91396260D01*
X178145000Y-91103740D01*
X178087932Y-90816842D01*
X177975990Y-90546589D01*
X177813475Y-90303368D01*
X177606632Y-90096525D01*
X177363411Y-89934010D01*
X177093158Y-89822068D01*
X176806260Y-89765000D01*
X176513740Y-89765000D01*
X176226842Y-89822068D01*
X175956589Y-89934010D01*
X175713368Y-90096525D01*
X175506525Y-90303368D01*
X175390000Y-90477760D01*
X175273475Y-90303368D01*
X175066632Y-90096525D01*
X174823411Y-89934010D01*
X174553158Y-89822068D01*
X174266260Y-89765000D01*
X173973740Y-89765000D01*
X173686842Y-89822068D01*
X173416589Y-89934010D01*
X173173368Y-90096525D01*
X172966525Y-90303368D01*
X172850000Y-90477760D01*
X172733475Y-90303368D01*
X172526632Y-90096525D01*
X172283411Y-89934010D01*
X172013158Y-89822068D01*
X171726260Y-89765000D01*
X171433740Y-89765000D01*
X171146842Y-89822068D01*
X170876589Y-89934010D01*
X170633368Y-90096525D01*
X170426525Y-90303368D01*
X170310000Y-90477760D01*
X170193475Y-90303368D01*
X169986632Y-90096525D01*
X169743411Y-89934010D01*
X169473158Y-89822068D01*
X169186260Y-89765000D01*
X168893740Y-89765000D01*
X168606842Y-89822068D01*
X168336589Y-89934010D01*
X168093368Y-90096525D01*
X167886525Y-90303368D01*
X167770000Y-90477760D01*
X167653475Y-90303368D01*
X167446632Y-90096525D01*
X167203411Y-89934010D01*
X166933158Y-89822068D01*
X166646260Y-89765000D01*
X166353740Y-89765000D01*
X166066842Y-89822068D01*
X165796589Y-89934010D01*
X165553368Y-90096525D01*
X165346525Y-90303368D01*
X165230000Y-90477760D01*
X165113475Y-90303368D01*
X164906632Y-90096525D01*
X164663411Y-89934010D01*
X164393158Y-89822068D01*
X164106260Y-89765000D01*
X163813740Y-89765000D01*
X163526842Y-89822068D01*
X163256589Y-89934010D01*
X163013368Y-90096525D01*
X162806525Y-90303368D01*
X162690000Y-90477760D01*
X162573475Y-90303368D01*
X162366632Y-90096525D01*
X162123411Y-89934010D01*
X161853158Y-89822068D01*
X161566260Y-89765000D01*
X161273740Y-89765000D01*
X160986842Y-89822068D01*
X160716589Y-89934010D01*
X160473368Y-90096525D01*
X160266525Y-90303368D01*
X160150000Y-90477760D01*
X160033475Y-90303368D01*
X159826632Y-90096525D01*
X159583411Y-89934010D01*
X159313158Y-89822068D01*
X159026260Y-89765000D01*
X158733740Y-89765000D01*
X158446842Y-89822068D01*
X158176589Y-89934010D01*
X157933368Y-90096525D01*
X157726525Y-90303368D01*
X157610000Y-90477760D01*
X157493475Y-90303368D01*
X157286632Y-90096525D01*
X157043411Y-89934010D01*
X156773158Y-89822068D01*
X156486260Y-89765000D01*
X156193740Y-89765000D01*
X155906842Y-89822068D01*
X155636589Y-89934010D01*
X155393368Y-90096525D01*
X155186525Y-90303368D01*
X155070000Y-90477760D01*
X154953475Y-90303368D01*
X154746632Y-90096525D01*
X154503411Y-89934010D01*
X154233158Y-89822068D01*
X153946260Y-89765000D01*
X153653740Y-89765000D01*
X153366842Y-89822068D01*
X153096589Y-89934010D01*
X152853368Y-90096525D01*
X152646525Y-90303368D01*
X152530000Y-90477760D01*
X152413475Y-90303368D01*
X152206632Y-90096525D01*
X151963411Y-89934010D01*
X151693158Y-89822068D01*
X151406260Y-89765000D01*
X151113740Y-89765000D01*
X150826842Y-89822068D01*
X150556589Y-89934010D01*
X150313368Y-90096525D01*
X150106525Y-90303368D01*
X149990000Y-90477760D01*
X149873475Y-90303368D01*
X149666632Y-90096525D01*
X149423411Y-89934010D01*
X149153158Y-89822068D01*
X148866260Y-89765000D01*
X148573740Y-89765000D01*
X148286842Y-89822068D01*
X148016589Y-89934010D01*
X147773368Y-90096525D01*
X147566525Y-90303368D01*
X147450000Y-90477760D01*
X147333475Y-90303368D01*
X147126632Y-90096525D01*
X146883411Y-89934010D01*
X146613158Y-89822068D01*
X146326260Y-89765000D01*
X146033740Y-89765000D01*
X145746842Y-89822068D01*
X145476589Y-89934010D01*
X145233368Y-90096525D01*
X145026525Y-90303368D01*
X144910000Y-90477760D01*
X144793475Y-90303368D01*
X144586632Y-90096525D01*
X144343411Y-89934010D01*
X144073158Y-89822068D01*
X143786260Y-89765000D01*
X143493740Y-89765000D01*
X143206842Y-89822068D01*
X142936589Y-89934010D01*
X142693368Y-90096525D01*
X142486525Y-90303368D01*
X142370000Y-90477760D01*
X142253475Y-90303368D01*
X142046632Y-90096525D01*
X141803411Y-89934010D01*
X141533158Y-89822068D01*
X141246260Y-89765000D01*
X140953740Y-89765000D01*
X140666842Y-89822068D01*
X140396589Y-89934010D01*
X140153368Y-90096525D01*
X139946525Y-90303368D01*
X139830000Y-90477760D01*
X139713475Y-90303368D01*
X139506632Y-90096525D01*
X139263411Y-89934010D01*
X138993158Y-89822068D01*
X138706260Y-89765000D01*
X138413740Y-89765000D01*
X138126842Y-89822068D01*
X137856589Y-89934010D01*
X137613368Y-90096525D01*
X137406525Y-90303368D01*
X137290000Y-90477760D01*
X137173475Y-90303368D01*
X136966632Y-90096525D01*
X136723411Y-89934010D01*
X136453158Y-89822068D01*
X136166260Y-89765000D01*
X135873740Y-89765000D01*
X135586842Y-89822068D01*
X135316589Y-89934010D01*
X135073368Y-90096525D01*
X134866525Y-90303368D01*
X134750000Y-90477760D01*
X134633475Y-90303368D01*
X134426632Y-90096525D01*
X134183411Y-89934010D01*
X133913158Y-89822068D01*
X133626260Y-89765000D01*
X133333740Y-89765000D01*
X133046842Y-89822068D01*
X132776589Y-89934010D01*
X132533368Y-90096525D01*
X132326525Y-90303368D01*
X132164010Y-90546589D01*
X132052068Y-90816842D01*
X131995000Y-91103740D01*
X131995000Y-91396260D01*
X132052068Y-91683158D01*
X132164010Y-91953411D01*
X132299704Y-92156492D01*
X131846492Y-92609704D01*
X131643411Y-92474010D01*
X131373158Y-92362068D01*
X131086260Y-92305000D01*
X130793740Y-92305000D01*
X130506842Y-92362068D01*
X130236589Y-92474010D01*
X129993368Y-92636525D01*
X129861513Y-92768380D01*
X129839502Y-92695820D01*
X129780537Y-92585506D01*
X129701185Y-92488815D01*
X129604494Y-92409463D01*
X129494180Y-92350498D01*
X129374482Y-92314188D01*
X129250000Y-92301928D01*
X127550000Y-92301928D01*
X127425518Y-92314188D01*
X127305820Y-92350498D01*
X127195506Y-92409463D01*
X127098815Y-92488815D01*
X127019463Y-92585506D01*
X126960498Y-92695820D01*
X126924188Y-92815518D01*
X126911928Y-92940000D01*
X126911928Y-94640000D01*
X126924188Y-94764482D01*
X126960498Y-94884180D01*
X127019463Y-94994494D01*
X127098815Y-95091185D01*
X127195506Y-95170537D01*
X127305820Y-95229502D01*
X127425518Y-95265812D01*
X127550000Y-95278072D01*
X129250000Y-95278072D01*
X129374482Y-95265812D01*
X129494180Y-95229502D01*
X129604494Y-95170537D01*
X129701185Y-95091185D01*
X129780537Y-94994494D01*
X129839502Y-94884180D01*
X129861513Y-94811620D01*
X129993368Y-94943475D01*
X130236589Y-95105990D01*
X130273091Y-95121109D01*
X126404201Y-98990000D01*
X125661662Y-98990000D01*
X125710841Y-98897993D01*
X125770024Y-98702895D01*
X125790007Y-98500000D01*
X125770024Y-98297105D01*
X125710841Y-98102007D01*
X125614734Y-97922203D01*
X125485396Y-97764604D01*
X125327797Y-97635266D01*
X125147993Y-97539159D01*
X124952895Y-97479976D01*
X124800838Y-97465000D01*
X124199162Y-97465000D01*
X124047105Y-97479976D01*
X123852007Y-97539159D01*
X123672203Y-97635266D01*
X123514604Y-97764604D01*
X123385266Y-97922203D01*
X123289159Y-98102007D01*
X123229976Y-98297105D01*
X123209993Y-98500000D01*
X123229976Y-98702895D01*
X123289159Y-98897993D01*
X123385266Y-99077797D01*
X123424004Y-99125000D01*
X123385266Y-99172203D01*
X123289159Y-99352007D01*
X123229976Y-99547105D01*
X123209993Y-99750000D01*
X123229976Y-99952895D01*
X123289159Y-100147993D01*
X123374741Y-100308106D01*
X123353169Y-100334392D01*
X123275722Y-100479284D01*
X123228031Y-100636500D01*
X123211928Y-100800000D01*
X123211928Y-101200000D01*
X123213118Y-101212081D01*
X123013988Y-101411211D01*
X122984990Y-101435009D01*
X122961192Y-101464007D01*
X122961191Y-101464008D01*
X122890016Y-101550734D01*
X122819444Y-101682764D01*
X122799357Y-101748985D01*
X122775988Y-101826024D01*
X122765816Y-101929297D01*
X122761314Y-101975010D01*
X120660000Y-101975010D01*
X120660000Y-92304495D01*
X121515000Y-92304495D01*
X121515000Y-92695505D01*
X121591282Y-93079003D01*
X121740915Y-93440250D01*
X121958149Y-93765364D01*
X122234636Y-94041851D01*
X122559750Y-94259085D01*
X122920997Y-94408718D01*
X123304495Y-94485000D01*
X123695505Y-94485000D01*
X124079003Y-94408718D01*
X124440250Y-94259085D01*
X124765364Y-94041851D01*
X125041851Y-93765364D01*
X125259085Y-93440250D01*
X125408718Y-93079003D01*
X125485000Y-92695505D01*
X125485000Y-92304495D01*
X125408718Y-91920997D01*
X125259085Y-91559750D01*
X125041851Y-91234636D01*
X124765364Y-90958149D01*
X124440250Y-90740915D01*
X124079003Y-90591282D01*
X123695505Y-90515000D01*
X123304495Y-90515000D01*
X122920997Y-90591282D01*
X122559750Y-90740915D01*
X122234636Y-90958149D01*
X121958149Y-91234636D01*
X121740915Y-91559750D01*
X121591282Y-91920997D01*
X121515000Y-92304495D01*
X120660000Y-92304495D01*
X120660000Y-90273380D01*
X121273381Y-89660000D01*
X183726620Y-89660000D01*
X184340001Y-90273382D01*
%TA.AperFunction,Conductor*%
D19*
G36*
X184340001Y-90273382D02*
G01*
X184340000Y-117726619D01*
X183726620Y-118340000D01*
X121273381Y-118340000D01*
X120660000Y-117726620D01*
X120660000Y-115304495D01*
X121515000Y-115304495D01*
X121515000Y-115695505D01*
X121591282Y-116079003D01*
X121740915Y-116440250D01*
X121958149Y-116765364D01*
X122234636Y-117041851D01*
X122559750Y-117259085D01*
X122920997Y-117408718D01*
X123304495Y-117485000D01*
X123695505Y-117485000D01*
X124079003Y-117408718D01*
X124440250Y-117259085D01*
X124765364Y-117041851D01*
X125041851Y-116765364D01*
X125259085Y-116440250D01*
X125408718Y-116079003D01*
X125485000Y-115695505D01*
X125485000Y-115304495D01*
X125408718Y-114920997D01*
X125259085Y-114559750D01*
X125041851Y-114234636D01*
X124765364Y-113958149D01*
X124440250Y-113740915D01*
X124079003Y-113591282D01*
X123695505Y-113515000D01*
X123304495Y-113515000D01*
X122920997Y-113591282D01*
X122559750Y-113740915D01*
X122234636Y-113958149D01*
X121958149Y-114234636D01*
X121740915Y-114559750D01*
X121591282Y-114920997D01*
X121515000Y-115304495D01*
X120660000Y-115304495D01*
X120660000Y-101975010D01*
X122761314Y-101975010D01*
X122764991Y-102012342D01*
X122764990Y-108637667D01*
X122761314Y-108674990D01*
X122764990Y-108712312D01*
X122764990Y-108712322D01*
X122775987Y-108823975D01*
X122813534Y-108947753D01*
X122819444Y-108967236D01*
X122890016Y-109099266D01*
X122920574Y-109136500D01*
X122984989Y-109214991D01*
X123013993Y-109238794D01*
X123266929Y-109491730D01*
X123275722Y-109520716D01*
X123353169Y-109665608D01*
X123457394Y-109792606D01*
X123584392Y-109896831D01*
X123729284Y-109974278D01*
X123886500Y-110021969D01*
X124050000Y-110038072D01*
X124950000Y-110038072D01*
X125113500Y-110021969D01*
X125270716Y-109974278D01*
X125415608Y-109896831D01*
X125542606Y-109792606D01*
X125569365Y-109760000D01*
X128972678Y-109760000D01*
X129010000Y-109763676D01*
X129047322Y-109760000D01*
X129047333Y-109760000D01*
X129158986Y-109749003D01*
X129302247Y-109705546D01*
X129434276Y-109634974D01*
X129550001Y-109540001D01*
X129573804Y-109510997D01*
X130204618Y-108880183D01*
X130201928Y-108907499D01*
X130201928Y-109532501D01*
X130218992Y-109705755D01*
X130269528Y-109872351D01*
X130351595Y-110025887D01*
X130462038Y-110160462D01*
X130596613Y-110270905D01*
X130750149Y-110352972D01*
X130916745Y-110403508D01*
X130975001Y-110409246D01*
X130975000Y-113344584D01*
X130870266Y-113472203D01*
X130774159Y-113652008D01*
X130714976Y-113847106D01*
X130700000Y-113999163D01*
X130700000Y-114600838D01*
X130714976Y-114752895D01*
X130774159Y-114947993D01*
X130870267Y-115127797D01*
X130999605Y-115285396D01*
X131157204Y-115414734D01*
X131337008Y-115510841D01*
X131532106Y-115570024D01*
X131735000Y-115590007D01*
X131937895Y-115570024D01*
X132132993Y-115510841D01*
X132312797Y-115414734D01*
X132360001Y-115375995D01*
X132407204Y-115414734D01*
X132587008Y-115510841D01*
X132782106Y-115570024D01*
X132985000Y-115590007D01*
X133187895Y-115570024D01*
X133382993Y-115510841D01*
X133562797Y-115414734D01*
X133720396Y-115285396D01*
X133849734Y-115127797D01*
X133945841Y-114947992D01*
X134005024Y-114752894D01*
X134020000Y-114600837D01*
X134020000Y-113999162D01*
X134005024Y-113847105D01*
X133945841Y-113652007D01*
X133849734Y-113472203D01*
X133720396Y-113314604D01*
X133562797Y-113185266D01*
X133382992Y-113089159D01*
X133187894Y-113029976D01*
X132985000Y-113009993D01*
X132782105Y-113029976D01*
X132587007Y-113089159D01*
X132495000Y-113138338D01*
X132495000Y-110405306D01*
X132513255Y-110403508D01*
X132679851Y-110352972D01*
X132833387Y-110270905D01*
X132967962Y-110160462D01*
X133078405Y-110025887D01*
X133160472Y-109872351D01*
X133211008Y-109705755D01*
X133228072Y-109532501D01*
X133228072Y-108907499D01*
X138091928Y-108907499D01*
X138091928Y-109532501D01*
X138108992Y-109705755D01*
X138159528Y-109872351D01*
X138241595Y-110025887D01*
X138352038Y-110160462D01*
X138486613Y-110270905D01*
X138640149Y-110352972D01*
X138806745Y-110403508D01*
X138845001Y-110407276D01*
X138845000Y-113344584D01*
X138740266Y-113472203D01*
X138644159Y-113652008D01*
X138584976Y-113847106D01*
X138570000Y-113999163D01*
X138570000Y-114600838D01*
X138584976Y-114752895D01*
X138644159Y-114947993D01*
X138740267Y-115127797D01*
X138869605Y-115285396D01*
X139027204Y-115414734D01*
X139207008Y-115510841D01*
X139402106Y-115570024D01*
X139605000Y-115590007D01*
X139807895Y-115570024D01*
X140002993Y-115510841D01*
X140182797Y-115414734D01*
X140230001Y-115375995D01*
X140277204Y-115414734D01*
X140457008Y-115510841D01*
X140652106Y-115570024D01*
X140855000Y-115590007D01*
X141057895Y-115570024D01*
X141252993Y-115510841D01*
X141432797Y-115414734D01*
X141590396Y-115285396D01*
X141719734Y-115127797D01*
X141815841Y-114947992D01*
X141875024Y-114752894D01*
X141890000Y-114600837D01*
X141890000Y-113999162D01*
X141875024Y-113847105D01*
X141815841Y-113652007D01*
X141719734Y-113472203D01*
X141590396Y-113314604D01*
X141432797Y-113185266D01*
X141252992Y-113089159D01*
X141057894Y-113029976D01*
X140855000Y-113009993D01*
X140652105Y-113029976D01*
X140457007Y-113089159D01*
X140365000Y-113138338D01*
X140365000Y-110407276D01*
X140403255Y-110403508D01*
X140569851Y-110352972D01*
X140723387Y-110270905D01*
X140857962Y-110160462D01*
X140968405Y-110025887D01*
X141050472Y-109872351D01*
X141101008Y-109705755D01*
X141118072Y-109532501D01*
X141118072Y-108907499D01*
X145981928Y-108907499D01*
X145981928Y-109532501D01*
X145998992Y-109705755D01*
X146049528Y-109872351D01*
X146131595Y-110025887D01*
X146242038Y-110160462D01*
X146376613Y-110270905D01*
X146530149Y-110352972D01*
X146696745Y-110403508D01*
X146755001Y-110409246D01*
X146755000Y-113344584D01*
X146650266Y-113472203D01*
X146554159Y-113652008D01*
X146494976Y-113847106D01*
X146480000Y-113999163D01*
X146480000Y-114600838D01*
X146494976Y-114752895D01*
X146554159Y-114947993D01*
X146650267Y-115127797D01*
X146779605Y-115285396D01*
X146937204Y-115414734D01*
X147117008Y-115510841D01*
X147312106Y-115570024D01*
X147515000Y-115590007D01*
X147717895Y-115570024D01*
X147912993Y-115510841D01*
X148092797Y-115414734D01*
X148140001Y-115375995D01*
X148187204Y-115414734D01*
X148367008Y-115510841D01*
X148562106Y-115570024D01*
X148765000Y-115590007D01*
X148967895Y-115570024D01*
X149162993Y-115510841D01*
X149342797Y-115414734D01*
X149500396Y-115285396D01*
X149629734Y-115127797D01*
X149725841Y-114947992D01*
X149785024Y-114752894D01*
X149800000Y-114600837D01*
X149800000Y-113999162D01*
X149785024Y-113847105D01*
X149725841Y-113652007D01*
X149629734Y-113472203D01*
X149500396Y-113314604D01*
X149342797Y-113185266D01*
X149162992Y-113089159D01*
X148967894Y-113029976D01*
X148765000Y-113009993D01*
X148562105Y-113029976D01*
X148367007Y-113089159D01*
X148275000Y-113138338D01*
X148275000Y-110405306D01*
X148293255Y-110403508D01*
X148459851Y-110352972D01*
X148613387Y-110270905D01*
X148747962Y-110160462D01*
X148858405Y-110025887D01*
X148940472Y-109872351D01*
X148991008Y-109705755D01*
X149008072Y-109532501D01*
X149008072Y-108907499D01*
X153871928Y-108907499D01*
X153871928Y-109532501D01*
X153888992Y-109705755D01*
X153939528Y-109872351D01*
X154021595Y-110025887D01*
X154132038Y-110160462D01*
X154266613Y-110270905D01*
X154420149Y-110352972D01*
X154586745Y-110403508D01*
X154645001Y-110409246D01*
X154645000Y-113344584D01*
X154540266Y-113472203D01*
X154444159Y-113652008D01*
X154384976Y-113847106D01*
X154370000Y-113999163D01*
X154370000Y-114600838D01*
X154384976Y-114752895D01*
X154444159Y-114947993D01*
X154540267Y-115127797D01*
X154669605Y-115285396D01*
X154827204Y-115414734D01*
X155007008Y-115510841D01*
X155202106Y-115570024D01*
X155405000Y-115590007D01*
X155607895Y-115570024D01*
X155802993Y-115510841D01*
X155982797Y-115414734D01*
X156030001Y-115375995D01*
X156077204Y-115414734D01*
X156257008Y-115510841D01*
X156452106Y-115570024D01*
X156655000Y-115590007D01*
X156857895Y-115570024D01*
X157052993Y-115510841D01*
X157232797Y-115414734D01*
X157390396Y-115285396D01*
X157519734Y-115127797D01*
X157615841Y-114947992D01*
X157675024Y-114752894D01*
X157690000Y-114600837D01*
X157690000Y-113999162D01*
X157688031Y-113979163D01*
X162305000Y-113979163D01*
X162305000Y-114580838D01*
X162319976Y-114732895D01*
X162379159Y-114927993D01*
X162475267Y-115107797D01*
X162604605Y-115265396D01*
X162762204Y-115394734D01*
X162942008Y-115490841D01*
X163137106Y-115550024D01*
X163340000Y-115570007D01*
X163542895Y-115550024D01*
X163737993Y-115490841D01*
X163917797Y-115394734D01*
X163965001Y-115355995D01*
X164012204Y-115394734D01*
X164192008Y-115490841D01*
X164387106Y-115550024D01*
X164590000Y-115570007D01*
X164792895Y-115550024D01*
X164987993Y-115490841D01*
X165167797Y-115394734D01*
X165215001Y-115355995D01*
X165262204Y-115394734D01*
X165442008Y-115490841D01*
X165637106Y-115550024D01*
X165840000Y-115570007D01*
X166042895Y-115550024D01*
X166237993Y-115490841D01*
X166417797Y-115394734D01*
X166575396Y-115265396D01*
X166704734Y-115107797D01*
X166800841Y-114927992D01*
X166860024Y-114732894D01*
X166875000Y-114580837D01*
X166875000Y-113979162D01*
X166860024Y-113827105D01*
X166800841Y-113632007D01*
X166704734Y-113452203D01*
X166575396Y-113294604D01*
X166417797Y-113165266D01*
X166237992Y-113069159D01*
X166042894Y-113009976D01*
X165840000Y-112989993D01*
X165637105Y-113009976D01*
X165442007Y-113069159D01*
X165262203Y-113165266D01*
X165215000Y-113204004D01*
X165167797Y-113165266D01*
X164987992Y-113069159D01*
X164792894Y-113009976D01*
X164590000Y-112989993D01*
X164387105Y-113009976D01*
X164192007Y-113069159D01*
X164012203Y-113165266D01*
X163965000Y-113204004D01*
X163917797Y-113165266D01*
X163737992Y-113069159D01*
X163542894Y-113009976D01*
X163340000Y-112989993D01*
X163137105Y-113009976D01*
X162942007Y-113069159D01*
X162762203Y-113165266D01*
X162604604Y-113294604D01*
X162475266Y-113452203D01*
X162379159Y-113632008D01*
X162319976Y-113827106D01*
X162305000Y-113979163D01*
X157688031Y-113979163D01*
X157675024Y-113847105D01*
X157615841Y-113652007D01*
X157519734Y-113472203D01*
X157390396Y-113314604D01*
X157232797Y-113185266D01*
X157052992Y-113089159D01*
X156857894Y-113029976D01*
X156655000Y-113009993D01*
X156452105Y-113029976D01*
X156257007Y-113089159D01*
X156165000Y-113138338D01*
X156165000Y-110405306D01*
X156183255Y-110403508D01*
X156349851Y-110352972D01*
X156503387Y-110270905D01*
X156637962Y-110160462D01*
X156748405Y-110025887D01*
X156830472Y-109872351D01*
X156881008Y-109705755D01*
X156898072Y-109532501D01*
X156898072Y-108907499D01*
X156881008Y-108734245D01*
X156830472Y-108567649D01*
X156748405Y-108414113D01*
X156637962Y-108279538D01*
X156503387Y-108169095D01*
X156349851Y-108087028D01*
X156183255Y-108036492D01*
X156010001Y-108019428D01*
X154759999Y-108019428D01*
X154586745Y-108036492D01*
X154420149Y-108087028D01*
X154266613Y-108169095D01*
X154132038Y-108279538D01*
X154021595Y-108414113D01*
X153939528Y-108567649D01*
X153888992Y-108734245D01*
X153871928Y-108907499D01*
X149008072Y-108907499D01*
X148991008Y-108734245D01*
X148940472Y-108567649D01*
X148858405Y-108414113D01*
X148747962Y-108279538D01*
X148613387Y-108169095D01*
X148459851Y-108087028D01*
X148293255Y-108036492D01*
X148120001Y-108019428D01*
X146869999Y-108019428D01*
X146696745Y-108036492D01*
X146530149Y-108087028D01*
X146376613Y-108169095D01*
X146242038Y-108279538D01*
X146131595Y-108414113D01*
X146049528Y-108567649D01*
X145998992Y-108734245D01*
X145981928Y-108907499D01*
X141118072Y-108907499D01*
X141101008Y-108734245D01*
X141050472Y-108567649D01*
X140968405Y-108414113D01*
X140857962Y-108279538D01*
X140723387Y-108169095D01*
X140569851Y-108087028D01*
X140403255Y-108036492D01*
X140230001Y-108019428D01*
X138979999Y-108019428D01*
X138806745Y-108036492D01*
X138640149Y-108087028D01*
X138486613Y-108169095D01*
X138352038Y-108279538D01*
X138241595Y-108414113D01*
X138159528Y-108567649D01*
X138108992Y-108734245D01*
X138091928Y-108907499D01*
X133228072Y-108907499D01*
X133211008Y-108734245D01*
X133160472Y-108567649D01*
X133078405Y-108414113D01*
X132967962Y-108279538D01*
X132833387Y-108169095D01*
X132679851Y-108087028D01*
X132513255Y-108036492D01*
X132340001Y-108019428D01*
X131089999Y-108019428D01*
X131062683Y-108022118D01*
X131589230Y-107495572D01*
X132340001Y-107495572D01*
X132513255Y-107478508D01*
X132679851Y-107427972D01*
X132833387Y-107345905D01*
X132967962Y-107235462D01*
X133078405Y-107100887D01*
X133102932Y-107055000D01*
X138217068Y-107055000D01*
X138241595Y-107100887D01*
X138352038Y-107235462D01*
X138486613Y-107345905D01*
X138640149Y-107427972D01*
X138806745Y-107478508D01*
X138979999Y-107495572D01*
X140230001Y-107495572D01*
X140403255Y-107478508D01*
X140569851Y-107427972D01*
X140723387Y-107345905D01*
X140857962Y-107235462D01*
X140968405Y-107100887D01*
X140992932Y-107055000D01*
X146107068Y-107055000D01*
X146131595Y-107100887D01*
X146242038Y-107235462D01*
X146376613Y-107345905D01*
X146530149Y-107427972D01*
X146696745Y-107478508D01*
X146869999Y-107495572D01*
X148120001Y-107495572D01*
X148293255Y-107478508D01*
X148459851Y-107427972D01*
X148613387Y-107345905D01*
X148747962Y-107235462D01*
X148858405Y-107100887D01*
X148882932Y-107055000D01*
X153997068Y-107055000D01*
X154021595Y-107100887D01*
X154132038Y-107235462D01*
X154266613Y-107345905D01*
X154420149Y-107427972D01*
X154586745Y-107478508D01*
X154759999Y-107495572D01*
X156010001Y-107495572D01*
X156183255Y-107478508D01*
X156349851Y-107427972D01*
X156503387Y-107345905D01*
X156637962Y-107235462D01*
X156748405Y-107100887D01*
X156830472Y-106947351D01*
X156881008Y-106780755D01*
X156898072Y-106607501D01*
X156898072Y-105982499D01*
X156881008Y-105809245D01*
X156830472Y-105642649D01*
X156748405Y-105489113D01*
X156637962Y-105354538D01*
X156503387Y-105244095D01*
X156349851Y-105162028D01*
X156183255Y-105111492D01*
X156010001Y-105094428D01*
X154759999Y-105094428D01*
X154586745Y-105111492D01*
X154420149Y-105162028D01*
X154266613Y-105244095D01*
X154132038Y-105354538D01*
X154021595Y-105489113D01*
X153997068Y-105535000D01*
X148882932Y-105535000D01*
X148858405Y-105489113D01*
X148747962Y-105354538D01*
X148613387Y-105244095D01*
X148459851Y-105162028D01*
X148293255Y-105111492D01*
X148120001Y-105094428D01*
X147369230Y-105094428D01*
X146584999Y-104310198D01*
X146584999Y-101488072D01*
X147850000Y-101488072D01*
X147974482Y-101475812D01*
X148094180Y-101439502D01*
X148204494Y-101380537D01*
X148301185Y-101301185D01*
X148380537Y-101204494D01*
X148439502Y-101094180D01*
X148461513Y-101021620D01*
X148593368Y-101153475D01*
X148836589Y-101315990D01*
X149106842Y-101427932D01*
X149393740Y-101485000D01*
X149686260Y-101485000D01*
X149906408Y-101441210D01*
X150151202Y-101686004D01*
X150175000Y-101715002D01*
X150290725Y-101809975D01*
X150422754Y-101880547D01*
X150566015Y-101924004D01*
X150677668Y-101935001D01*
X150677677Y-101935001D01*
X150715000Y-101938677D01*
X150752323Y-101935001D01*
X154008675Y-101935001D01*
X154045997Y-101938677D01*
X154083319Y-101935001D01*
X154083330Y-101935001D01*
X154194983Y-101924004D01*
X154338244Y-101880547D01*
X154470273Y-101809975D01*
X154585998Y-101715002D01*
X154609801Y-101685998D01*
X156668890Y-99626909D01*
X156684010Y-99663411D01*
X156846525Y-99906632D01*
X156978380Y-100038487D01*
X156905820Y-100060498D01*
X156795506Y-100119463D01*
X156698815Y-100198815D01*
X156619463Y-100295506D01*
X156560498Y-100405820D01*
X156524188Y-100525518D01*
X156511928Y-100650000D01*
X156511928Y-102350000D01*
X156524188Y-102474482D01*
X156560498Y-102594180D01*
X156619463Y-102704494D01*
X156698815Y-102801185D01*
X156795506Y-102880537D01*
X156905820Y-102939502D01*
X157025518Y-102975812D01*
X157150000Y-102988072D01*
X158850000Y-102988072D01*
X158974482Y-102975812D01*
X159094180Y-102939502D01*
X159140787Y-102914590D01*
X162580001Y-106353805D01*
X162580000Y-108074584D01*
X162475266Y-108202203D01*
X162379159Y-108382008D01*
X162319976Y-108577106D01*
X162305000Y-108729163D01*
X162305000Y-109330838D01*
X162319976Y-109482895D01*
X162379159Y-109677993D01*
X162475267Y-109857797D01*
X162604605Y-110015396D01*
X162762204Y-110144734D01*
X162942008Y-110240841D01*
X163137106Y-110300024D01*
X163340000Y-110320007D01*
X163542895Y-110300024D01*
X163737993Y-110240841D01*
X163917797Y-110144734D01*
X163965001Y-110105995D01*
X164012204Y-110144734D01*
X164192008Y-110240841D01*
X164387106Y-110300024D01*
X164590000Y-110320007D01*
X164792895Y-110300024D01*
X164987993Y-110240841D01*
X165167797Y-110144734D01*
X165215001Y-110105995D01*
X165262204Y-110144734D01*
X165442008Y-110240841D01*
X165637106Y-110300024D01*
X165840000Y-110320007D01*
X166042895Y-110300024D01*
X166237993Y-110240841D01*
X166417797Y-110144734D01*
X166575396Y-110015396D01*
X166704734Y-109857797D01*
X166800841Y-109677992D01*
X166860024Y-109482894D01*
X166875000Y-109330837D01*
X166875000Y-108729162D01*
X166860024Y-108577105D01*
X166800841Y-108382007D01*
X166704734Y-108202203D01*
X166575396Y-108044604D01*
X166417797Y-107915266D01*
X166237992Y-107819159D01*
X166042894Y-107759976D01*
X165840000Y-107739993D01*
X165637105Y-107759976D01*
X165442007Y-107819159D01*
X165350000Y-107868338D01*
X165350000Y-104786335D01*
X165353677Y-104749002D01*
X165339003Y-104600016D01*
X165295546Y-104456755D01*
X165224974Y-104324726D01*
X165193196Y-104286004D01*
X165130001Y-104209001D01*
X165101003Y-104185203D01*
X163746909Y-102831110D01*
X163783411Y-102815990D01*
X164026632Y-102653475D01*
X164233475Y-102446632D01*
X164395990Y-102203411D01*
X164507932Y-101933158D01*
X164565000Y-101646260D01*
X164565000Y-101353740D01*
X164507932Y-101066842D01*
X164395990Y-100796589D01*
X164233475Y-100553368D01*
X164026632Y-100346525D01*
X163852240Y-100230000D01*
X164026632Y-100113475D01*
X164233475Y-99906632D01*
X164395990Y-99663411D01*
X164507932Y-99393158D01*
X164565000Y-99106260D01*
X164565000Y-98813740D01*
X164507932Y-98526842D01*
X164395990Y-98256589D01*
X164233475Y-98013368D01*
X164026632Y-97806525D01*
X163783411Y-97644010D01*
X163513158Y-97532068D01*
X163226260Y-97475000D01*
X162933740Y-97475000D01*
X162646842Y-97532068D01*
X162376589Y-97644010D01*
X162133368Y-97806525D01*
X161926525Y-98013368D01*
X161810000Y-98187760D01*
X161693475Y-98013368D01*
X161486632Y-97806525D01*
X161243411Y-97644010D01*
X160973158Y-97532068D01*
X160686260Y-97475000D01*
X160393740Y-97475000D01*
X160106842Y-97532068D01*
X159836589Y-97644010D01*
X159593368Y-97806525D01*
X159386525Y-98013368D01*
X159270000Y-98187760D01*
X159153475Y-98013368D01*
X158946632Y-97806525D01*
X158703411Y-97644010D01*
X158666909Y-97628891D01*
X160570799Y-95725001D01*
X162747677Y-95725001D01*
X162784999Y-95728677D01*
X162822321Y-95725001D01*
X162822332Y-95725001D01*
X162933985Y-95714004D01*
X163077246Y-95670547D01*
X163209275Y-95599975D01*
X163325000Y-95505002D01*
X163348803Y-95475998D01*
X163593592Y-95231209D01*
X163813740Y-95275000D01*
X164106260Y-95275000D01*
X164326408Y-95231210D01*
X164740001Y-95644803D01*
X164740000Y-97462677D01*
X164736324Y-97500000D01*
X164740000Y-97537322D01*
X164740000Y-97537332D01*
X164750997Y-97648985D01*
X164781790Y-97750498D01*
X164794454Y-97792246D01*
X164865026Y-97924276D01*
X164897854Y-97964276D01*
X164959999Y-98040001D01*
X164989003Y-98063804D01*
X168348383Y-101423185D01*
X168389978Y-101473869D01*
X168418981Y-101497671D01*
X168937332Y-102016023D01*
X168961131Y-102045022D01*
X169011822Y-102086623D01*
X171403825Y-104478626D01*
X171305225Y-104531329D01*
X171212500Y-104607426D01*
X171119775Y-104531329D01*
X170971642Y-104452150D01*
X170810908Y-104403392D01*
X170643750Y-104386928D01*
X170206250Y-104386928D01*
X170039092Y-104403392D01*
X169878358Y-104452150D01*
X169730225Y-104531329D01*
X169600385Y-104637885D01*
X169493829Y-104767725D01*
X169414650Y-104915858D01*
X169365892Y-105076592D01*
X169349428Y-105243750D01*
X169349428Y-105756250D01*
X169365892Y-105923408D01*
X169414650Y-106084142D01*
X169493829Y-106232275D01*
X169600385Y-106362115D01*
X169730225Y-106468671D01*
X169878358Y-106547850D01*
X170014280Y-106589082D01*
X170961928Y-107536730D01*
X170961928Y-107775000D01*
X170978031Y-107938500D01*
X171025722Y-108095716D01*
X171103169Y-108240608D01*
X171207394Y-108367606D01*
X171334392Y-108471831D01*
X171459368Y-108538633D01*
X171424095Y-108581613D01*
X171342028Y-108735149D01*
X171291492Y-108901745D01*
X171274428Y-109074999D01*
X171274428Y-110925001D01*
X171291492Y-111098255D01*
X171342028Y-111264851D01*
X171424095Y-111418387D01*
X171534538Y-111552962D01*
X171565000Y-111577962D01*
X171565001Y-113008213D01*
X171547105Y-113009976D01*
X171352007Y-113069159D01*
X171172203Y-113165266D01*
X171014604Y-113294604D01*
X170885266Y-113452203D01*
X170789159Y-113632008D01*
X170729976Y-113827106D01*
X170715000Y-113979163D01*
X170715000Y-114580838D01*
X170729976Y-114732895D01*
X170789159Y-114927993D01*
X170885267Y-115107797D01*
X171014605Y-115265396D01*
X171172204Y-115394734D01*
X171352008Y-115490841D01*
X171547106Y-115550024D01*
X171750000Y-115570007D01*
X171952895Y-115550024D01*
X172147993Y-115490841D01*
X172327797Y-115394734D01*
X172437753Y-115304495D01*
X179515000Y-115304495D01*
X179515000Y-115695505D01*
X179591282Y-116079003D01*
X179740915Y-116440250D01*
X179958149Y-116765364D01*
X180234636Y-117041851D01*
X180559750Y-117259085D01*
X180920997Y-117408718D01*
X181304495Y-117485000D01*
X181695505Y-117485000D01*
X182079003Y-117408718D01*
X182440250Y-117259085D01*
X182765364Y-117041851D01*
X183041851Y-116765364D01*
X183259085Y-116440250D01*
X183408718Y-116079003D01*
X183485000Y-115695505D01*
X183485000Y-115304495D01*
X183408718Y-114920997D01*
X183259085Y-114559750D01*
X183041851Y-114234636D01*
X182765364Y-113958149D01*
X182440250Y-113740915D01*
X182079003Y-113591282D01*
X181695505Y-113515000D01*
X181304495Y-113515000D01*
X180920997Y-113591282D01*
X180559750Y-113740915D01*
X180234636Y-113958149D01*
X179958149Y-114234636D01*
X179740915Y-114559750D01*
X179591282Y-114920997D01*
X179515000Y-115304495D01*
X172437753Y-115304495D01*
X172485396Y-115265396D01*
X172614734Y-115107797D01*
X172710841Y-114927992D01*
X172770024Y-114732894D01*
X172774892Y-114683463D01*
X173254094Y-114204261D01*
X173292633Y-114172633D01*
X173418847Y-114018840D01*
X173512632Y-113843380D01*
X173570385Y-113652994D01*
X173585000Y-113504608D01*
X173585000Y-113504606D01*
X173589886Y-113455001D01*
X173585000Y-113405396D01*
X173585000Y-111577962D01*
X173615462Y-111552962D01*
X173725905Y-111418387D01*
X173807972Y-111264851D01*
X173858508Y-111098255D01*
X173875572Y-110925001D01*
X173875572Y-109755979D01*
X173879301Y-109749003D01*
X173943046Y-109629747D01*
X173986503Y-109486486D01*
X173997500Y-109374833D01*
X173997500Y-109374824D01*
X174001176Y-109337501D01*
X173997500Y-109300178D01*
X173997500Y-107072302D01*
X174740001Y-107814803D01*
X174740000Y-109962677D01*
X174736324Y-110000000D01*
X174740000Y-110037322D01*
X174740000Y-110037332D01*
X174750997Y-110148985D01*
X174789220Y-110274990D01*
X174794454Y-110292246D01*
X174865026Y-110424276D01*
X174904871Y-110472826D01*
X174959999Y-110540001D01*
X174989002Y-110563804D01*
X175386928Y-110961729D01*
X175386928Y-111350000D01*
X175403031Y-111513500D01*
X175450722Y-111670716D01*
X175528169Y-111815608D01*
X175632394Y-111942606D01*
X175759392Y-112046831D01*
X175904284Y-112124278D01*
X176061500Y-112171969D01*
X176225000Y-112188072D01*
X176775000Y-112188072D01*
X176938500Y-112171969D01*
X177095716Y-112124278D01*
X177240608Y-112046831D01*
X177367606Y-111942606D01*
X177394365Y-111910000D01*
X178250200Y-111910000D01*
X178287522Y-111913676D01*
X178324844Y-111910000D01*
X178324855Y-111910000D01*
X178436508Y-111899003D01*
X178579769Y-111855546D01*
X178711798Y-111784974D01*
X178827523Y-111690001D01*
X178851326Y-111660997D01*
X179339162Y-111173161D01*
X179365722Y-111260716D01*
X179443169Y-111405608D01*
X179547394Y-111532606D01*
X179674392Y-111636831D01*
X179819284Y-111714278D01*
X179848270Y-111723071D01*
X180101206Y-111976007D01*
X180125009Y-112005011D01*
X180240734Y-112099984D01*
X180372763Y-112170556D01*
X180516024Y-112214013D01*
X180665010Y-112228687D01*
X180702343Y-112225010D01*
X181852986Y-112225010D01*
X181890308Y-112228686D01*
X181927630Y-112225010D01*
X181927641Y-112225010D01*
X182039294Y-112214013D01*
X182182555Y-112170556D01*
X182314584Y-112099984D01*
X182430309Y-112005011D01*
X182454112Y-111976007D01*
X182826008Y-111604111D01*
X182855011Y-111580309D01*
X182949984Y-111464584D01*
X183020556Y-111332555D01*
X183064013Y-111189294D01*
X183075010Y-111077641D01*
X183075010Y-111077632D01*
X183078686Y-111040309D01*
X183075010Y-111002986D01*
X183075010Y-104917025D01*
X183078687Y-104879692D01*
X183064013Y-104730706D01*
X183020556Y-104587445D01*
X182949984Y-104455416D01*
X182947304Y-104452150D01*
X182855011Y-104339691D01*
X182826007Y-104315888D01*
X182434112Y-103923993D01*
X182410309Y-103894989D01*
X182294584Y-103800016D01*
X182162555Y-103729444D01*
X182019294Y-103685987D01*
X181907641Y-103674990D01*
X181907630Y-103674990D01*
X181870308Y-103671314D01*
X181832986Y-103674990D01*
X179432343Y-103674990D01*
X179395010Y-103671313D01*
X179357677Y-103674990D01*
X179246024Y-103685987D01*
X179102763Y-103729444D01*
X178970734Y-103800016D01*
X178855009Y-103894989D01*
X178831206Y-103923993D01*
X178578270Y-104176929D01*
X178549284Y-104185722D01*
X178404392Y-104263169D01*
X178277394Y-104367394D01*
X178173169Y-104494392D01*
X178095722Y-104639284D01*
X178048031Y-104796500D01*
X178031928Y-104960000D01*
X178031928Y-105860000D01*
X178048031Y-106023500D01*
X178095722Y-106180716D01*
X178173169Y-106325608D01*
X178277394Y-106452606D01*
X178404392Y-106556831D01*
X178549284Y-106634278D01*
X178706500Y-106681969D01*
X178858281Y-106696918D01*
X178315199Y-107240000D01*
X176951213Y-107240000D01*
X171283177Y-101571965D01*
X171390820Y-101629502D01*
X171510518Y-101665812D01*
X171635000Y-101678072D01*
X172535000Y-101678072D01*
X172659482Y-101665812D01*
X172779180Y-101629502D01*
X172889494Y-101570537D01*
X172986185Y-101491185D01*
X173065537Y-101394494D01*
X173124502Y-101284180D01*
X173160812Y-101164482D01*
X173173072Y-101040000D01*
X173173072Y-100528095D01*
X173183815Y-100541185D01*
X173280506Y-100620537D01*
X173390820Y-100679502D01*
X173510518Y-100715812D01*
X173635000Y-100728072D01*
X174535000Y-100728072D01*
X174659482Y-100715812D01*
X174779180Y-100679502D01*
X174889494Y-100620537D01*
X174986185Y-100541185D01*
X175061018Y-100450000D01*
X175416928Y-100450000D01*
X175416928Y-100530000D01*
X175433031Y-100693500D01*
X175480722Y-100850716D01*
X175558169Y-100995608D01*
X175662394Y-101122606D01*
X175789392Y-101226831D01*
X175934284Y-101304278D01*
X176091500Y-101351969D01*
X176255000Y-101368072D01*
X176493271Y-101368072D01*
X177236201Y-102111003D01*
X177259999Y-102140001D01*
X177375724Y-102234974D01*
X177507753Y-102305546D01*
X177651014Y-102349003D01*
X177762667Y-102360000D01*
X177762676Y-102360000D01*
X177799999Y-102363676D01*
X177837322Y-102360000D01*
X180317678Y-102360000D01*
X180355000Y-102363676D01*
X180392322Y-102360000D01*
X180392333Y-102360000D01*
X180503986Y-102349003D01*
X180647247Y-102305546D01*
X180779276Y-102234974D01*
X180895001Y-102140001D01*
X180918804Y-102110998D01*
X181876004Y-101153798D01*
X181905001Y-101130001D01*
X181999974Y-101014276D01*
X182070546Y-100882247D01*
X182114003Y-100738986D01*
X182122976Y-100647882D01*
X182229734Y-100517797D01*
X182325841Y-100337992D01*
X182385024Y-100142894D01*
X182400000Y-99990837D01*
X182400000Y-99389162D01*
X182385024Y-99237105D01*
X182325841Y-99042007D01*
X182229734Y-98862203D01*
X182100396Y-98704604D01*
X181942797Y-98575266D01*
X181762992Y-98479159D01*
X181567894Y-98419976D01*
X181365000Y-98399993D01*
X181162105Y-98419976D01*
X180967007Y-98479159D01*
X180787203Y-98575266D01*
X180629604Y-98704604D01*
X180500266Y-98862203D01*
X180404159Y-99042008D01*
X180344976Y-99237106D01*
X180330000Y-99389163D01*
X180330000Y-99990838D01*
X180344976Y-100142895D01*
X180404159Y-100337993D01*
X180452244Y-100427954D01*
X180040199Y-100840000D01*
X178114802Y-100840000D01*
X177643072Y-100368271D01*
X177643072Y-100130000D01*
X177626969Y-99966500D01*
X177579278Y-99809284D01*
X177501831Y-99664392D01*
X177397606Y-99537394D01*
X177270608Y-99433169D01*
X177125716Y-99355722D01*
X176968500Y-99308031D01*
X176805000Y-99291928D01*
X176566729Y-99291928D01*
X176453803Y-99179002D01*
X176430001Y-99149999D01*
X176314276Y-99055026D01*
X176182247Y-98984454D01*
X176038986Y-98940997D01*
X175927333Y-98930000D01*
X175927322Y-98930000D01*
X175890000Y-98926324D01*
X175852678Y-98930000D01*
X175061018Y-98930000D01*
X174986185Y-98838815D01*
X174889494Y-98759463D01*
X174779180Y-98700498D01*
X174729402Y-98685398D01*
X177171004Y-96243796D01*
X177200001Y-96219999D01*
X177261551Y-96145000D01*
X177294974Y-96104275D01*
X177365546Y-95972245D01*
X177389342Y-95893799D01*
X177409003Y-95828984D01*
X177420000Y-95717331D01*
X177420000Y-95717322D01*
X177423676Y-95679999D01*
X177420000Y-95642676D01*
X177420000Y-95068178D01*
X177606632Y-94943475D01*
X177813475Y-94736632D01*
X177975990Y-94493411D01*
X178087932Y-94223158D01*
X178145000Y-93936260D01*
X178145000Y-93643740D01*
X178087932Y-93356842D01*
X177975990Y-93086589D01*
X177813475Y-92843368D01*
X177606632Y-92636525D01*
X177432240Y-92520000D01*
X177606632Y-92403475D01*
X177705612Y-92304495D01*
X179515000Y-92304495D01*
X179515000Y-92695505D01*
X179591282Y-93079003D01*
X179740915Y-93440250D01*
X179958149Y-93765364D01*
X180234636Y-94041851D01*
X180559750Y-94259085D01*
X180920997Y-94408718D01*
X181304495Y-94485000D01*
X181695505Y-94485000D01*
X182079003Y-94408718D01*
X182440250Y-94259085D01*
X182765364Y-94041851D01*
X183041851Y-93765364D01*
X183259085Y-93440250D01*
X183408718Y-93079003D01*
X183485000Y-92695505D01*
X183485000Y-92304495D01*
X183408718Y-91920997D01*
X183259085Y-91559750D01*
X183041851Y-91234636D01*
X182765364Y-90958149D01*
X182440250Y-90740915D01*
X182079003Y-90591282D01*
X181695505Y-90515000D01*
X181304495Y-90515000D01*
X180920997Y-90591282D01*
X180559750Y-90740915D01*
X180234636Y-90958149D01*
X179958149Y-91234636D01*
X179740915Y-91559750D01*
X179591282Y-91920997D01*
X179515000Y-92304495D01*
X177705612Y-92304495D01*
X177813475Y-92196632D01*
X177975990Y-91953411D01*
X178087932Y-91683158D01*
X178145000Y-91396260D01*
X178145000Y-91103740D01*
X178087932Y-90816842D01*
X177975990Y-90546589D01*
X177813475Y-90303368D01*
X177606632Y-90096525D01*
X177363411Y-89934010D01*
X177093158Y-89822068D01*
X176806260Y-89765000D01*
X176513740Y-89765000D01*
X176226842Y-89822068D01*
X175956589Y-89934010D01*
X175713368Y-90096525D01*
X175506525Y-90303368D01*
X175390000Y-90477760D01*
X175273475Y-90303368D01*
X175066632Y-90096525D01*
X174823411Y-89934010D01*
X174553158Y-89822068D01*
X174266260Y-89765000D01*
X173973740Y-89765000D01*
X173686842Y-89822068D01*
X173416589Y-89934010D01*
X173173368Y-90096525D01*
X172966525Y-90303368D01*
X172850000Y-90477760D01*
X172733475Y-90303368D01*
X172526632Y-90096525D01*
X172283411Y-89934010D01*
X172013158Y-89822068D01*
X171726260Y-89765000D01*
X171433740Y-89765000D01*
X171146842Y-89822068D01*
X170876589Y-89934010D01*
X170633368Y-90096525D01*
X170426525Y-90303368D01*
X170310000Y-90477760D01*
X170193475Y-90303368D01*
X169986632Y-90096525D01*
X169743411Y-89934010D01*
X169473158Y-89822068D01*
X169186260Y-89765000D01*
X168893740Y-89765000D01*
X168606842Y-89822068D01*
X168336589Y-89934010D01*
X168093368Y-90096525D01*
X167886525Y-90303368D01*
X167770000Y-90477760D01*
X167653475Y-90303368D01*
X167446632Y-90096525D01*
X167203411Y-89934010D01*
X166933158Y-89822068D01*
X166646260Y-89765000D01*
X166353740Y-89765000D01*
X166066842Y-89822068D01*
X165796589Y-89934010D01*
X165553368Y-90096525D01*
X165346525Y-90303368D01*
X165230000Y-90477760D01*
X165113475Y-90303368D01*
X164906632Y-90096525D01*
X164663411Y-89934010D01*
X164393158Y-89822068D01*
X164106260Y-89765000D01*
X163813740Y-89765000D01*
X163526842Y-89822068D01*
X163256589Y-89934010D01*
X163013368Y-90096525D01*
X162806525Y-90303368D01*
X162690000Y-90477760D01*
X162573475Y-90303368D01*
X162366632Y-90096525D01*
X162123411Y-89934010D01*
X161853158Y-89822068D01*
X161566260Y-89765000D01*
X161273740Y-89765000D01*
X160986842Y-89822068D01*
X160716589Y-89934010D01*
X160473368Y-90096525D01*
X160266525Y-90303368D01*
X160150000Y-90477760D01*
X160033475Y-90303368D01*
X159826632Y-90096525D01*
X159583411Y-89934010D01*
X159313158Y-89822068D01*
X159026260Y-89765000D01*
X158733740Y-89765000D01*
X158446842Y-89822068D01*
X158176589Y-89934010D01*
X157933368Y-90096525D01*
X157726525Y-90303368D01*
X157610000Y-90477760D01*
X157493475Y-90303368D01*
X157286632Y-90096525D01*
X157043411Y-89934010D01*
X156773158Y-89822068D01*
X156486260Y-89765000D01*
X156193740Y-89765000D01*
X155906842Y-89822068D01*
X155636589Y-89934010D01*
X155393368Y-90096525D01*
X155186525Y-90303368D01*
X155070000Y-90477760D01*
X154953475Y-90303368D01*
X154746632Y-90096525D01*
X154503411Y-89934010D01*
X154233158Y-89822068D01*
X153946260Y-89765000D01*
X153653740Y-89765000D01*
X153366842Y-89822068D01*
X153096589Y-89934010D01*
X152853368Y-90096525D01*
X152646525Y-90303368D01*
X152530000Y-90477760D01*
X152413475Y-90303368D01*
X152206632Y-90096525D01*
X151963411Y-89934010D01*
X151693158Y-89822068D01*
X151406260Y-89765000D01*
X151113740Y-89765000D01*
X150826842Y-89822068D01*
X150556589Y-89934010D01*
X150313368Y-90096525D01*
X150106525Y-90303368D01*
X149990000Y-90477760D01*
X149873475Y-90303368D01*
X149666632Y-90096525D01*
X149423411Y-89934010D01*
X149153158Y-89822068D01*
X148866260Y-89765000D01*
X148573740Y-89765000D01*
X148286842Y-89822068D01*
X148016589Y-89934010D01*
X147773368Y-90096525D01*
X147566525Y-90303368D01*
X147450000Y-90477760D01*
X147333475Y-90303368D01*
X147126632Y-90096525D01*
X146883411Y-89934010D01*
X146613158Y-89822068D01*
X146326260Y-89765000D01*
X146033740Y-89765000D01*
X145746842Y-89822068D01*
X145476589Y-89934010D01*
X145233368Y-90096525D01*
X145026525Y-90303368D01*
X144910000Y-90477760D01*
X144793475Y-90303368D01*
X144586632Y-90096525D01*
X144343411Y-89934010D01*
X144073158Y-89822068D01*
X143786260Y-89765000D01*
X143493740Y-89765000D01*
X143206842Y-89822068D01*
X142936589Y-89934010D01*
X142693368Y-90096525D01*
X142486525Y-90303368D01*
X142370000Y-90477760D01*
X142253475Y-90303368D01*
X142046632Y-90096525D01*
X141803411Y-89934010D01*
X141533158Y-89822068D01*
X141246260Y-89765000D01*
X140953740Y-89765000D01*
X140666842Y-89822068D01*
X140396589Y-89934010D01*
X140153368Y-90096525D01*
X139946525Y-90303368D01*
X139830000Y-90477760D01*
X139713475Y-90303368D01*
X139506632Y-90096525D01*
X139263411Y-89934010D01*
X138993158Y-89822068D01*
X138706260Y-89765000D01*
X138413740Y-89765000D01*
X138126842Y-89822068D01*
X137856589Y-89934010D01*
X137613368Y-90096525D01*
X137406525Y-90303368D01*
X137290000Y-90477760D01*
X137173475Y-90303368D01*
X136966632Y-90096525D01*
X136723411Y-89934010D01*
X136453158Y-89822068D01*
X136166260Y-89765000D01*
X135873740Y-89765000D01*
X135586842Y-89822068D01*
X135316589Y-89934010D01*
X135073368Y-90096525D01*
X134866525Y-90303368D01*
X134750000Y-90477760D01*
X134633475Y-90303368D01*
X134426632Y-90096525D01*
X134183411Y-89934010D01*
X133913158Y-89822068D01*
X133626260Y-89765000D01*
X133333740Y-89765000D01*
X133046842Y-89822068D01*
X132776589Y-89934010D01*
X132533368Y-90096525D01*
X132326525Y-90303368D01*
X132164010Y-90546589D01*
X132052068Y-90816842D01*
X131995000Y-91103740D01*
X131995000Y-91396260D01*
X132052068Y-91683158D01*
X132164010Y-91953411D01*
X132299704Y-92156492D01*
X131846492Y-92609704D01*
X131643411Y-92474010D01*
X131373158Y-92362068D01*
X131086260Y-92305000D01*
X130793740Y-92305000D01*
X130506842Y-92362068D01*
X130236589Y-92474010D01*
X129993368Y-92636525D01*
X129861513Y-92768380D01*
X129839502Y-92695820D01*
X129780537Y-92585506D01*
X129701185Y-92488815D01*
X129604494Y-92409463D01*
X129494180Y-92350498D01*
X129374482Y-92314188D01*
X129250000Y-92301928D01*
X127550000Y-92301928D01*
X127425518Y-92314188D01*
X127305820Y-92350498D01*
X127195506Y-92409463D01*
X127098815Y-92488815D01*
X127019463Y-92585506D01*
X126960498Y-92695820D01*
X126924188Y-92815518D01*
X126911928Y-92940000D01*
X126911928Y-94640000D01*
X126924188Y-94764482D01*
X126960498Y-94884180D01*
X127019463Y-94994494D01*
X127098815Y-95091185D01*
X127195506Y-95170537D01*
X127305820Y-95229502D01*
X127425518Y-95265812D01*
X127550000Y-95278072D01*
X129250000Y-95278072D01*
X129374482Y-95265812D01*
X129494180Y-95229502D01*
X129604494Y-95170537D01*
X129701185Y-95091185D01*
X129780537Y-94994494D01*
X129839502Y-94884180D01*
X129861513Y-94811620D01*
X129993368Y-94943475D01*
X130236589Y-95105990D01*
X130273091Y-95121109D01*
X126404201Y-98990000D01*
X125661662Y-98990000D01*
X125710841Y-98897993D01*
X125770024Y-98702895D01*
X125790007Y-98500000D01*
X125770024Y-98297105D01*
X125710841Y-98102007D01*
X125614734Y-97922203D01*
X125485396Y-97764604D01*
X125327797Y-97635266D01*
X125147993Y-97539159D01*
X124952895Y-97479976D01*
X124800838Y-97465000D01*
X124199162Y-97465000D01*
X124047105Y-97479976D01*
X123852007Y-97539159D01*
X123672203Y-97635266D01*
X123514604Y-97764604D01*
X123385266Y-97922203D01*
X123289159Y-98102007D01*
X123229976Y-98297105D01*
X123209993Y-98500000D01*
X123229976Y-98702895D01*
X123289159Y-98897993D01*
X123385266Y-99077797D01*
X123424004Y-99125000D01*
X123385266Y-99172203D01*
X123289159Y-99352007D01*
X123229976Y-99547105D01*
X123209993Y-99750000D01*
X123229976Y-99952895D01*
X123289159Y-100147993D01*
X123374741Y-100308106D01*
X123353169Y-100334392D01*
X123275722Y-100479284D01*
X123228031Y-100636500D01*
X123211928Y-100800000D01*
X123211928Y-101200000D01*
X123213118Y-101212081D01*
X123013988Y-101411211D01*
X122984990Y-101435009D01*
X122961192Y-101464007D01*
X122961191Y-101464008D01*
X122890016Y-101550734D01*
X122819444Y-101682764D01*
X122799357Y-101748985D01*
X122775988Y-101826024D01*
X122765816Y-101929297D01*
X122761314Y-101975010D01*
X120660000Y-101975010D01*
X120660000Y-92304495D01*
X121515000Y-92304495D01*
X121515000Y-92695505D01*
X121591282Y-93079003D01*
X121740915Y-93440250D01*
X121958149Y-93765364D01*
X122234636Y-94041851D01*
X122559750Y-94259085D01*
X122920997Y-94408718D01*
X123304495Y-94485000D01*
X123695505Y-94485000D01*
X124079003Y-94408718D01*
X124440250Y-94259085D01*
X124765364Y-94041851D01*
X125041851Y-93765364D01*
X125259085Y-93440250D01*
X125408718Y-93079003D01*
X125485000Y-92695505D01*
X125485000Y-92304495D01*
X125408718Y-91920997D01*
X125259085Y-91559750D01*
X125041851Y-91234636D01*
X124765364Y-90958149D01*
X124440250Y-90740915D01*
X124079003Y-90591282D01*
X123695505Y-90515000D01*
X123304495Y-90515000D01*
X122920997Y-90591282D01*
X122559750Y-90740915D01*
X122234636Y-90958149D01*
X121958149Y-91234636D01*
X121740915Y-91559750D01*
X121591282Y-91920997D01*
X121515000Y-92304495D01*
X120660000Y-92304495D01*
X120660000Y-90273380D01*
X121273381Y-89660000D01*
X183726620Y-89660000D01*
X184340001Y-90273382D01*
G37*
%TD.AperFunction*%
M02*
