%TF.GenerationSoftware,KiCad,Pcbnew,5.1.10-88a1d61d58~88~ubuntu20.04.1*%
%TF.CreationDate,2021-05-10T23:55:53-04:00*%
%TF.ProjectId,reminder-mainboard,72656d69-6e64-4657-922d-6d61696e626f,rev?*%
%TF.SameCoordinates,Original*%
%TF.FileFunction,Paste,Top*%
%TF.FilePolarity,Positive*%
%FSLAX46Y46*%
G04 Gerber Fmt 4.6, Leading zero omitted, Abs format (unit mm)*
G04 Created by KiCad (PCBNEW 5.1.10-88a1d61d58~88~ubuntu20.04.1) date 2021-05-10 23:55:53*
%MOMM*%
%LPD*%
G01*
G04 APERTURE LIST*
%ADD10R,0.900000X0.800000*%
G04 APERTURE END LIST*
D10*
X174085000Y-99690000D03*
X172085000Y-100640000D03*
X172085000Y-98740000D03*
G36*
G01*
X171912500Y-110925001D02*
X171912500Y-109074999D01*
G75*
G02*
X172162499Y-108825000I249999J0D01*
G01*
X172987501Y-108825000D01*
G75*
G02*
X173237500Y-109074999I0J-249999D01*
G01*
X173237500Y-110925001D01*
G75*
G02*
X172987501Y-111175000I-249999J0D01*
G01*
X172162499Y-111175000D01*
G75*
G02*
X171912500Y-110925001I0J249999D01*
G01*
G37*
G36*
G01*
X168837500Y-110925001D02*
X168837500Y-109074999D01*
G75*
G02*
X169087499Y-108825000I249999J0D01*
G01*
X169912501Y-108825000D01*
G75*
G02*
X170162500Y-109074999I0J-249999D01*
G01*
X170162500Y-110925001D01*
G75*
G02*
X169912501Y-111175000I-249999J0D01*
G01*
X169087499Y-111175000D01*
G75*
G02*
X168837500Y-110925001I0J249999D01*
G01*
G37*
G36*
G01*
X169950000Y-107775000D02*
X169950000Y-107225000D01*
G75*
G02*
X170150000Y-107025000I200000J0D01*
G01*
X170550000Y-107025000D01*
G75*
G02*
X170750000Y-107225000I0J-200000D01*
G01*
X170750000Y-107775000D01*
G75*
G02*
X170550000Y-107975000I-200000J0D01*
G01*
X170150000Y-107975000D01*
G75*
G02*
X169950000Y-107775000I0J200000D01*
G01*
G37*
G36*
G01*
X171600000Y-107775000D02*
X171600000Y-107225000D01*
G75*
G02*
X171800000Y-107025000I200000J0D01*
G01*
X172200000Y-107025000D01*
G75*
G02*
X172400000Y-107225000I0J-200000D01*
G01*
X172400000Y-107775000D01*
G75*
G02*
X172200000Y-107975000I-200000J0D01*
G01*
X171800000Y-107975000D01*
G75*
G02*
X171600000Y-107775000I0J200000D01*
G01*
G37*
G36*
G01*
X172437500Y-105243750D02*
X172437500Y-105756250D01*
G75*
G02*
X172218750Y-105975000I-218750J0D01*
G01*
X171781250Y-105975000D01*
G75*
G02*
X171562500Y-105756250I0J218750D01*
G01*
X171562500Y-105243750D01*
G75*
G02*
X171781250Y-105025000I218750J0D01*
G01*
X172218750Y-105025000D01*
G75*
G02*
X172437500Y-105243750I0J-218750D01*
G01*
G37*
G36*
G01*
X170862500Y-105243750D02*
X170862500Y-105756250D01*
G75*
G02*
X170643750Y-105975000I-218750J0D01*
G01*
X170206250Y-105975000D01*
G75*
G02*
X169987500Y-105756250I0J218750D01*
G01*
X169987500Y-105243750D01*
G75*
G02*
X170206250Y-105025000I218750J0D01*
G01*
X170643750Y-105025000D01*
G75*
G02*
X170862500Y-105243750I0J-218750D01*
G01*
G37*
G36*
G01*
X176255000Y-99930000D02*
X176805000Y-99930000D01*
G75*
G02*
X177005000Y-100130000I0J-200000D01*
G01*
X177005000Y-100530000D01*
G75*
G02*
X176805000Y-100730000I-200000J0D01*
G01*
X176255000Y-100730000D01*
G75*
G02*
X176055000Y-100530000I0J200000D01*
G01*
X176055000Y-100130000D01*
G75*
G02*
X176255000Y-99930000I200000J0D01*
G01*
G37*
G36*
G01*
X176255000Y-98280000D02*
X176805000Y-98280000D01*
G75*
G02*
X177005000Y-98480000I0J-200000D01*
G01*
X177005000Y-98880000D01*
G75*
G02*
X176805000Y-99080000I-200000J0D01*
G01*
X176255000Y-99080000D01*
G75*
G02*
X176055000Y-98880000I0J200000D01*
G01*
X176055000Y-98480000D01*
G75*
G02*
X176255000Y-98280000I200000J0D01*
G01*
G37*
G36*
G01*
X176775000Y-109900000D02*
X176225000Y-109900000D01*
G75*
G02*
X176025000Y-109700000I0J200000D01*
G01*
X176025000Y-109300000D01*
G75*
G02*
X176225000Y-109100000I200000J0D01*
G01*
X176775000Y-109100000D01*
G75*
G02*
X176975000Y-109300000I0J-200000D01*
G01*
X176975000Y-109700000D01*
G75*
G02*
X176775000Y-109900000I-200000J0D01*
G01*
G37*
G36*
G01*
X176775000Y-111550000D02*
X176225000Y-111550000D01*
G75*
G02*
X176025000Y-111350000I0J200000D01*
G01*
X176025000Y-110950000D01*
G75*
G02*
X176225000Y-110750000I200000J0D01*
G01*
X176775000Y-110750000D01*
G75*
G02*
X176975000Y-110950000I0J-200000D01*
G01*
X176975000Y-111350000D01*
G75*
G02*
X176775000Y-111550000I-200000J0D01*
G01*
G37*
G36*
G01*
X169905000Y-99930000D02*
X170455000Y-99930000D01*
G75*
G02*
X170655000Y-100130000I0J-200000D01*
G01*
X170655000Y-100530000D01*
G75*
G02*
X170455000Y-100730000I-200000J0D01*
G01*
X169905000Y-100730000D01*
G75*
G02*
X169705000Y-100530000I0J200000D01*
G01*
X169705000Y-100130000D01*
G75*
G02*
X169905000Y-99930000I200000J0D01*
G01*
G37*
G36*
G01*
X169905000Y-98280000D02*
X170455000Y-98280000D01*
G75*
G02*
X170655000Y-98480000I0J-200000D01*
G01*
X170655000Y-98880000D01*
G75*
G02*
X170455000Y-99080000I-200000J0D01*
G01*
X169905000Y-99080000D01*
G75*
G02*
X169705000Y-98880000I0J200000D01*
G01*
X169705000Y-98480000D01*
G75*
G02*
X169905000Y-98280000I200000J0D01*
G01*
G37*
G36*
G01*
X154759999Y-108657500D02*
X156010001Y-108657500D01*
G75*
G02*
X156260000Y-108907499I0J-249999D01*
G01*
X156260000Y-109532501D01*
G75*
G02*
X156010001Y-109782500I-249999J0D01*
G01*
X154759999Y-109782500D01*
G75*
G02*
X154510000Y-109532501I0J249999D01*
G01*
X154510000Y-108907499D01*
G75*
G02*
X154759999Y-108657500I249999J0D01*
G01*
G37*
G36*
G01*
X154759999Y-105732500D02*
X156010001Y-105732500D01*
G75*
G02*
X156260000Y-105982499I0J-249999D01*
G01*
X156260000Y-106607501D01*
G75*
G02*
X156010001Y-106857500I-249999J0D01*
G01*
X154759999Y-106857500D01*
G75*
G02*
X154510000Y-106607501I0J249999D01*
G01*
X154510000Y-105982499D01*
G75*
G02*
X154759999Y-105732500I249999J0D01*
G01*
G37*
G36*
G01*
X138979999Y-108657500D02*
X140230001Y-108657500D01*
G75*
G02*
X140480000Y-108907499I0J-249999D01*
G01*
X140480000Y-109532501D01*
G75*
G02*
X140230001Y-109782500I-249999J0D01*
G01*
X138979999Y-109782500D01*
G75*
G02*
X138730000Y-109532501I0J249999D01*
G01*
X138730000Y-108907499D01*
G75*
G02*
X138979999Y-108657500I249999J0D01*
G01*
G37*
G36*
G01*
X138979999Y-105732500D02*
X140230001Y-105732500D01*
G75*
G02*
X140480000Y-105982499I0J-249999D01*
G01*
X140480000Y-106607501D01*
G75*
G02*
X140230001Y-106857500I-249999J0D01*
G01*
X138979999Y-106857500D01*
G75*
G02*
X138730000Y-106607501I0J249999D01*
G01*
X138730000Y-105982499D01*
G75*
G02*
X138979999Y-105732500I249999J0D01*
G01*
G37*
G36*
G01*
X146869999Y-108657500D02*
X148120001Y-108657500D01*
G75*
G02*
X148370000Y-108907499I0J-249999D01*
G01*
X148370000Y-109532501D01*
G75*
G02*
X148120001Y-109782500I-249999J0D01*
G01*
X146869999Y-109782500D01*
G75*
G02*
X146620000Y-109532501I0J249999D01*
G01*
X146620000Y-108907499D01*
G75*
G02*
X146869999Y-108657500I249999J0D01*
G01*
G37*
G36*
G01*
X146869999Y-105732500D02*
X148120001Y-105732500D01*
G75*
G02*
X148370000Y-105982499I0J-249999D01*
G01*
X148370000Y-106607501D01*
G75*
G02*
X148120001Y-106857500I-249999J0D01*
G01*
X146869999Y-106857500D01*
G75*
G02*
X146620000Y-106607501I0J249999D01*
G01*
X146620000Y-105982499D01*
G75*
G02*
X146869999Y-105732500I249999J0D01*
G01*
G37*
G36*
G01*
X131089999Y-108657500D02*
X132340001Y-108657500D01*
G75*
G02*
X132590000Y-108907499I0J-249999D01*
G01*
X132590000Y-109532501D01*
G75*
G02*
X132340001Y-109782500I-249999J0D01*
G01*
X131089999Y-109782500D01*
G75*
G02*
X130840000Y-109532501I0J249999D01*
G01*
X130840000Y-108907499D01*
G75*
G02*
X131089999Y-108657500I249999J0D01*
G01*
G37*
G36*
G01*
X131089999Y-105732500D02*
X132340001Y-105732500D01*
G75*
G02*
X132590000Y-105982499I0J-249999D01*
G01*
X132590000Y-106607501D01*
G75*
G02*
X132340001Y-106857500I-249999J0D01*
G01*
X131089999Y-106857500D01*
G75*
G02*
X130840000Y-106607501I0J249999D01*
G01*
X130840000Y-105982499D01*
G75*
G02*
X131089999Y-105732500I249999J0D01*
G01*
G37*
M02*
