%FSLAX45Y45*%
G04 Gerber Fmt 4.5, Leading zero omitted, Abs format (unit mm)*
G04 Created by KiCad (PCBNEW 5.1.10-88a1d61d58~88~ubuntu20.04.1) date 2021-05-10 23:57:14*
%MOMM*%
%LPD*%
G01*
G04 APERTURE LIST*
%TA.AperFunction,Profile*%
%ADD10C,0.050000*%
%TD*%
%ADD11C,0.200000*%
%ADD12C,0.300000*%
G04 APERTURE END LIST*
D10*
X18400000Y-8900000D02*
X12100000Y-8900000D01*
X18500000Y-9000000D02*
X18400000Y-8900000D01*
X18500000Y-11800000D02*
X18500000Y-9000000D01*
X18400000Y-11900000D02*
X18500000Y-11800000D01*
X12100000Y-11900000D02*
X18400000Y-11900000D01*
X12000000Y-11800000D02*
X12100000Y-11900000D01*
X12000000Y-9000000D02*
X12000000Y-11800000D01*
X12100000Y-8900000D02*
X12000000Y-9000000D01*
D11*
X12215000Y-9115000D02*
X12485000Y-9385000D01*
X12485000Y-9115000D02*
X12215000Y-9385000D01*
X12215000Y-11415000D02*
X12485000Y-11685000D01*
X12485000Y-11415000D02*
X12215000Y-11685000D01*
X18015000Y-9115000D02*
X18285000Y-9385000D01*
X18285000Y-9115000D02*
X18015000Y-9385000D01*
X18015000Y-11415000D02*
X18285000Y-11685000D01*
X18285000Y-11415000D02*
X18015000Y-11685000D01*
D12*
X12283928Y-12368214D02*
X12283928Y-12068214D01*
X12355357Y-12068214D01*
X12398214Y-12082500D01*
X12426786Y-12111071D01*
X12441071Y-12139643D01*
X12455357Y-12196786D01*
X12455357Y-12239643D01*
X12441071Y-12296786D01*
X12426786Y-12325357D01*
X12398214Y-12353929D01*
X12355357Y-12368214D01*
X12283928Y-12368214D01*
X12583928Y-12368214D02*
X12583928Y-12168214D01*
X12583928Y-12225357D02*
X12598214Y-12196786D01*
X12612500Y-12182500D01*
X12641071Y-12168214D01*
X12669643Y-12168214D01*
X12769643Y-12368214D02*
X12769643Y-12168214D01*
X12769643Y-12068214D02*
X12755357Y-12082500D01*
X12769643Y-12096786D01*
X12783928Y-12082500D01*
X12769643Y-12068214D01*
X12769643Y-12096786D01*
X12955357Y-12368214D02*
X12926786Y-12353929D01*
X12912500Y-12325357D01*
X12912500Y-12068214D01*
X13112500Y-12368214D02*
X13083928Y-12353929D01*
X13069643Y-12325357D01*
X13069643Y-12068214D01*
X13455357Y-12368214D02*
X13455357Y-12068214D01*
X13555357Y-12282500D01*
X13655357Y-12068214D01*
X13655357Y-12368214D01*
X13926786Y-12368214D02*
X13926786Y-12211071D01*
X13912500Y-12182500D01*
X13883928Y-12168214D01*
X13826786Y-12168214D01*
X13798214Y-12182500D01*
X13926786Y-12353929D02*
X13898214Y-12368214D01*
X13826786Y-12368214D01*
X13798214Y-12353929D01*
X13783928Y-12325357D01*
X13783928Y-12296786D01*
X13798214Y-12268214D01*
X13826786Y-12253929D01*
X13898214Y-12253929D01*
X13926786Y-12239643D01*
X14069643Y-12168214D02*
X14069643Y-12468214D01*
X14069643Y-12182500D02*
X14098214Y-12168214D01*
X14155357Y-12168214D01*
X14183928Y-12182500D01*
X14198214Y-12196786D01*
X14212500Y-12225357D01*
X14212500Y-12311071D01*
X14198214Y-12339643D01*
X14183928Y-12353929D01*
X14155357Y-12368214D01*
X14098214Y-12368214D01*
X14069643Y-12353929D01*
X14341071Y-12339643D02*
X14355357Y-12353929D01*
X14341071Y-12368214D01*
X14326786Y-12353929D01*
X14341071Y-12339643D01*
X14341071Y-12368214D01*
X14341071Y-12182500D02*
X14355357Y-12196786D01*
X14341071Y-12211071D01*
X14326786Y-12196786D01*
X14341071Y-12182500D01*
X14341071Y-12211071D01*
X11727500Y-12727500D02*
X11997500Y-12997500D01*
X11997500Y-12727500D02*
X11727500Y-12997500D01*
X12269643Y-12726786D02*
X12283928Y-12712500D01*
X12312500Y-12698214D01*
X12383928Y-12698214D01*
X12412500Y-12712500D01*
X12426786Y-12726786D01*
X12441071Y-12755357D01*
X12441071Y-12783929D01*
X12426786Y-12826786D01*
X12255357Y-12998214D01*
X12441071Y-12998214D01*
X12569643Y-12969643D02*
X12583928Y-12983929D01*
X12569643Y-12998214D01*
X12555357Y-12983929D01*
X12569643Y-12969643D01*
X12569643Y-12998214D01*
X12683928Y-12698214D02*
X12883928Y-12698214D01*
X12755357Y-12998214D01*
X13055357Y-12698214D02*
X13083928Y-12698214D01*
X13112500Y-12712500D01*
X13126786Y-12726786D01*
X13141071Y-12755357D01*
X13155357Y-12812500D01*
X13155357Y-12883929D01*
X13141071Y-12941071D01*
X13126786Y-12969643D01*
X13112500Y-12983929D01*
X13083928Y-12998214D01*
X13055357Y-12998214D01*
X13026786Y-12983929D01*
X13012500Y-12969643D01*
X12998214Y-12941071D01*
X12983928Y-12883929D01*
X12983928Y-12812500D01*
X12998214Y-12755357D01*
X13012500Y-12726786D01*
X13026786Y-12712500D01*
X13055357Y-12698214D01*
X13341071Y-12698214D02*
X13369643Y-12698214D01*
X13398214Y-12712500D01*
X13412500Y-12726786D01*
X13426786Y-12755357D01*
X13441071Y-12812500D01*
X13441071Y-12883929D01*
X13426786Y-12941071D01*
X13412500Y-12969643D01*
X13398214Y-12983929D01*
X13369643Y-12998214D01*
X13341071Y-12998214D01*
X13312500Y-12983929D01*
X13298214Y-12969643D01*
X13283928Y-12941071D01*
X13269643Y-12883929D01*
X13269643Y-12812500D01*
X13283928Y-12755357D01*
X13298214Y-12726786D01*
X13312500Y-12712500D01*
X13341071Y-12698214D01*
X13569643Y-12998214D02*
X13569643Y-12798214D01*
X13569643Y-12826786D02*
X13583928Y-12812500D01*
X13612500Y-12798214D01*
X13655357Y-12798214D01*
X13683928Y-12812500D01*
X13698214Y-12841071D01*
X13698214Y-12998214D01*
X13698214Y-12841071D02*
X13712500Y-12812500D01*
X13741071Y-12798214D01*
X13783928Y-12798214D01*
X13812500Y-12812500D01*
X13826786Y-12841071D01*
X13826786Y-12998214D01*
X13969643Y-12998214D02*
X13969643Y-12798214D01*
X13969643Y-12826786D02*
X13983928Y-12812500D01*
X14012500Y-12798214D01*
X14055357Y-12798214D01*
X14083928Y-12812500D01*
X14098214Y-12841071D01*
X14098214Y-12998214D01*
X14098214Y-12841071D02*
X14112500Y-12812500D01*
X14141071Y-12798214D01*
X14183928Y-12798214D01*
X14212500Y-12812500D01*
X14226786Y-12841071D01*
X14226786Y-12998214D01*
X14812500Y-12683929D02*
X14555357Y-13069643D01*
X15198214Y-12698214D02*
X15226786Y-12698214D01*
X15255357Y-12712500D01*
X15269643Y-12726786D01*
X15283928Y-12755357D01*
X15298214Y-12812500D01*
X15298214Y-12883929D01*
X15283928Y-12941071D01*
X15269643Y-12969643D01*
X15255357Y-12983929D01*
X15226786Y-12998214D01*
X15198214Y-12998214D01*
X15169643Y-12983929D01*
X15155357Y-12969643D01*
X15141071Y-12941071D01*
X15126786Y-12883929D01*
X15126786Y-12812500D01*
X15141071Y-12755357D01*
X15155357Y-12726786D01*
X15169643Y-12712500D01*
X15198214Y-12698214D01*
X15426786Y-12969643D02*
X15441071Y-12983929D01*
X15426786Y-12998214D01*
X15412500Y-12983929D01*
X15426786Y-12969643D01*
X15426786Y-12998214D01*
X15726786Y-12998214D02*
X15555357Y-12998214D01*
X15641071Y-12998214D02*
X15641071Y-12698214D01*
X15612500Y-12741071D01*
X15583928Y-12769643D01*
X15555357Y-12783929D01*
X15912500Y-12698214D02*
X15941071Y-12698214D01*
X15969643Y-12712500D01*
X15983928Y-12726786D01*
X15998214Y-12755357D01*
X16012500Y-12812500D01*
X16012500Y-12883929D01*
X15998214Y-12941071D01*
X15983928Y-12969643D01*
X15969643Y-12983929D01*
X15941071Y-12998214D01*
X15912500Y-12998214D01*
X15883928Y-12983929D01*
X15869643Y-12969643D01*
X15855357Y-12941071D01*
X15841071Y-12883929D01*
X15841071Y-12812500D01*
X15855357Y-12755357D01*
X15869643Y-12726786D01*
X15883928Y-12712500D01*
X15912500Y-12698214D01*
X16269643Y-12698214D02*
X16212500Y-12698214D01*
X16183928Y-12712500D01*
X16169643Y-12726786D01*
X16141071Y-12769643D01*
X16126786Y-12826786D01*
X16126786Y-12941071D01*
X16141071Y-12969643D01*
X16155357Y-12983929D01*
X16183928Y-12998214D01*
X16241071Y-12998214D01*
X16269643Y-12983929D01*
X16283928Y-12969643D01*
X16298214Y-12941071D01*
X16298214Y-12869643D01*
X16283928Y-12841071D01*
X16269643Y-12826786D01*
X16241071Y-12812500D01*
X16183928Y-12812500D01*
X16155357Y-12826786D01*
X16141071Y-12841071D01*
X16126786Y-12869643D01*
X16398214Y-12698214D02*
X16583928Y-12698214D01*
X16483928Y-12812500D01*
X16526786Y-12812500D01*
X16555357Y-12826786D01*
X16569643Y-12841071D01*
X16583928Y-12869643D01*
X16583928Y-12941071D01*
X16569643Y-12969643D01*
X16555357Y-12983929D01*
X16526786Y-12998214D01*
X16441071Y-12998214D01*
X16412500Y-12983929D01*
X16398214Y-12969643D01*
X16698214Y-12698214D02*
X16698214Y-12755357D01*
X16812500Y-12698214D02*
X16812500Y-12755357D01*
X17255357Y-13112500D02*
X17241071Y-13098214D01*
X17212500Y-13055357D01*
X17198214Y-13026786D01*
X17183928Y-12983929D01*
X17169643Y-12912500D01*
X17169643Y-12855357D01*
X17183928Y-12783929D01*
X17198214Y-12741071D01*
X17212500Y-12712500D01*
X17241071Y-12669643D01*
X17255357Y-12655357D01*
X17498214Y-12798214D02*
X17498214Y-12998214D01*
X17426786Y-12683929D02*
X17355357Y-12898214D01*
X17541071Y-12898214D01*
X17883928Y-12998214D02*
X17883928Y-12698214D01*
X18012500Y-12998214D02*
X18012500Y-12841071D01*
X17998214Y-12812500D01*
X17969643Y-12798214D01*
X17926786Y-12798214D01*
X17898214Y-12812500D01*
X17883928Y-12826786D01*
X18198214Y-12998214D02*
X18169643Y-12983929D01*
X18155357Y-12969643D01*
X18141071Y-12941071D01*
X18141071Y-12855357D01*
X18155357Y-12826786D01*
X18169643Y-12812500D01*
X18198214Y-12798214D01*
X18241071Y-12798214D01*
X18269643Y-12812500D01*
X18283928Y-12826786D01*
X18298214Y-12855357D01*
X18298214Y-12941071D01*
X18283928Y-12969643D01*
X18269643Y-12983929D01*
X18241071Y-12998214D01*
X18198214Y-12998214D01*
X18469643Y-12998214D02*
X18441071Y-12983929D01*
X18426786Y-12955357D01*
X18426786Y-12698214D01*
X18698214Y-12983929D02*
X18669643Y-12998214D01*
X18612500Y-12998214D01*
X18583928Y-12983929D01*
X18569643Y-12955357D01*
X18569643Y-12841071D01*
X18583928Y-12812500D01*
X18612500Y-12798214D01*
X18669643Y-12798214D01*
X18698214Y-12812500D01*
X18712500Y-12841071D01*
X18712500Y-12869643D01*
X18569643Y-12898214D01*
X18826786Y-12983929D02*
X18855357Y-12998214D01*
X18912500Y-12998214D01*
X18941071Y-12983929D01*
X18955357Y-12955357D01*
X18955357Y-12941071D01*
X18941071Y-12912500D01*
X18912500Y-12898214D01*
X18869643Y-12898214D01*
X18841071Y-12883929D01*
X18826786Y-12855357D01*
X18826786Y-12841071D01*
X18841071Y-12812500D01*
X18869643Y-12798214D01*
X18912500Y-12798214D01*
X18941071Y-12812500D01*
X19055357Y-13112500D02*
X19069643Y-13098214D01*
X19098214Y-13055357D01*
X19112500Y-13026786D01*
X19126786Y-12983929D01*
X19141071Y-12912500D01*
X19141071Y-12855357D01*
X19126786Y-12783929D01*
X19112500Y-12741071D01*
X19098214Y-12712500D01*
X19069643Y-12669643D01*
X19055357Y-12655357D01*
X19598214Y-13112500D02*
X19583928Y-13098214D01*
X19555357Y-13055357D01*
X19541071Y-13026786D01*
X19526786Y-12983929D01*
X19512500Y-12912500D01*
X19512500Y-12855357D01*
X19526786Y-12783929D01*
X19541071Y-12741071D01*
X19555357Y-12712500D01*
X19583928Y-12669643D01*
X19598214Y-12655357D01*
X19712500Y-12798214D02*
X19712500Y-12998214D01*
X19712500Y-12826786D02*
X19726786Y-12812500D01*
X19755357Y-12798214D01*
X19798214Y-12798214D01*
X19826786Y-12812500D01*
X19841071Y-12841071D01*
X19841071Y-12998214D01*
X20026786Y-12998214D02*
X19998214Y-12983929D01*
X19983928Y-12969643D01*
X19969643Y-12941071D01*
X19969643Y-12855357D01*
X19983928Y-12826786D01*
X19998214Y-12812500D01*
X20026786Y-12798214D01*
X20069643Y-12798214D01*
X20098214Y-12812500D01*
X20112500Y-12826786D01*
X20126786Y-12855357D01*
X20126786Y-12941071D01*
X20112500Y-12969643D01*
X20098214Y-12983929D01*
X20069643Y-12998214D01*
X20026786Y-12998214D01*
X20212500Y-12798214D02*
X20326786Y-12798214D01*
X20255357Y-12698214D02*
X20255357Y-12955357D01*
X20269643Y-12983929D01*
X20298214Y-12998214D01*
X20326786Y-12998214D01*
X20655357Y-12798214D02*
X20655357Y-13098214D01*
X20655357Y-12812500D02*
X20683928Y-12798214D01*
X20741071Y-12798214D01*
X20769643Y-12812500D01*
X20783928Y-12826786D01*
X20798214Y-12855357D01*
X20798214Y-12941071D01*
X20783928Y-12969643D01*
X20769643Y-12983929D01*
X20741071Y-12998214D01*
X20683928Y-12998214D01*
X20655357Y-12983929D01*
X20969643Y-12998214D02*
X20941071Y-12983929D01*
X20926786Y-12955357D01*
X20926786Y-12698214D01*
X21212500Y-12998214D02*
X21212500Y-12841071D01*
X21198214Y-12812500D01*
X21169643Y-12798214D01*
X21112500Y-12798214D01*
X21083928Y-12812500D01*
X21212500Y-12983929D02*
X21183928Y-12998214D01*
X21112500Y-12998214D01*
X21083928Y-12983929D01*
X21069643Y-12955357D01*
X21069643Y-12926786D01*
X21083928Y-12898214D01*
X21112500Y-12883929D01*
X21183928Y-12883929D01*
X21212500Y-12869643D01*
X21312500Y-12798214D02*
X21426786Y-12798214D01*
X21355357Y-12698214D02*
X21355357Y-12955357D01*
X21369643Y-12983929D01*
X21398214Y-12998214D01*
X21426786Y-12998214D01*
X21641071Y-12983929D02*
X21612500Y-12998214D01*
X21555357Y-12998214D01*
X21526786Y-12983929D01*
X21512500Y-12955357D01*
X21512500Y-12841071D01*
X21526786Y-12812500D01*
X21555357Y-12798214D01*
X21612500Y-12798214D01*
X21641071Y-12812500D01*
X21655357Y-12841071D01*
X21655357Y-12869643D01*
X21512500Y-12898214D01*
X21912500Y-12998214D02*
X21912500Y-12698214D01*
X21912500Y-12983929D02*
X21883928Y-12998214D01*
X21826786Y-12998214D01*
X21798214Y-12983929D01*
X21783928Y-12969643D01*
X21769643Y-12941071D01*
X21769643Y-12855357D01*
X21783928Y-12826786D01*
X21798214Y-12812500D01*
X21826786Y-12798214D01*
X21883928Y-12798214D01*
X21912500Y-12812500D01*
X22026786Y-13112500D02*
X22041071Y-13098214D01*
X22069643Y-13055357D01*
X22083928Y-13026786D01*
X22098214Y-12983929D01*
X22112500Y-12912500D01*
X22112500Y-12855357D01*
X22098214Y-12783929D01*
X22083928Y-12741071D01*
X22069643Y-12712500D01*
X22041071Y-12669643D01*
X22026786Y-12655357D01*
M02*
