%TF.GenerationSoftware,KiCad,Pcbnew,5.1.10-88a1d61d58~88~ubuntu20.04.1*%
%TF.CreationDate,2021-05-10T23:55:53-04:00*%
%TF.ProjectId,reminder-mainboard,72656d69-6e64-4657-922d-6d61696e626f,rev?*%
%TF.SameCoordinates,Original*%
%TF.FileFunction,Legend,Top*%
%TF.FilePolarity,Positive*%
%FSLAX46Y46*%
G04 Gerber Fmt 4.6, Leading zero omitted, Abs format (unit mm)*
G04 Created by KiCad (PCBNEW 5.1.10-88a1d61d58~88~ubuntu20.04.1) date 2021-05-10 23:55:53*
%MOMM*%
%LPD*%
G01*
G04 APERTURE LIST*
%ADD10C,0.150000*%
%ADD11C,0.100000*%
%ADD12C,0.010000*%
%ADD13C,0.120000*%
%ADD14C,2.802000*%
%ADD15O,0.902000X1.402000*%
%ADD16O,1.802000X1.802000*%
%ADD17O,1.402000X0.902000*%
G04 APERTURE END LIST*
D10*
X183928571Y-100357142D02*
X183976190Y-100214285D01*
X184023809Y-100166666D01*
X184119047Y-100119047D01*
X184261904Y-100119047D01*
X184357142Y-100166666D01*
X184404761Y-100214285D01*
X184452380Y-100309523D01*
X184452380Y-100690476D01*
X183452380Y-100690476D01*
X183452380Y-100357142D01*
X183500000Y-100261904D01*
X183547619Y-100214285D01*
X183642857Y-100166666D01*
X183738095Y-100166666D01*
X183833333Y-100214285D01*
X183880952Y-100261904D01*
X183928571Y-100357142D01*
X183928571Y-100690476D01*
X183452380Y-99785714D02*
X183452380Y-99119047D01*
X184452380Y-99785714D01*
X184452380Y-99119047D01*
X183452380Y-98833333D02*
X183452380Y-98166666D01*
X184452380Y-98833333D01*
X184452380Y-98166666D01*
X183452380Y-97880952D02*
X183452380Y-97214285D01*
X184452380Y-97880952D01*
X184452380Y-97214285D01*
X184452380Y-106690476D02*
X183452380Y-106690476D01*
X184166666Y-106357142D01*
X183452380Y-106023809D01*
X184452380Y-106023809D01*
X183452380Y-105547619D02*
X184261904Y-105547619D01*
X184357142Y-105500000D01*
X184404761Y-105452380D01*
X184452380Y-105357142D01*
X184452380Y-105166666D01*
X184404761Y-105071428D01*
X184357142Y-105023809D01*
X184261904Y-104976190D01*
X183452380Y-104976190D01*
X183452380Y-104642857D02*
X183452380Y-104071428D01*
X184452380Y-104357142D02*
X183452380Y-104357142D01*
X183928571Y-103738095D02*
X183928571Y-103404761D01*
X184452380Y-103261904D02*
X184452380Y-103738095D01*
X183452380Y-103738095D01*
X183452380Y-103261904D01*
X183452380Y-110523809D02*
X184261904Y-110523809D01*
X184357142Y-110476190D01*
X184404761Y-110428571D01*
X184452380Y-110333333D01*
X184452380Y-110142857D01*
X184404761Y-110047619D01*
X184357142Y-110000000D01*
X184261904Y-109952380D01*
X183452380Y-109952380D01*
X184452380Y-109476190D02*
X183452380Y-109476190D01*
X121428571Y-101666666D02*
X121428571Y-101333333D01*
X121952380Y-101190476D02*
X121952380Y-101666666D01*
X120952380Y-101666666D01*
X120952380Y-101190476D01*
X120952380Y-100857142D02*
X121952380Y-100190476D01*
X120952380Y-100190476D02*
X121952380Y-100857142D01*
X121952380Y-99809523D02*
X120952380Y-99809523D01*
X120952380Y-99428571D01*
X121000000Y-99333333D01*
X121047619Y-99285714D01*
X121142857Y-99238095D01*
X121285714Y-99238095D01*
X121380952Y-99285714D01*
X121428571Y-99333333D01*
X121476190Y-99428571D01*
X121476190Y-99809523D01*
X121952380Y-98285714D02*
X121952380Y-98857142D01*
X121952380Y-98571428D02*
X120952380Y-98571428D01*
X121095238Y-98666666D01*
X121190476Y-98761904D01*
X121238095Y-98857142D01*
X121428571Y-109666666D02*
X121428571Y-109333333D01*
X121952380Y-109190476D02*
X121952380Y-109666666D01*
X120952380Y-109666666D01*
X120952380Y-109190476D01*
X120952380Y-108857142D02*
X121952380Y-108190476D01*
X120952380Y-108190476D02*
X121952380Y-108857142D01*
X121952380Y-107809523D02*
X120952380Y-107809523D01*
X120952380Y-107428571D01*
X121000000Y-107333333D01*
X121047619Y-107285714D01*
X121142857Y-107238095D01*
X121285714Y-107238095D01*
X121380952Y-107285714D01*
X121428571Y-107333333D01*
X121476190Y-107428571D01*
X121476190Y-107809523D01*
X120952380Y-106619047D02*
X120952380Y-106523809D01*
X121000000Y-106428571D01*
X121047619Y-106380952D01*
X121142857Y-106333333D01*
X121333333Y-106285714D01*
X121571428Y-106285714D01*
X121761904Y-106333333D01*
X121857142Y-106380952D01*
X121904761Y-106428571D01*
X121952380Y-106523809D01*
X121952380Y-106619047D01*
X121904761Y-106714285D01*
X121857142Y-106761904D01*
X121761904Y-106809523D01*
X121571428Y-106857142D01*
X121333333Y-106857142D01*
X121142857Y-106809523D01*
X121047619Y-106761904D01*
X121000000Y-106714285D01*
X120952380Y-106619047D01*
X129761904Y-117452380D02*
X129761904Y-116452380D01*
X130142857Y-116452380D01*
X130238095Y-116500000D01*
X130285714Y-116547619D01*
X130333333Y-116642857D01*
X130333333Y-116785714D01*
X130285714Y-116880952D01*
X130238095Y-116928571D01*
X130142857Y-116976190D01*
X129761904Y-116976190D01*
X131333333Y-117452380D02*
X131000000Y-116976190D01*
X130761904Y-117452380D02*
X130761904Y-116452380D01*
X131142857Y-116452380D01*
X131238095Y-116500000D01*
X131285714Y-116547619D01*
X131333333Y-116642857D01*
X131333333Y-116785714D01*
X131285714Y-116880952D01*
X131238095Y-116928571D01*
X131142857Y-116976190D01*
X130761904Y-116976190D01*
X131952380Y-116452380D02*
X132142857Y-116452380D01*
X132238095Y-116500000D01*
X132333333Y-116595238D01*
X132380952Y-116785714D01*
X132380952Y-117119047D01*
X132333333Y-117309523D01*
X132238095Y-117404761D01*
X132142857Y-117452380D01*
X131952380Y-117452380D01*
X131857142Y-117404761D01*
X131761904Y-117309523D01*
X131714285Y-117119047D01*
X131714285Y-116785714D01*
X131761904Y-116595238D01*
X131857142Y-116500000D01*
X131952380Y-116452380D01*
X132714285Y-116452380D02*
X133380952Y-117452380D01*
X133380952Y-116452380D02*
X132714285Y-117452380D01*
X133952380Y-116452380D02*
X134047619Y-116452380D01*
X134142857Y-116500000D01*
X134190476Y-116547619D01*
X134238095Y-116642857D01*
X134285714Y-116833333D01*
X134285714Y-117071428D01*
X134238095Y-117261904D01*
X134190476Y-117357142D01*
X134142857Y-117404761D01*
X134047619Y-117452380D01*
X133952380Y-117452380D01*
X133857142Y-117404761D01*
X133809523Y-117357142D01*
X133761904Y-117261904D01*
X133714285Y-117071428D01*
X133714285Y-116833333D01*
X133761904Y-116642857D01*
X133809523Y-116547619D01*
X133857142Y-116500000D01*
X133952380Y-116452380D01*
X137261904Y-117452380D02*
X137261904Y-116452380D01*
X137642857Y-116452380D01*
X137738095Y-116500000D01*
X137785714Y-116547619D01*
X137833333Y-116642857D01*
X137833333Y-116785714D01*
X137785714Y-116880952D01*
X137738095Y-116928571D01*
X137642857Y-116976190D01*
X137261904Y-116976190D01*
X138833333Y-117452380D02*
X138500000Y-116976190D01*
X138261904Y-117452380D02*
X138261904Y-116452380D01*
X138642857Y-116452380D01*
X138738095Y-116500000D01*
X138785714Y-116547619D01*
X138833333Y-116642857D01*
X138833333Y-116785714D01*
X138785714Y-116880952D01*
X138738095Y-116928571D01*
X138642857Y-116976190D01*
X138261904Y-116976190D01*
X139452380Y-116452380D02*
X139642857Y-116452380D01*
X139738095Y-116500000D01*
X139833333Y-116595238D01*
X139880952Y-116785714D01*
X139880952Y-117119047D01*
X139833333Y-117309523D01*
X139738095Y-117404761D01*
X139642857Y-117452380D01*
X139452380Y-117452380D01*
X139357142Y-117404761D01*
X139261904Y-117309523D01*
X139214285Y-117119047D01*
X139214285Y-116785714D01*
X139261904Y-116595238D01*
X139357142Y-116500000D01*
X139452380Y-116452380D01*
X140214285Y-116452380D02*
X140880952Y-117452380D01*
X140880952Y-116452380D02*
X140214285Y-117452380D01*
X141785714Y-117452380D02*
X141214285Y-117452380D01*
X141500000Y-117452380D02*
X141500000Y-116452380D01*
X141404761Y-116595238D01*
X141309523Y-116690476D01*
X141214285Y-116738095D01*
X145261904Y-117452380D02*
X145261904Y-116452380D01*
X145642857Y-116452380D01*
X145738095Y-116500000D01*
X145785714Y-116547619D01*
X145833333Y-116642857D01*
X145833333Y-116785714D01*
X145785714Y-116880952D01*
X145738095Y-116928571D01*
X145642857Y-116976190D01*
X145261904Y-116976190D01*
X146833333Y-117452380D02*
X146500000Y-116976190D01*
X146261904Y-117452380D02*
X146261904Y-116452380D01*
X146642857Y-116452380D01*
X146738095Y-116500000D01*
X146785714Y-116547619D01*
X146833333Y-116642857D01*
X146833333Y-116785714D01*
X146785714Y-116880952D01*
X146738095Y-116928571D01*
X146642857Y-116976190D01*
X146261904Y-116976190D01*
X147452380Y-116452380D02*
X147642857Y-116452380D01*
X147738095Y-116500000D01*
X147833333Y-116595238D01*
X147880952Y-116785714D01*
X147880952Y-117119047D01*
X147833333Y-117309523D01*
X147738095Y-117404761D01*
X147642857Y-117452380D01*
X147452380Y-117452380D01*
X147357142Y-117404761D01*
X147261904Y-117309523D01*
X147214285Y-117119047D01*
X147214285Y-116785714D01*
X147261904Y-116595238D01*
X147357142Y-116500000D01*
X147452380Y-116452380D01*
X148214285Y-116452380D02*
X148880952Y-117452380D01*
X148880952Y-116452380D02*
X148214285Y-117452380D01*
X149214285Y-116547619D02*
X149261904Y-116500000D01*
X149357142Y-116452380D01*
X149595238Y-116452380D01*
X149690476Y-116500000D01*
X149738095Y-116547619D01*
X149785714Y-116642857D01*
X149785714Y-116738095D01*
X149738095Y-116880952D01*
X149166666Y-117452380D01*
X149785714Y-117452380D01*
X153261904Y-117452380D02*
X153261904Y-116452380D01*
X153642857Y-116452380D01*
X153738095Y-116500000D01*
X153785714Y-116547619D01*
X153833333Y-116642857D01*
X153833333Y-116785714D01*
X153785714Y-116880952D01*
X153738095Y-116928571D01*
X153642857Y-116976190D01*
X153261904Y-116976190D01*
X154833333Y-117452380D02*
X154500000Y-116976190D01*
X154261904Y-117452380D02*
X154261904Y-116452380D01*
X154642857Y-116452380D01*
X154738095Y-116500000D01*
X154785714Y-116547619D01*
X154833333Y-116642857D01*
X154833333Y-116785714D01*
X154785714Y-116880952D01*
X154738095Y-116928571D01*
X154642857Y-116976190D01*
X154261904Y-116976190D01*
X155452380Y-116452380D02*
X155642857Y-116452380D01*
X155738095Y-116500000D01*
X155833333Y-116595238D01*
X155880952Y-116785714D01*
X155880952Y-117119047D01*
X155833333Y-117309523D01*
X155738095Y-117404761D01*
X155642857Y-117452380D01*
X155452380Y-117452380D01*
X155357142Y-117404761D01*
X155261904Y-117309523D01*
X155214285Y-117119047D01*
X155214285Y-116785714D01*
X155261904Y-116595238D01*
X155357142Y-116500000D01*
X155452380Y-116452380D01*
X156214285Y-116452380D02*
X156880952Y-117452380D01*
X156880952Y-116452380D02*
X156214285Y-117452380D01*
X157166666Y-116452380D02*
X157785714Y-116452380D01*
X157452380Y-116833333D01*
X157595238Y-116833333D01*
X157690476Y-116880952D01*
X157738095Y-116928571D01*
X157785714Y-117023809D01*
X157785714Y-117261904D01*
X157738095Y-117357142D01*
X157690476Y-117404761D01*
X157595238Y-117452380D01*
X157309523Y-117452380D01*
X157214285Y-117404761D01*
X157166666Y-117357142D01*
X169619047Y-111571428D02*
X170380952Y-111571428D01*
X170000000Y-111952380D02*
X170000000Y-111190476D01*
X171619047Y-111571428D02*
X172380952Y-111571428D01*
X169666666Y-116452380D02*
X169190476Y-116452380D01*
X169142857Y-116928571D01*
X169190476Y-116880952D01*
X169285714Y-116833333D01*
X169523809Y-116833333D01*
X169619047Y-116880952D01*
X169666666Y-116928571D01*
X169714285Y-117023809D01*
X169714285Y-117261904D01*
X169666666Y-117357142D01*
X169619047Y-117404761D01*
X169523809Y-117452380D01*
X169285714Y-117452380D01*
X169190476Y-117404761D01*
X169142857Y-117357142D01*
X170000000Y-116452380D02*
X170333333Y-117452380D01*
X170666666Y-116452380D01*
X171761904Y-117452380D02*
X171761904Y-116452380D01*
X172238095Y-117452380D02*
X172238095Y-116452380D01*
X172809523Y-117452380D01*
X172809523Y-116452380D01*
X162880952Y-117452380D02*
X162404761Y-117452380D01*
X162404761Y-116452380D01*
X163214285Y-116928571D02*
X163547619Y-116928571D01*
X163690476Y-117452380D02*
X163214285Y-117452380D01*
X163214285Y-116452380D01*
X163690476Y-116452380D01*
X164119047Y-117452380D02*
X164119047Y-116452380D01*
X164357142Y-116452380D01*
X164500000Y-116500000D01*
X164595238Y-116595238D01*
X164642857Y-116690476D01*
X164690476Y-116880952D01*
X164690476Y-117023809D01*
X164642857Y-117214285D01*
X164595238Y-117309523D01*
X164500000Y-117404761D01*
X164357142Y-117452380D01*
X164119047Y-117452380D01*
X165309523Y-116452380D02*
X165404761Y-116452380D01*
X165500000Y-116500000D01*
X165547619Y-116547619D01*
X165595238Y-116642857D01*
X165642857Y-116833333D01*
X165642857Y-117071428D01*
X165595238Y-117261904D01*
X165547619Y-117357142D01*
X165500000Y-117404761D01*
X165404761Y-117452380D01*
X165309523Y-117452380D01*
X165214285Y-117404761D01*
X165166666Y-117357142D01*
X165119047Y-117261904D01*
X165071428Y-117071428D01*
X165071428Y-116833333D01*
X165119047Y-116642857D01*
X165166666Y-116547619D01*
X165214285Y-116500000D01*
X165309523Y-116452380D01*
X162880952Y-111452380D02*
X162404761Y-111452380D01*
X162404761Y-110452380D01*
X163214285Y-110928571D02*
X163547619Y-110928571D01*
X163690476Y-111452380D02*
X163214285Y-111452380D01*
X163214285Y-110452380D01*
X163690476Y-110452380D01*
X164119047Y-111452380D02*
X164119047Y-110452380D01*
X164357142Y-110452380D01*
X164500000Y-110500000D01*
X164595238Y-110595238D01*
X164642857Y-110690476D01*
X164690476Y-110880952D01*
X164690476Y-111023809D01*
X164642857Y-111214285D01*
X164595238Y-111309523D01*
X164500000Y-111404761D01*
X164357142Y-111452380D01*
X164119047Y-111452380D01*
X165642857Y-111452380D02*
X165071428Y-111452380D01*
X165357142Y-111452380D02*
X165357142Y-110452380D01*
X165261904Y-110595238D01*
X165166666Y-110690476D01*
X165071428Y-110738095D01*
X165880952Y-101952380D02*
X165404761Y-101952380D01*
X165404761Y-100952380D01*
X166214285Y-101428571D02*
X166547619Y-101428571D01*
X166690476Y-101952380D02*
X166214285Y-101952380D01*
X166214285Y-100952380D01*
X166690476Y-100952380D01*
X167119047Y-101952380D02*
X167119047Y-100952380D01*
X167357142Y-100952380D01*
X167500000Y-101000000D01*
X167595238Y-101095238D01*
X167642857Y-101190476D01*
X167690476Y-101380952D01*
X167690476Y-101523809D01*
X167642857Y-101714285D01*
X167595238Y-101809523D01*
X167500000Y-101904761D01*
X167357142Y-101952380D01*
X167119047Y-101952380D01*
X168309523Y-100952380D02*
X168404761Y-100952380D01*
X168500000Y-101000000D01*
X168547619Y-101047619D01*
X168595238Y-101142857D01*
X168642857Y-101333333D01*
X168642857Y-101571428D01*
X168595238Y-101761904D01*
X168547619Y-101857142D01*
X168500000Y-101904761D01*
X168404761Y-101952380D01*
X168309523Y-101952380D01*
X168214285Y-101904761D01*
X168166666Y-101857142D01*
X168119047Y-101761904D01*
X168071428Y-101571428D01*
X168071428Y-101333333D01*
X168119047Y-101142857D01*
X168166666Y-101047619D01*
X168214285Y-101000000D01*
X168309523Y-100952380D01*
X165880952Y-99452380D02*
X165404761Y-99452380D01*
X165404761Y-98452380D01*
X166214285Y-98928571D02*
X166547619Y-98928571D01*
X166690476Y-99452380D02*
X166214285Y-99452380D01*
X166214285Y-98452380D01*
X166690476Y-98452380D01*
X167119047Y-99452380D02*
X167119047Y-98452380D01*
X167357142Y-98452380D01*
X167500000Y-98500000D01*
X167595238Y-98595238D01*
X167642857Y-98690476D01*
X167690476Y-98880952D01*
X167690476Y-99023809D01*
X167642857Y-99214285D01*
X167595238Y-99309523D01*
X167500000Y-99404761D01*
X167357142Y-99452380D01*
X167119047Y-99452380D01*
X168642857Y-99452380D02*
X168071428Y-99452380D01*
X168357142Y-99452380D02*
X168357142Y-98452380D01*
X168261904Y-98595238D01*
X168166666Y-98690476D01*
X168071428Y-98738095D01*
X148976190Y-101952380D02*
X148976190Y-102761904D01*
X149023809Y-102857142D01*
X149071428Y-102904761D01*
X149166666Y-102952380D01*
X149357142Y-102952380D01*
X149452380Y-102904761D01*
X149500000Y-102857142D01*
X149547619Y-102761904D01*
X149547619Y-101952380D01*
X150023809Y-102952380D02*
X150023809Y-101952380D01*
X136238095Y-96000000D02*
X136142857Y-95952380D01*
X136000000Y-95952380D01*
X135857142Y-96000000D01*
X135761904Y-96095238D01*
X135714285Y-96190476D01*
X135666666Y-96380952D01*
X135666666Y-96523809D01*
X135714285Y-96714285D01*
X135761904Y-96809523D01*
X135857142Y-96904761D01*
X136000000Y-96952380D01*
X136095238Y-96952380D01*
X136238095Y-96904761D01*
X136285714Y-96857142D01*
X136285714Y-96523809D01*
X136095238Y-96523809D01*
X136714285Y-96952380D02*
X136714285Y-95952380D01*
X137285714Y-96952380D01*
X137285714Y-95952380D01*
X137761904Y-96952380D02*
X137761904Y-95952380D01*
X138000000Y-95952380D01*
X138142857Y-96000000D01*
X138238095Y-96095238D01*
X138285714Y-96190476D01*
X138333333Y-96380952D01*
X138333333Y-96523809D01*
X138285714Y-96714285D01*
X138238095Y-96809523D01*
X138142857Y-96904761D01*
X138000000Y-96952380D01*
X137761904Y-96952380D01*
D11*
X140666666Y-103452380D02*
X141285714Y-103452380D01*
X140952380Y-103833333D01*
X141095238Y-103833333D01*
X141190476Y-103880952D01*
X141238095Y-103928571D01*
X141285714Y-104023809D01*
X141285714Y-104261904D01*
X141238095Y-104357142D01*
X141190476Y-104404761D01*
X141095238Y-104452380D01*
X140809523Y-104452380D01*
X140714285Y-104404761D01*
X140666666Y-104357142D01*
X138214285Y-103547619D02*
X138261904Y-103500000D01*
X138357142Y-103452380D01*
X138595238Y-103452380D01*
X138690476Y-103500000D01*
X138738095Y-103547619D01*
X138785714Y-103642857D01*
X138785714Y-103738095D01*
X138738095Y-103880952D01*
X138166666Y-104452380D01*
X138785714Y-104452380D01*
X136285714Y-104452380D02*
X135714285Y-104452380D01*
X136000000Y-104452380D02*
X136000000Y-103452380D01*
X135904761Y-103595238D01*
X135809523Y-103690476D01*
X135714285Y-103738095D01*
X133547619Y-103452380D02*
X133452380Y-103452380D01*
X133357142Y-103500000D01*
X133309523Y-103547619D01*
X133261904Y-103642857D01*
X133214285Y-103833333D01*
X133214285Y-104071428D01*
X133261904Y-104261904D01*
X133309523Y-104357142D01*
X133357142Y-104404761D01*
X133452380Y-104452380D01*
X133547619Y-104452380D01*
X133642857Y-104404761D01*
X133690476Y-104357142D01*
X133738095Y-104261904D01*
X133785714Y-104071428D01*
X133785714Y-103833333D01*
X133738095Y-103642857D01*
X133690476Y-103547619D01*
X133642857Y-103500000D01*
X133547619Y-103452380D01*
D12*
G36*
X176831311Y-115376726D02*
G01*
X176836725Y-115379402D01*
X176866319Y-115399112D01*
X176895381Y-115425788D01*
X176918756Y-115453812D01*
X176931288Y-115477569D01*
X176932166Y-115483361D01*
X176940457Y-115494826D01*
X176962083Y-115512962D01*
X176989207Y-115531754D01*
X177027197Y-115557647D01*
X177049977Y-115576665D01*
X177056625Y-115587728D01*
X177046218Y-115589753D01*
X177037009Y-115587774D01*
X176965177Y-115570645D01*
X176912482Y-115562266D01*
X176878797Y-115562617D01*
X176876428Y-115563142D01*
X176849378Y-115580242D01*
X176833254Y-115614424D01*
X176828508Y-115664374D01*
X176830700Y-115696270D01*
X176833240Y-115736519D01*
X176830238Y-115760531D01*
X176826758Y-115765528D01*
X176818477Y-115780191D01*
X176815566Y-115800812D01*
X176812352Y-115834113D01*
X176803601Y-115883529D01*
X176790187Y-115945003D01*
X176772984Y-116014478D01*
X176756312Y-116075817D01*
X176744798Y-116118198D01*
X176736464Y-116152180D01*
X176732384Y-116173187D01*
X176732429Y-116177663D01*
X176744781Y-116178562D01*
X176775349Y-116177366D01*
X176821314Y-116174345D01*
X176879858Y-116169770D01*
X176948162Y-116163911D01*
X177023407Y-116157038D01*
X177102774Y-116149421D01*
X177183446Y-116141331D01*
X177262604Y-116133038D01*
X177337429Y-116124812D01*
X177405102Y-116116923D01*
X177462806Y-116109643D01*
X177506312Y-116103459D01*
X177532337Y-116100849D01*
X177543621Y-116105477D01*
X177546000Y-116118772D01*
X177541350Y-116146325D01*
X177528496Y-116188368D01*
X177509081Y-116240653D01*
X177484749Y-116298932D01*
X177457141Y-116358959D01*
X177438942Y-116395500D01*
X177379437Y-116498940D01*
X177304856Y-116608782D01*
X177218433Y-116720807D01*
X177123401Y-116830797D01*
X177034010Y-116923748D01*
X176965152Y-116991622D01*
X176781972Y-117010929D01*
X176717694Y-117016711D01*
X176638007Y-117022327D01*
X176548667Y-117027464D01*
X176455432Y-117031808D01*
X176364056Y-117035044D01*
X176318333Y-117036204D01*
X176241693Y-117037990D01*
X176170602Y-117039940D01*
X176108243Y-117041943D01*
X176057799Y-117043889D01*
X176022452Y-117045667D01*
X176006125Y-117047041D01*
X175973957Y-117061558D01*
X175950465Y-117088830D01*
X175931301Y-117111986D01*
X175912704Y-117124649D01*
X175908131Y-117125471D01*
X175890659Y-117120577D01*
X175860344Y-117107801D01*
X175822825Y-117089586D01*
X175810463Y-117083138D01*
X175731217Y-117041083D01*
X175558446Y-117041083D01*
X175391396Y-117037827D01*
X175208674Y-117027985D01*
X175008407Y-117011448D01*
X174938786Y-117004568D01*
X174802781Y-116990626D01*
X174744620Y-116933834D01*
X174659779Y-116845891D01*
X174575582Y-116749131D01*
X174495353Y-116647931D01*
X174422418Y-116546665D01*
X174360101Y-116449709D01*
X174343692Y-116420040D01*
X174385264Y-116420040D01*
X174388590Y-116430583D01*
X174402266Y-116454758D01*
X174424020Y-116489209D01*
X174451577Y-116530578D01*
X174482664Y-116575507D01*
X174515009Y-116620639D01*
X174546338Y-116662616D01*
X174569275Y-116691833D01*
X174603642Y-116732067D01*
X174647459Y-116780188D01*
X174694666Y-116829676D01*
X174732459Y-116867484D01*
X174831375Y-116963760D01*
X174979541Y-116977437D01*
X175085888Y-116986945D01*
X175176501Y-116994254D01*
X175256666Y-116999658D01*
X175331670Y-117003452D01*
X175406798Y-117005929D01*
X175487336Y-117007386D01*
X175524013Y-117007763D01*
X175708652Y-117009333D01*
X175673638Y-116973208D01*
X175653769Y-116949821D01*
X175643345Y-116931930D01*
X175683333Y-116931930D01*
X175691774Y-116948542D01*
X175714252Y-116972565D01*
X175746493Y-117000784D01*
X175784228Y-117029983D01*
X175823185Y-117056949D01*
X175859093Y-117078468D01*
X175887680Y-117091324D01*
X175898022Y-117093507D01*
X175906451Y-117085294D01*
X175924024Y-117062370D01*
X175948490Y-117027861D01*
X175964572Y-117004114D01*
X176011416Y-117004114D01*
X176021439Y-117006368D01*
X176049291Y-117007929D01*
X176091648Y-117008830D01*
X176145185Y-117009105D01*
X176206577Y-117008789D01*
X176272499Y-117007915D01*
X176339627Y-117006517D01*
X176404636Y-117004630D01*
X176464200Y-117002288D01*
X176514996Y-116999524D01*
X176524708Y-116998860D01*
X176594657Y-116993630D01*
X176674297Y-116987331D01*
X176752245Y-116980880D01*
X176799875Y-116976748D01*
X176937458Y-116964491D01*
X177064782Y-116836099D01*
X177144509Y-116752156D01*
X177217595Y-116668246D01*
X177281301Y-116587783D01*
X177332885Y-116514182D01*
X177361434Y-116466526D01*
X177390309Y-116413472D01*
X177344978Y-116420720D01*
X177239141Y-116436220D01*
X177116559Y-116451734D01*
X176981649Y-116466833D01*
X176838827Y-116481087D01*
X176692511Y-116494070D01*
X176547117Y-116505350D01*
X176407061Y-116514500D01*
X176343233Y-116517999D01*
X176204092Y-116525095D01*
X176106666Y-116657783D01*
X176106666Y-116751811D01*
X176106258Y-116797363D01*
X176103631Y-116829282D01*
X176096682Y-116855100D01*
X176083307Y-116882352D01*
X176061403Y-116918570D01*
X176059041Y-116922367D01*
X176037430Y-116957665D01*
X176020940Y-116985689D01*
X176012177Y-117001962D01*
X176011416Y-117004114D01*
X175964572Y-117004114D01*
X175977593Y-116984889D01*
X175990626Y-116965117D01*
X176074916Y-116836235D01*
X176074916Y-116753451D01*
X176074280Y-116714615D01*
X176072594Y-116685547D01*
X176070187Y-116671313D01*
X176069512Y-116670666D01*
X176061782Y-116678755D01*
X176043695Y-116701189D01*
X176017380Y-116735224D01*
X175984964Y-116778112D01*
X175954544Y-116819017D01*
X175912202Y-116875482D01*
X175880347Y-116915814D01*
X175857683Y-116941466D01*
X175842915Y-116953889D01*
X175834749Y-116954537D01*
X175834200Y-116953955D01*
X175833709Y-116943449D01*
X175842800Y-116923093D01*
X175862501Y-116891192D01*
X175893843Y-116846050D01*
X175928298Y-116798844D01*
X175962782Y-116751582D01*
X175991890Y-116710397D01*
X176013651Y-116678183D01*
X176026096Y-116657835D01*
X176028150Y-116652122D01*
X176016331Y-116652525D01*
X175989817Y-116658248D01*
X175954049Y-116668090D01*
X175949334Y-116669509D01*
X175919884Y-116678817D01*
X175897070Y-116688083D01*
X175877201Y-116700300D01*
X175856584Y-116718460D01*
X175831526Y-116745557D01*
X175798335Y-116784584D01*
X175779439Y-116807223D01*
X175744934Y-116849249D01*
X175715922Y-116885787D01*
X175694850Y-116913662D01*
X175684165Y-116929695D01*
X175683333Y-116931930D01*
X175643345Y-116931930D01*
X175643062Y-116931446D01*
X175642458Y-116926068D01*
X175650234Y-116914455D01*
X175669149Y-116889688D01*
X175696772Y-116854857D01*
X175730667Y-116813050D01*
X175750535Y-116788888D01*
X175854780Y-116662722D01*
X175946881Y-116635082D01*
X175963768Y-116629589D01*
X176074345Y-116629589D01*
X176081808Y-116624568D01*
X176099556Y-116604365D01*
X176128078Y-116568395D01*
X176167860Y-116516075D01*
X176196611Y-116477520D01*
X176240278Y-116477520D01*
X176242064Y-116483903D01*
X176257046Y-116488138D01*
X176286377Y-116490201D01*
X176331209Y-116490070D01*
X176392698Y-116487722D01*
X176471996Y-116483134D01*
X176570256Y-116476284D01*
X176663500Y-116469142D01*
X176746119Y-116462211D01*
X176835313Y-116454004D01*
X176927801Y-116444886D01*
X177020296Y-116435225D01*
X177109514Y-116425386D01*
X177192172Y-116415736D01*
X177264985Y-116406642D01*
X177324669Y-116398469D01*
X177367938Y-116391585D01*
X177380517Y-116389147D01*
X177396612Y-116383170D01*
X177410867Y-116370289D01*
X177426237Y-116346604D01*
X177445679Y-116308213D01*
X177452037Y-116294763D01*
X177471372Y-116251467D01*
X177487510Y-116211602D01*
X177497871Y-116181682D01*
X177499780Y-116174160D01*
X177502537Y-116151574D01*
X177494940Y-116142892D01*
X177475885Y-116141579D01*
X177448605Y-116143326D01*
X177410386Y-116147744D01*
X177381958Y-116151916D01*
X177326039Y-116159842D01*
X177252918Y-116168519D01*
X177166533Y-116177591D01*
X177070819Y-116186701D01*
X176969713Y-116195493D01*
X176867151Y-116203611D01*
X176767070Y-116210698D01*
X176673406Y-116216398D01*
X176664192Y-116216897D01*
X176422676Y-116229801D01*
X176335408Y-116347046D01*
X176302948Y-116390842D01*
X176274769Y-116429210D01*
X176253441Y-116458624D01*
X176241535Y-116475559D01*
X176240278Y-116477520D01*
X176196611Y-116477520D01*
X176204503Y-116466937D01*
X176255403Y-116398211D01*
X176294975Y-116344533D01*
X176324550Y-116303984D01*
X176345456Y-116274647D01*
X176359024Y-116254605D01*
X176366583Y-116241940D01*
X176369464Y-116234735D01*
X176368996Y-116231071D01*
X176368493Y-116230465D01*
X176361484Y-116237405D01*
X176344160Y-116258577D01*
X176318672Y-116291107D01*
X176287174Y-116332122D01*
X176251817Y-116378750D01*
X176214755Y-116428117D01*
X176178139Y-116477350D01*
X176144122Y-116523575D01*
X176114856Y-116563920D01*
X176092494Y-116595511D01*
X176079187Y-116615475D01*
X176076680Y-116620010D01*
X176074345Y-116629589D01*
X175963768Y-116629589D01*
X175995151Y-116619381D01*
X176027694Y-116605239D01*
X176049535Y-116590046D01*
X176063173Y-116574722D01*
X176077370Y-116552598D01*
X176082583Y-116538291D01*
X176082005Y-116536643D01*
X176070575Y-116535204D01*
X176040328Y-116533420D01*
X175993606Y-116531376D01*
X175932755Y-116529157D01*
X175860118Y-116526847D01*
X175778040Y-116524531D01*
X175688865Y-116522293D01*
X175676260Y-116521998D01*
X175530492Y-116518290D01*
X175401918Y-116514193D01*
X175286566Y-116509416D01*
X175180464Y-116503666D01*
X175079640Y-116496654D01*
X174980122Y-116488087D01*
X174877936Y-116477674D01*
X174769112Y-116465124D01*
X174649677Y-116450145D01*
X174589233Y-116442247D01*
X174526755Y-116434238D01*
X174471826Y-116427645D01*
X174427751Y-116422828D01*
X174397835Y-116420148D01*
X174385384Y-116419964D01*
X174385264Y-116420040D01*
X174343692Y-116420040D01*
X174315485Y-116369041D01*
X174287296Y-116309317D01*
X174263183Y-116251701D01*
X174244087Y-116199205D01*
X174232196Y-116159069D01*
X174267507Y-116159069D01*
X174270140Y-116170604D01*
X174282257Y-116209629D01*
X174299595Y-116253696D01*
X174319771Y-116297962D01*
X174340406Y-116337585D01*
X174359117Y-116367722D01*
X174373523Y-116383530D01*
X174375281Y-116384410D01*
X174394228Y-116388734D01*
X174431246Y-116394785D01*
X174483345Y-116402205D01*
X174547531Y-116410635D01*
X174620813Y-116419717D01*
X174700200Y-116429091D01*
X174782698Y-116438400D01*
X174865317Y-116447285D01*
X174945064Y-116455387D01*
X175018947Y-116462346D01*
X175043041Y-116464461D01*
X175203222Y-116477091D01*
X175355467Y-116486615D01*
X175506954Y-116493349D01*
X175664861Y-116497610D01*
X175836368Y-116499713D01*
X175844213Y-116499760D01*
X176116218Y-116501333D01*
X176308436Y-116242041D01*
X176072614Y-116239717D01*
X175822367Y-116236478D01*
X175591941Y-116231856D01*
X175380029Y-116225787D01*
X175185326Y-116218209D01*
X175006526Y-116209058D01*
X174842324Y-116198271D01*
X174691415Y-116185784D01*
X174552492Y-116171535D01*
X174476833Y-116162430D01*
X174404458Y-116153261D01*
X174350520Y-116146818D01*
X174312450Y-116143205D01*
X174287681Y-116142522D01*
X174273646Y-116144870D01*
X174267777Y-116150352D01*
X174267507Y-116159069D01*
X174232196Y-116159069D01*
X174230943Y-116154842D01*
X174224690Y-116121622D01*
X174226266Y-116102558D01*
X174231443Y-116099166D01*
X174244805Y-116100482D01*
X174274610Y-116104055D01*
X174316322Y-116109327D01*
X174361089Y-116115166D01*
X174423757Y-116122923D01*
X174499326Y-116131420D01*
X174584586Y-116140373D01*
X174676329Y-116149495D01*
X174771349Y-116158500D01*
X174866436Y-116167101D01*
X174958383Y-116175012D01*
X175043982Y-116181948D01*
X175120024Y-116187623D01*
X175183302Y-116191748D01*
X175230607Y-116194040D01*
X175249476Y-116194416D01*
X175249583Y-116193403D01*
X175324954Y-116193403D01*
X175385081Y-116197884D01*
X175422346Y-116199652D01*
X175468719Y-116200383D01*
X175519572Y-116200191D01*
X175570279Y-116199186D01*
X175616211Y-116197481D01*
X175652741Y-116195188D01*
X175675242Y-116192418D01*
X175679937Y-116190756D01*
X175683420Y-116177870D01*
X175686560Y-116149746D01*
X175689193Y-116111387D01*
X175691154Y-116067795D01*
X175692280Y-116023973D01*
X175692407Y-115984923D01*
X175691372Y-115955647D01*
X175689010Y-115941148D01*
X175688137Y-115940416D01*
X175675032Y-115947009D01*
X175655437Y-115962936D01*
X175654757Y-115963572D01*
X175632819Y-115979212D01*
X175611187Y-115979624D01*
X175602023Y-115976801D01*
X175576728Y-115963516D01*
X175572248Y-115948356D01*
X175588584Y-115930507D01*
X175601949Y-115921837D01*
X175633834Y-115893862D01*
X175660759Y-115853324D01*
X175661912Y-115850982D01*
X175675635Y-115819423D01*
X175680672Y-115794043D01*
X175678222Y-115764359D01*
X175674253Y-115743069D01*
X175662116Y-115691141D01*
X175649049Y-115656822D01*
X175632766Y-115636597D01*
X175610982Y-115626953D01*
X175597509Y-115625016D01*
X175565307Y-115616486D01*
X175531872Y-115594282D01*
X175514012Y-115578153D01*
X175468562Y-115534481D01*
X175448856Y-115558817D01*
X175437619Y-115579305D01*
X175422407Y-115616479D01*
X175404554Y-115666531D01*
X175385389Y-115725656D01*
X175366243Y-115790047D01*
X175359275Y-115815012D01*
X175363608Y-115831518D01*
X175379498Y-115857769D01*
X175402996Y-115889096D01*
X175430156Y-115920835D01*
X175457030Y-115948318D01*
X175479671Y-115966878D01*
X175492200Y-115972166D01*
X175517378Y-115980212D01*
X175529562Y-116000016D01*
X175525439Y-116023484D01*
X175510822Y-116042442D01*
X175500892Y-116049244D01*
X175477529Y-116048447D01*
X175444904Y-116035882D01*
X175408968Y-116014494D01*
X175375671Y-115987232D01*
X175375651Y-115987213D01*
X175337845Y-115950377D01*
X175342544Y-116039919D01*
X175343438Y-116085698D01*
X175341608Y-116127124D01*
X175337450Y-116156757D01*
X175336099Y-116161432D01*
X175324954Y-116193403D01*
X175249583Y-116193403D01*
X175250518Y-116184563D01*
X175249296Y-116157621D01*
X175246080Y-116117515D01*
X175241142Y-116068172D01*
X175240187Y-116059479D01*
X175231799Y-115948658D01*
X175233382Y-115855656D01*
X175245021Y-115779575D01*
X175266805Y-115719517D01*
X175274386Y-115706014D01*
X175311951Y-115645564D01*
X175349425Y-115586703D01*
X175384612Y-115532754D01*
X175415319Y-115487036D01*
X175439351Y-115452872D01*
X175454183Y-115433939D01*
X175479326Y-115411560D01*
X175507247Y-115399952D01*
X175544242Y-115397493D01*
X175582791Y-115400804D01*
X175635167Y-115403482D01*
X175674803Y-115396610D01*
X175681979Y-115393963D01*
X175715744Y-115384912D01*
X175755839Y-115380199D01*
X175766646Y-115379992D01*
X175815625Y-115380485D01*
X175767455Y-115405585D01*
X175722986Y-115433750D01*
X175684174Y-115467430D01*
X175655955Y-115501768D01*
X175644237Y-115526790D01*
X175644740Y-115552308D01*
X175654136Y-115594211D01*
X175671852Y-115649952D01*
X175672093Y-115650638D01*
X175687334Y-115696983D01*
X175698224Y-115739079D01*
X175705948Y-115783516D01*
X175711688Y-115836882D01*
X175715925Y-115894711D01*
X175719032Y-115956497D01*
X175720629Y-116018542D01*
X175720629Y-116073884D01*
X175718941Y-116115561D01*
X175718766Y-116117687D01*
X175712163Y-116194416D01*
X176306453Y-116194416D01*
X176307381Y-116186479D01*
X176456524Y-116186479D01*
X176466314Y-116191995D01*
X176496397Y-116194064D01*
X176546184Y-116192684D01*
X176615082Y-116187848D01*
X176617184Y-116187671D01*
X176696978Y-116180926D01*
X176713995Y-116116234D01*
X176722677Y-116082066D01*
X176733167Y-116039076D01*
X176744341Y-115992098D01*
X176755075Y-115945967D01*
X176764245Y-115905515D01*
X176770728Y-115875577D01*
X176773401Y-115860986D01*
X176773416Y-115860631D01*
X176764701Y-115856389D01*
X176756218Y-115855750D01*
X176744904Y-115851347D01*
X176743599Y-115834643D01*
X176745628Y-115822709D01*
X176748688Y-115801338D01*
X176744623Y-115797038D01*
X176737553Y-115801855D01*
X176728358Y-115818065D01*
X176730139Y-115845903D01*
X176731443Y-115852054D01*
X176736597Y-115888795D01*
X176730228Y-115909655D01*
X176710481Y-115917582D01*
X176690453Y-115917273D01*
X176675707Y-115916583D01*
X176663061Y-115919054D01*
X176649953Y-115927123D01*
X176633821Y-115943229D01*
X176612102Y-115969807D01*
X176582234Y-116009296D01*
X176554867Y-116046250D01*
X176521233Y-116092211D01*
X176492519Y-116132279D01*
X176470905Y-116163347D01*
X176458568Y-116182308D01*
X176456524Y-116186479D01*
X176307381Y-116186479D01*
X176308071Y-116180590D01*
X176405608Y-116180590D01*
X176409274Y-116181149D01*
X176410229Y-116180591D01*
X176420296Y-116169815D01*
X176440365Y-116144775D01*
X176468156Y-116108443D01*
X176501385Y-116063794D01*
X176530305Y-116024146D01*
X176565039Y-115975513D01*
X176594567Y-115933010D01*
X176616978Y-115899485D01*
X176630360Y-115877787D01*
X176633233Y-115870789D01*
X176625734Y-115877219D01*
X176608104Y-115898001D01*
X176582594Y-115930315D01*
X176551455Y-115971345D01*
X176533269Y-115995893D01*
X176485432Y-116061348D01*
X176449599Y-116111266D01*
X176424919Y-116146927D01*
X176410539Y-116169608D01*
X176405608Y-116180590D01*
X176308071Y-116180590D01*
X176311719Y-116149437D01*
X176314553Y-116121231D01*
X176318357Y-116077864D01*
X176322628Y-116025290D01*
X176323916Y-116008326D01*
X176424491Y-116008326D01*
X176424903Y-116043811D01*
X176426293Y-116068435D01*
X176428368Y-116077237D01*
X176428546Y-116077118D01*
X176436069Y-116067402D01*
X176453638Y-116043843D01*
X176478837Y-116009704D01*
X176509248Y-115968251D01*
X176517923Y-115956386D01*
X176553725Y-115906811D01*
X176576981Y-115871614D01*
X176587798Y-115848204D01*
X176586280Y-115833991D01*
X176572532Y-115826381D01*
X176546660Y-115822784D01*
X176523408Y-115821371D01*
X176472540Y-115818708D01*
X176448678Y-115876916D01*
X176430127Y-115940338D01*
X176424491Y-116008326D01*
X176323916Y-116008326D01*
X176326790Y-115970492D01*
X176331767Y-115910537D01*
X176337302Y-115866034D01*
X176344577Y-115831277D01*
X176354777Y-115800559D01*
X176366914Y-115773003D01*
X176699333Y-115773003D01*
X176705380Y-115777269D01*
X176706789Y-115776375D01*
X176752250Y-115776375D01*
X176757541Y-115781666D01*
X176762833Y-115776375D01*
X176757541Y-115771083D01*
X176752250Y-115776375D01*
X176706789Y-115776375D01*
X176715464Y-115770871D01*
X176726558Y-115757929D01*
X176726751Y-115752640D01*
X176715000Y-115752413D01*
X176702782Y-115763093D01*
X176699333Y-115773003D01*
X176366914Y-115773003D01*
X176368498Y-115769409D01*
X176404322Y-115703741D01*
X176416404Y-115685307D01*
X176571385Y-115685307D01*
X176595671Y-115700443D01*
X176633575Y-115723239D01*
X176657951Y-115735206D01*
X176672634Y-115737624D01*
X176681459Y-115731769D01*
X176682968Y-115729543D01*
X176683444Y-115713639D01*
X176676745Y-115692814D01*
X176673586Y-115674815D01*
X176710737Y-115674815D01*
X176724263Y-115694781D01*
X176742478Y-115711934D01*
X176771320Y-115733221D01*
X176788282Y-115738087D01*
X176794504Y-115726800D01*
X176794583Y-115724178D01*
X176786616Y-115708353D01*
X176767110Y-115689547D01*
X176763845Y-115687137D01*
X176732429Y-115668787D01*
X176714093Y-115665415D01*
X176710737Y-115674815D01*
X176673586Y-115674815D01*
X176671799Y-115664634D01*
X176682899Y-115644495D01*
X176705823Y-115634341D01*
X176736347Y-115636115D01*
X176768497Y-115650592D01*
X176785853Y-115660869D01*
X176793053Y-115657990D01*
X176794568Y-115638418D01*
X176794583Y-115629970D01*
X176804062Y-115587899D01*
X176821311Y-115563417D01*
X176837874Y-115541761D01*
X176844551Y-115525223D01*
X176844292Y-115523184D01*
X176832484Y-115516156D01*
X176806338Y-115510576D01*
X176786022Y-115508599D01*
X176757174Y-115507633D01*
X176736909Y-115510985D01*
X176718830Y-115521838D01*
X176696538Y-115543371D01*
X176679613Y-115561516D01*
X176648739Y-115595390D01*
X176619363Y-115628432D01*
X176599555Y-115651466D01*
X176571385Y-115685307D01*
X176416404Y-115685307D01*
X176450886Y-115632697D01*
X176504343Y-115561111D01*
X176560846Y-115493817D01*
X176616545Y-115435650D01*
X176667593Y-115391445D01*
X176671817Y-115388325D01*
X176721935Y-115363536D01*
X176775160Y-115359666D01*
X176831311Y-115376726D01*
G37*
X176831311Y-115376726D02*
X176836725Y-115379402D01*
X176866319Y-115399112D01*
X176895381Y-115425788D01*
X176918756Y-115453812D01*
X176931288Y-115477569D01*
X176932166Y-115483361D01*
X176940457Y-115494826D01*
X176962083Y-115512962D01*
X176989207Y-115531754D01*
X177027197Y-115557647D01*
X177049977Y-115576665D01*
X177056625Y-115587728D01*
X177046218Y-115589753D01*
X177037009Y-115587774D01*
X176965177Y-115570645D01*
X176912482Y-115562266D01*
X176878797Y-115562617D01*
X176876428Y-115563142D01*
X176849378Y-115580242D01*
X176833254Y-115614424D01*
X176828508Y-115664374D01*
X176830700Y-115696270D01*
X176833240Y-115736519D01*
X176830238Y-115760531D01*
X176826758Y-115765528D01*
X176818477Y-115780191D01*
X176815566Y-115800812D01*
X176812352Y-115834113D01*
X176803601Y-115883529D01*
X176790187Y-115945003D01*
X176772984Y-116014478D01*
X176756312Y-116075817D01*
X176744798Y-116118198D01*
X176736464Y-116152180D01*
X176732384Y-116173187D01*
X176732429Y-116177663D01*
X176744781Y-116178562D01*
X176775349Y-116177366D01*
X176821314Y-116174345D01*
X176879858Y-116169770D01*
X176948162Y-116163911D01*
X177023407Y-116157038D01*
X177102774Y-116149421D01*
X177183446Y-116141331D01*
X177262604Y-116133038D01*
X177337429Y-116124812D01*
X177405102Y-116116923D01*
X177462806Y-116109643D01*
X177506312Y-116103459D01*
X177532337Y-116100849D01*
X177543621Y-116105477D01*
X177546000Y-116118772D01*
X177541350Y-116146325D01*
X177528496Y-116188368D01*
X177509081Y-116240653D01*
X177484749Y-116298932D01*
X177457141Y-116358959D01*
X177438942Y-116395500D01*
X177379437Y-116498940D01*
X177304856Y-116608782D01*
X177218433Y-116720807D01*
X177123401Y-116830797D01*
X177034010Y-116923748D01*
X176965152Y-116991622D01*
X176781972Y-117010929D01*
X176717694Y-117016711D01*
X176638007Y-117022327D01*
X176548667Y-117027464D01*
X176455432Y-117031808D01*
X176364056Y-117035044D01*
X176318333Y-117036204D01*
X176241693Y-117037990D01*
X176170602Y-117039940D01*
X176108243Y-117041943D01*
X176057799Y-117043889D01*
X176022452Y-117045667D01*
X176006125Y-117047041D01*
X175973957Y-117061558D01*
X175950465Y-117088830D01*
X175931301Y-117111986D01*
X175912704Y-117124649D01*
X175908131Y-117125471D01*
X175890659Y-117120577D01*
X175860344Y-117107801D01*
X175822825Y-117089586D01*
X175810463Y-117083138D01*
X175731217Y-117041083D01*
X175558446Y-117041083D01*
X175391396Y-117037827D01*
X175208674Y-117027985D01*
X175008407Y-117011448D01*
X174938786Y-117004568D01*
X174802781Y-116990626D01*
X174744620Y-116933834D01*
X174659779Y-116845891D01*
X174575582Y-116749131D01*
X174495353Y-116647931D01*
X174422418Y-116546665D01*
X174360101Y-116449709D01*
X174343692Y-116420040D01*
X174385264Y-116420040D01*
X174388590Y-116430583D01*
X174402266Y-116454758D01*
X174424020Y-116489209D01*
X174451577Y-116530578D01*
X174482664Y-116575507D01*
X174515009Y-116620639D01*
X174546338Y-116662616D01*
X174569275Y-116691833D01*
X174603642Y-116732067D01*
X174647459Y-116780188D01*
X174694666Y-116829676D01*
X174732459Y-116867484D01*
X174831375Y-116963760D01*
X174979541Y-116977437D01*
X175085888Y-116986945D01*
X175176501Y-116994254D01*
X175256666Y-116999658D01*
X175331670Y-117003452D01*
X175406798Y-117005929D01*
X175487336Y-117007386D01*
X175524013Y-117007763D01*
X175708652Y-117009333D01*
X175673638Y-116973208D01*
X175653769Y-116949821D01*
X175643345Y-116931930D01*
X175683333Y-116931930D01*
X175691774Y-116948542D01*
X175714252Y-116972565D01*
X175746493Y-117000784D01*
X175784228Y-117029983D01*
X175823185Y-117056949D01*
X175859093Y-117078468D01*
X175887680Y-117091324D01*
X175898022Y-117093507D01*
X175906451Y-117085294D01*
X175924024Y-117062370D01*
X175948490Y-117027861D01*
X175964572Y-117004114D01*
X176011416Y-117004114D01*
X176021439Y-117006368D01*
X176049291Y-117007929D01*
X176091648Y-117008830D01*
X176145185Y-117009105D01*
X176206577Y-117008789D01*
X176272499Y-117007915D01*
X176339627Y-117006517D01*
X176404636Y-117004630D01*
X176464200Y-117002288D01*
X176514996Y-116999524D01*
X176524708Y-116998860D01*
X176594657Y-116993630D01*
X176674297Y-116987331D01*
X176752245Y-116980880D01*
X176799875Y-116976748D01*
X176937458Y-116964491D01*
X177064782Y-116836099D01*
X177144509Y-116752156D01*
X177217595Y-116668246D01*
X177281301Y-116587783D01*
X177332885Y-116514182D01*
X177361434Y-116466526D01*
X177390309Y-116413472D01*
X177344978Y-116420720D01*
X177239141Y-116436220D01*
X177116559Y-116451734D01*
X176981649Y-116466833D01*
X176838827Y-116481087D01*
X176692511Y-116494070D01*
X176547117Y-116505350D01*
X176407061Y-116514500D01*
X176343233Y-116517999D01*
X176204092Y-116525095D01*
X176106666Y-116657783D01*
X176106666Y-116751811D01*
X176106258Y-116797363D01*
X176103631Y-116829282D01*
X176096682Y-116855100D01*
X176083307Y-116882352D01*
X176061403Y-116918570D01*
X176059041Y-116922367D01*
X176037430Y-116957665D01*
X176020940Y-116985689D01*
X176012177Y-117001962D01*
X176011416Y-117004114D01*
X175964572Y-117004114D01*
X175977593Y-116984889D01*
X175990626Y-116965117D01*
X176074916Y-116836235D01*
X176074916Y-116753451D01*
X176074280Y-116714615D01*
X176072594Y-116685547D01*
X176070187Y-116671313D01*
X176069512Y-116670666D01*
X176061782Y-116678755D01*
X176043695Y-116701189D01*
X176017380Y-116735224D01*
X175984964Y-116778112D01*
X175954544Y-116819017D01*
X175912202Y-116875482D01*
X175880347Y-116915814D01*
X175857683Y-116941466D01*
X175842915Y-116953889D01*
X175834749Y-116954537D01*
X175834200Y-116953955D01*
X175833709Y-116943449D01*
X175842800Y-116923093D01*
X175862501Y-116891192D01*
X175893843Y-116846050D01*
X175928298Y-116798844D01*
X175962782Y-116751582D01*
X175991890Y-116710397D01*
X176013651Y-116678183D01*
X176026096Y-116657835D01*
X176028150Y-116652122D01*
X176016331Y-116652525D01*
X175989817Y-116658248D01*
X175954049Y-116668090D01*
X175949334Y-116669509D01*
X175919884Y-116678817D01*
X175897070Y-116688083D01*
X175877201Y-116700300D01*
X175856584Y-116718460D01*
X175831526Y-116745557D01*
X175798335Y-116784584D01*
X175779439Y-116807223D01*
X175744934Y-116849249D01*
X175715922Y-116885787D01*
X175694850Y-116913662D01*
X175684165Y-116929695D01*
X175683333Y-116931930D01*
X175643345Y-116931930D01*
X175643062Y-116931446D01*
X175642458Y-116926068D01*
X175650234Y-116914455D01*
X175669149Y-116889688D01*
X175696772Y-116854857D01*
X175730667Y-116813050D01*
X175750535Y-116788888D01*
X175854780Y-116662722D01*
X175946881Y-116635082D01*
X175963768Y-116629589D01*
X176074345Y-116629589D01*
X176081808Y-116624568D01*
X176099556Y-116604365D01*
X176128078Y-116568395D01*
X176167860Y-116516075D01*
X176196611Y-116477520D01*
X176240278Y-116477520D01*
X176242064Y-116483903D01*
X176257046Y-116488138D01*
X176286377Y-116490201D01*
X176331209Y-116490070D01*
X176392698Y-116487722D01*
X176471996Y-116483134D01*
X176570256Y-116476284D01*
X176663500Y-116469142D01*
X176746119Y-116462211D01*
X176835313Y-116454004D01*
X176927801Y-116444886D01*
X177020296Y-116435225D01*
X177109514Y-116425386D01*
X177192172Y-116415736D01*
X177264985Y-116406642D01*
X177324669Y-116398469D01*
X177367938Y-116391585D01*
X177380517Y-116389147D01*
X177396612Y-116383170D01*
X177410867Y-116370289D01*
X177426237Y-116346604D01*
X177445679Y-116308213D01*
X177452037Y-116294763D01*
X177471372Y-116251467D01*
X177487510Y-116211602D01*
X177497871Y-116181682D01*
X177499780Y-116174160D01*
X177502537Y-116151574D01*
X177494940Y-116142892D01*
X177475885Y-116141579D01*
X177448605Y-116143326D01*
X177410386Y-116147744D01*
X177381958Y-116151916D01*
X177326039Y-116159842D01*
X177252918Y-116168519D01*
X177166533Y-116177591D01*
X177070819Y-116186701D01*
X176969713Y-116195493D01*
X176867151Y-116203611D01*
X176767070Y-116210698D01*
X176673406Y-116216398D01*
X176664192Y-116216897D01*
X176422676Y-116229801D01*
X176335408Y-116347046D01*
X176302948Y-116390842D01*
X176274769Y-116429210D01*
X176253441Y-116458624D01*
X176241535Y-116475559D01*
X176240278Y-116477520D01*
X176196611Y-116477520D01*
X176204503Y-116466937D01*
X176255403Y-116398211D01*
X176294975Y-116344533D01*
X176324550Y-116303984D01*
X176345456Y-116274647D01*
X176359024Y-116254605D01*
X176366583Y-116241940D01*
X176369464Y-116234735D01*
X176368996Y-116231071D01*
X176368493Y-116230465D01*
X176361484Y-116237405D01*
X176344160Y-116258577D01*
X176318672Y-116291107D01*
X176287174Y-116332122D01*
X176251817Y-116378750D01*
X176214755Y-116428117D01*
X176178139Y-116477350D01*
X176144122Y-116523575D01*
X176114856Y-116563920D01*
X176092494Y-116595511D01*
X176079187Y-116615475D01*
X176076680Y-116620010D01*
X176074345Y-116629589D01*
X175963768Y-116629589D01*
X175995151Y-116619381D01*
X176027694Y-116605239D01*
X176049535Y-116590046D01*
X176063173Y-116574722D01*
X176077370Y-116552598D01*
X176082583Y-116538291D01*
X176082005Y-116536643D01*
X176070575Y-116535204D01*
X176040328Y-116533420D01*
X175993606Y-116531376D01*
X175932755Y-116529157D01*
X175860118Y-116526847D01*
X175778040Y-116524531D01*
X175688865Y-116522293D01*
X175676260Y-116521998D01*
X175530492Y-116518290D01*
X175401918Y-116514193D01*
X175286566Y-116509416D01*
X175180464Y-116503666D01*
X175079640Y-116496654D01*
X174980122Y-116488087D01*
X174877936Y-116477674D01*
X174769112Y-116465124D01*
X174649677Y-116450145D01*
X174589233Y-116442247D01*
X174526755Y-116434238D01*
X174471826Y-116427645D01*
X174427751Y-116422828D01*
X174397835Y-116420148D01*
X174385384Y-116419964D01*
X174385264Y-116420040D01*
X174343692Y-116420040D01*
X174315485Y-116369041D01*
X174287296Y-116309317D01*
X174263183Y-116251701D01*
X174244087Y-116199205D01*
X174232196Y-116159069D01*
X174267507Y-116159069D01*
X174270140Y-116170604D01*
X174282257Y-116209629D01*
X174299595Y-116253696D01*
X174319771Y-116297962D01*
X174340406Y-116337585D01*
X174359117Y-116367722D01*
X174373523Y-116383530D01*
X174375281Y-116384410D01*
X174394228Y-116388734D01*
X174431246Y-116394785D01*
X174483345Y-116402205D01*
X174547531Y-116410635D01*
X174620813Y-116419717D01*
X174700200Y-116429091D01*
X174782698Y-116438400D01*
X174865317Y-116447285D01*
X174945064Y-116455387D01*
X175018947Y-116462346D01*
X175043041Y-116464461D01*
X175203222Y-116477091D01*
X175355467Y-116486615D01*
X175506954Y-116493349D01*
X175664861Y-116497610D01*
X175836368Y-116499713D01*
X175844213Y-116499760D01*
X176116218Y-116501333D01*
X176308436Y-116242041D01*
X176072614Y-116239717D01*
X175822367Y-116236478D01*
X175591941Y-116231856D01*
X175380029Y-116225787D01*
X175185326Y-116218209D01*
X175006526Y-116209058D01*
X174842324Y-116198271D01*
X174691415Y-116185784D01*
X174552492Y-116171535D01*
X174476833Y-116162430D01*
X174404458Y-116153261D01*
X174350520Y-116146818D01*
X174312450Y-116143205D01*
X174287681Y-116142522D01*
X174273646Y-116144870D01*
X174267777Y-116150352D01*
X174267507Y-116159069D01*
X174232196Y-116159069D01*
X174230943Y-116154842D01*
X174224690Y-116121622D01*
X174226266Y-116102558D01*
X174231443Y-116099166D01*
X174244805Y-116100482D01*
X174274610Y-116104055D01*
X174316322Y-116109327D01*
X174361089Y-116115166D01*
X174423757Y-116122923D01*
X174499326Y-116131420D01*
X174584586Y-116140373D01*
X174676329Y-116149495D01*
X174771349Y-116158500D01*
X174866436Y-116167101D01*
X174958383Y-116175012D01*
X175043982Y-116181948D01*
X175120024Y-116187623D01*
X175183302Y-116191748D01*
X175230607Y-116194040D01*
X175249476Y-116194416D01*
X175249583Y-116193403D01*
X175324954Y-116193403D01*
X175385081Y-116197884D01*
X175422346Y-116199652D01*
X175468719Y-116200383D01*
X175519572Y-116200191D01*
X175570279Y-116199186D01*
X175616211Y-116197481D01*
X175652741Y-116195188D01*
X175675242Y-116192418D01*
X175679937Y-116190756D01*
X175683420Y-116177870D01*
X175686560Y-116149746D01*
X175689193Y-116111387D01*
X175691154Y-116067795D01*
X175692280Y-116023973D01*
X175692407Y-115984923D01*
X175691372Y-115955647D01*
X175689010Y-115941148D01*
X175688137Y-115940416D01*
X175675032Y-115947009D01*
X175655437Y-115962936D01*
X175654757Y-115963572D01*
X175632819Y-115979212D01*
X175611187Y-115979624D01*
X175602023Y-115976801D01*
X175576728Y-115963516D01*
X175572248Y-115948356D01*
X175588584Y-115930507D01*
X175601949Y-115921837D01*
X175633834Y-115893862D01*
X175660759Y-115853324D01*
X175661912Y-115850982D01*
X175675635Y-115819423D01*
X175680672Y-115794043D01*
X175678222Y-115764359D01*
X175674253Y-115743069D01*
X175662116Y-115691141D01*
X175649049Y-115656822D01*
X175632766Y-115636597D01*
X175610982Y-115626953D01*
X175597509Y-115625016D01*
X175565307Y-115616486D01*
X175531872Y-115594282D01*
X175514012Y-115578153D01*
X175468562Y-115534481D01*
X175448856Y-115558817D01*
X175437619Y-115579305D01*
X175422407Y-115616479D01*
X175404554Y-115666531D01*
X175385389Y-115725656D01*
X175366243Y-115790047D01*
X175359275Y-115815012D01*
X175363608Y-115831518D01*
X175379498Y-115857769D01*
X175402996Y-115889096D01*
X175430156Y-115920835D01*
X175457030Y-115948318D01*
X175479671Y-115966878D01*
X175492200Y-115972166D01*
X175517378Y-115980212D01*
X175529562Y-116000016D01*
X175525439Y-116023484D01*
X175510822Y-116042442D01*
X175500892Y-116049244D01*
X175477529Y-116048447D01*
X175444904Y-116035882D01*
X175408968Y-116014494D01*
X175375671Y-115987232D01*
X175375651Y-115987213D01*
X175337845Y-115950377D01*
X175342544Y-116039919D01*
X175343438Y-116085698D01*
X175341608Y-116127124D01*
X175337450Y-116156757D01*
X175336099Y-116161432D01*
X175324954Y-116193403D01*
X175249583Y-116193403D01*
X175250518Y-116184563D01*
X175249296Y-116157621D01*
X175246080Y-116117515D01*
X175241142Y-116068172D01*
X175240187Y-116059479D01*
X175231799Y-115948658D01*
X175233382Y-115855656D01*
X175245021Y-115779575D01*
X175266805Y-115719517D01*
X175274386Y-115706014D01*
X175311951Y-115645564D01*
X175349425Y-115586703D01*
X175384612Y-115532754D01*
X175415319Y-115487036D01*
X175439351Y-115452872D01*
X175454183Y-115433939D01*
X175479326Y-115411560D01*
X175507247Y-115399952D01*
X175544242Y-115397493D01*
X175582791Y-115400804D01*
X175635167Y-115403482D01*
X175674803Y-115396610D01*
X175681979Y-115393963D01*
X175715744Y-115384912D01*
X175755839Y-115380199D01*
X175766646Y-115379992D01*
X175815625Y-115380485D01*
X175767455Y-115405585D01*
X175722986Y-115433750D01*
X175684174Y-115467430D01*
X175655955Y-115501768D01*
X175644237Y-115526790D01*
X175644740Y-115552308D01*
X175654136Y-115594211D01*
X175671852Y-115649952D01*
X175672093Y-115650638D01*
X175687334Y-115696983D01*
X175698224Y-115739079D01*
X175705948Y-115783516D01*
X175711688Y-115836882D01*
X175715925Y-115894711D01*
X175719032Y-115956497D01*
X175720629Y-116018542D01*
X175720629Y-116073884D01*
X175718941Y-116115561D01*
X175718766Y-116117687D01*
X175712163Y-116194416D01*
X176306453Y-116194416D01*
X176307381Y-116186479D01*
X176456524Y-116186479D01*
X176466314Y-116191995D01*
X176496397Y-116194064D01*
X176546184Y-116192684D01*
X176615082Y-116187848D01*
X176617184Y-116187671D01*
X176696978Y-116180926D01*
X176713995Y-116116234D01*
X176722677Y-116082066D01*
X176733167Y-116039076D01*
X176744341Y-115992098D01*
X176755075Y-115945967D01*
X176764245Y-115905515D01*
X176770728Y-115875577D01*
X176773401Y-115860986D01*
X176773416Y-115860631D01*
X176764701Y-115856389D01*
X176756218Y-115855750D01*
X176744904Y-115851347D01*
X176743599Y-115834643D01*
X176745628Y-115822709D01*
X176748688Y-115801338D01*
X176744623Y-115797038D01*
X176737553Y-115801855D01*
X176728358Y-115818065D01*
X176730139Y-115845903D01*
X176731443Y-115852054D01*
X176736597Y-115888795D01*
X176730228Y-115909655D01*
X176710481Y-115917582D01*
X176690453Y-115917273D01*
X176675707Y-115916583D01*
X176663061Y-115919054D01*
X176649953Y-115927123D01*
X176633821Y-115943229D01*
X176612102Y-115969807D01*
X176582234Y-116009296D01*
X176554867Y-116046250D01*
X176521233Y-116092211D01*
X176492519Y-116132279D01*
X176470905Y-116163347D01*
X176458568Y-116182308D01*
X176456524Y-116186479D01*
X176307381Y-116186479D01*
X176308071Y-116180590D01*
X176405608Y-116180590D01*
X176409274Y-116181149D01*
X176410229Y-116180591D01*
X176420296Y-116169815D01*
X176440365Y-116144775D01*
X176468156Y-116108443D01*
X176501385Y-116063794D01*
X176530305Y-116024146D01*
X176565039Y-115975513D01*
X176594567Y-115933010D01*
X176616978Y-115899485D01*
X176630360Y-115877787D01*
X176633233Y-115870789D01*
X176625734Y-115877219D01*
X176608104Y-115898001D01*
X176582594Y-115930315D01*
X176551455Y-115971345D01*
X176533269Y-115995893D01*
X176485432Y-116061348D01*
X176449599Y-116111266D01*
X176424919Y-116146927D01*
X176410539Y-116169608D01*
X176405608Y-116180590D01*
X176308071Y-116180590D01*
X176311719Y-116149437D01*
X176314553Y-116121231D01*
X176318357Y-116077864D01*
X176322628Y-116025290D01*
X176323916Y-116008326D01*
X176424491Y-116008326D01*
X176424903Y-116043811D01*
X176426293Y-116068435D01*
X176428368Y-116077237D01*
X176428546Y-116077118D01*
X176436069Y-116067402D01*
X176453638Y-116043843D01*
X176478837Y-116009704D01*
X176509248Y-115968251D01*
X176517923Y-115956386D01*
X176553725Y-115906811D01*
X176576981Y-115871614D01*
X176587798Y-115848204D01*
X176586280Y-115833991D01*
X176572532Y-115826381D01*
X176546660Y-115822784D01*
X176523408Y-115821371D01*
X176472540Y-115818708D01*
X176448678Y-115876916D01*
X176430127Y-115940338D01*
X176424491Y-116008326D01*
X176323916Y-116008326D01*
X176326790Y-115970492D01*
X176331767Y-115910537D01*
X176337302Y-115866034D01*
X176344577Y-115831277D01*
X176354777Y-115800559D01*
X176366914Y-115773003D01*
X176699333Y-115773003D01*
X176705380Y-115777269D01*
X176706789Y-115776375D01*
X176752250Y-115776375D01*
X176757541Y-115781666D01*
X176762833Y-115776375D01*
X176757541Y-115771083D01*
X176752250Y-115776375D01*
X176706789Y-115776375D01*
X176715464Y-115770871D01*
X176726558Y-115757929D01*
X176726751Y-115752640D01*
X176715000Y-115752413D01*
X176702782Y-115763093D01*
X176699333Y-115773003D01*
X176366914Y-115773003D01*
X176368498Y-115769409D01*
X176404322Y-115703741D01*
X176416404Y-115685307D01*
X176571385Y-115685307D01*
X176595671Y-115700443D01*
X176633575Y-115723239D01*
X176657951Y-115735206D01*
X176672634Y-115737624D01*
X176681459Y-115731769D01*
X176682968Y-115729543D01*
X176683444Y-115713639D01*
X176676745Y-115692814D01*
X176673586Y-115674815D01*
X176710737Y-115674815D01*
X176724263Y-115694781D01*
X176742478Y-115711934D01*
X176771320Y-115733221D01*
X176788282Y-115738087D01*
X176794504Y-115726800D01*
X176794583Y-115724178D01*
X176786616Y-115708353D01*
X176767110Y-115689547D01*
X176763845Y-115687137D01*
X176732429Y-115668787D01*
X176714093Y-115665415D01*
X176710737Y-115674815D01*
X176673586Y-115674815D01*
X176671799Y-115664634D01*
X176682899Y-115644495D01*
X176705823Y-115634341D01*
X176736347Y-115636115D01*
X176768497Y-115650592D01*
X176785853Y-115660869D01*
X176793053Y-115657990D01*
X176794568Y-115638418D01*
X176794583Y-115629970D01*
X176804062Y-115587899D01*
X176821311Y-115563417D01*
X176837874Y-115541761D01*
X176844551Y-115525223D01*
X176844292Y-115523184D01*
X176832484Y-115516156D01*
X176806338Y-115510576D01*
X176786022Y-115508599D01*
X176757174Y-115507633D01*
X176736909Y-115510985D01*
X176718830Y-115521838D01*
X176696538Y-115543371D01*
X176679613Y-115561516D01*
X176648739Y-115595390D01*
X176619363Y-115628432D01*
X176599555Y-115651466D01*
X176571385Y-115685307D01*
X176416404Y-115685307D01*
X176450886Y-115632697D01*
X176504343Y-115561111D01*
X176560846Y-115493817D01*
X176616545Y-115435650D01*
X176667593Y-115391445D01*
X176671817Y-115388325D01*
X176721935Y-115363536D01*
X176775160Y-115359666D01*
X176831311Y-115376726D01*
D13*
X173845000Y-101270000D02*
X172385000Y-101270000D01*
X173845000Y-98110000D02*
X171685000Y-98110000D01*
X173845000Y-98110000D02*
X173845000Y-99040000D01*
X173845000Y-101270000D02*
X173845000Y-100340000D01*
X168577500Y-111510000D02*
X172787500Y-111510000D01*
X168577500Y-108490000D02*
X168577500Y-111510000D01*
X172787500Y-108490000D02*
X168577500Y-108490000D01*
X160190000Y-115830000D02*
X161190000Y-115830000D01*
X160190000Y-115830000D02*
X160190000Y-114830000D01*
X166940000Y-112630000D02*
X163965000Y-112630000D01*
X166940000Y-113480000D02*
X166940000Y-112630000D01*
X167140000Y-113480000D02*
X166940000Y-113480000D01*
X167140000Y-114280000D02*
X167140000Y-113480000D01*
X166940000Y-114280000D02*
X167140000Y-114280000D01*
X166940000Y-115030000D02*
X166940000Y-114280000D01*
X163965000Y-115030000D02*
X166940000Y-115030000D01*
X160990000Y-112630000D02*
X163965000Y-112630000D01*
X160990000Y-113480000D02*
X160990000Y-112630000D01*
X160790000Y-113480000D02*
X160990000Y-113480000D01*
X160790000Y-114280000D02*
X160790000Y-113480000D01*
X160990000Y-114280000D02*
X160790000Y-114280000D01*
X160990000Y-115030000D02*
X160990000Y-114280000D01*
X163965000Y-115030000D02*
X160990000Y-115030000D01*
X167450000Y-112120000D02*
X160480000Y-112120000D01*
X167450000Y-115540000D02*
X167450000Y-112120000D01*
X160480000Y-115540000D02*
X167450000Y-115540000D01*
X160480000Y-112120000D02*
X160480000Y-115540000D01*
X170937742Y-106977500D02*
X171412258Y-106977500D01*
X170937742Y-108022500D02*
X171412258Y-108022500D01*
X168600000Y-115830000D02*
X169600000Y-115830000D01*
X168600000Y-115830000D02*
X168600000Y-114830000D01*
X172850000Y-112630000D02*
X171125000Y-112630000D01*
X172850000Y-113480000D02*
X172850000Y-112630000D01*
X173050000Y-113480000D02*
X172850000Y-113480000D01*
X173050000Y-114280000D02*
X173050000Y-113480000D01*
X172850000Y-114280000D02*
X173050000Y-114280000D01*
X172850000Y-115030000D02*
X172850000Y-114280000D01*
X171125000Y-115030000D02*
X172850000Y-115030000D01*
X169400000Y-112630000D02*
X171125000Y-112630000D01*
X169400000Y-113480000D02*
X169400000Y-112630000D01*
X169200000Y-113480000D02*
X169400000Y-113480000D01*
X169200000Y-114280000D02*
X169200000Y-113480000D01*
X169400000Y-114280000D02*
X169200000Y-114280000D01*
X169400000Y-115030000D02*
X169400000Y-114280000D01*
X171125000Y-115030000D02*
X169400000Y-115030000D01*
X173360000Y-112120000D02*
X168890000Y-112120000D01*
X173360000Y-115540000D02*
X173360000Y-112120000D01*
X168890000Y-115540000D02*
X173360000Y-115540000D01*
X168890000Y-112120000D02*
X168890000Y-115540000D01*
X170412500Y-106235000D02*
X172697500Y-106235000D01*
X172697500Y-106235000D02*
X172697500Y-104765000D01*
X172697500Y-104765000D02*
X170412500Y-104765000D01*
X156670000Y-102830000D02*
X156670000Y-101500000D01*
X158000000Y-102830000D02*
X156670000Y-102830000D01*
X156670000Y-100230000D02*
X156670000Y-97630000D01*
X159270000Y-100230000D02*
X156670000Y-100230000D01*
X159270000Y-102830000D02*
X159270000Y-100230000D01*
X156670000Y-97630000D02*
X164410000Y-97630000D01*
X159270000Y-102830000D02*
X164410000Y-102830000D01*
X164410000Y-102830000D02*
X164410000Y-97630000D01*
X160190000Y-110580000D02*
X161190000Y-110580000D01*
X160190000Y-110580000D02*
X160190000Y-109580000D01*
X166940000Y-107380000D02*
X163965000Y-107380000D01*
X166940000Y-108230000D02*
X166940000Y-107380000D01*
X167140000Y-108230000D02*
X166940000Y-108230000D01*
X167140000Y-109030000D02*
X167140000Y-108230000D01*
X166940000Y-109030000D02*
X167140000Y-109030000D01*
X166940000Y-109780000D02*
X166940000Y-109030000D01*
X163965000Y-109780000D02*
X166940000Y-109780000D01*
X160990000Y-107380000D02*
X163965000Y-107380000D01*
X160990000Y-108230000D02*
X160990000Y-107380000D01*
X160790000Y-108230000D02*
X160990000Y-108230000D01*
X160790000Y-109030000D02*
X160790000Y-108230000D01*
X160990000Y-109030000D02*
X160790000Y-109030000D01*
X160990000Y-109780000D02*
X160990000Y-109030000D01*
X163965000Y-109780000D02*
X160990000Y-109780000D01*
X167450000Y-106870000D02*
X160480000Y-106870000D01*
X167450000Y-110290000D02*
X167450000Y-106870000D01*
X160480000Y-110290000D02*
X167450000Y-110290000D01*
X160480000Y-106870000D02*
X160480000Y-110290000D01*
X176007500Y-99267742D02*
X176007500Y-99742258D01*
X177052500Y-99267742D02*
X177052500Y-99742258D01*
X128875000Y-112140000D02*
X128875000Y-115560000D01*
X128875000Y-115560000D02*
X134595000Y-115560000D01*
X134595000Y-115560000D02*
X134595000Y-112140000D01*
X134595000Y-112140000D02*
X128875000Y-112140000D01*
X131735000Y-115050000D02*
X129385000Y-115050000D01*
X129385000Y-115050000D02*
X129385000Y-114300000D01*
X129385000Y-114300000D02*
X129185000Y-114300000D01*
X129185000Y-114300000D02*
X129185000Y-113500000D01*
X129185000Y-113500000D02*
X129385000Y-113500000D01*
X129385000Y-113500000D02*
X129385000Y-112650000D01*
X129385000Y-112650000D02*
X131735000Y-112650000D01*
X131735000Y-115050000D02*
X134085000Y-115050000D01*
X134085000Y-115050000D02*
X134085000Y-114300000D01*
X134085000Y-114300000D02*
X134285000Y-114300000D01*
X134285000Y-114300000D02*
X134285000Y-113500000D01*
X134285000Y-113500000D02*
X134085000Y-113500000D01*
X134085000Y-113500000D02*
X134085000Y-112650000D01*
X134085000Y-112650000D02*
X131735000Y-112650000D01*
X128585000Y-115850000D02*
X128585000Y-114850000D01*
X128585000Y-115850000D02*
X129585000Y-115850000D01*
X145670000Y-101330000D02*
X145670000Y-100000000D01*
X147000000Y-101330000D02*
X145670000Y-101330000D01*
X148270000Y-101330000D02*
X148270000Y-98670000D01*
X148270000Y-98670000D02*
X153410000Y-98670000D01*
X148270000Y-101330000D02*
X153410000Y-101330000D01*
X153410000Y-101330000D02*
X153410000Y-98670000D01*
X177022500Y-110562258D02*
X177022500Y-110087742D01*
X175977500Y-110562258D02*
X175977500Y-110087742D01*
X169657500Y-99267742D02*
X169657500Y-99742258D01*
X170702500Y-99267742D02*
X170702500Y-99742258D01*
X154475000Y-107030436D02*
X154475000Y-108484564D01*
X156295000Y-107030436D02*
X156295000Y-108484564D01*
X138695000Y-107030436D02*
X138695000Y-108484564D01*
X140515000Y-107030436D02*
X140515000Y-108484564D01*
X146585000Y-107030436D02*
X146585000Y-108484564D01*
X148405000Y-107030436D02*
X148405000Y-108484564D01*
X130805000Y-107030436D02*
X130805000Y-108484564D01*
X132625000Y-107030436D02*
X132625000Y-108484564D01*
X126050000Y-102900000D02*
X126050000Y-101900000D01*
X126050000Y-102900000D02*
X125050000Y-102900000D01*
X122850000Y-97400000D02*
X122850000Y-99750000D01*
X123700000Y-97400000D02*
X122850000Y-97400000D01*
X123700000Y-97200000D02*
X123700000Y-97400000D01*
X124500000Y-97200000D02*
X123700000Y-97200000D01*
X124500000Y-97400000D02*
X124500000Y-97200000D01*
X125250000Y-97400000D02*
X124500000Y-97400000D01*
X125250000Y-99750000D02*
X125250000Y-97400000D01*
X122850000Y-102100000D02*
X122850000Y-99750000D01*
X123700000Y-102100000D02*
X122850000Y-102100000D01*
X123700000Y-102300000D02*
X123700000Y-102100000D01*
X124500000Y-102300000D02*
X123700000Y-102300000D01*
X124500000Y-102100000D02*
X124500000Y-102300000D01*
X125250000Y-102100000D02*
X124500000Y-102100000D01*
X125250000Y-99750000D02*
X125250000Y-102100000D01*
X122340000Y-96890000D02*
X122340000Y-102610000D01*
X125760000Y-96890000D02*
X122340000Y-96890000D01*
X125760000Y-102610000D02*
X125760000Y-96890000D01*
X122340000Y-102610000D02*
X125760000Y-102610000D01*
X132020000Y-102870000D02*
X132020000Y-101540000D01*
X133350000Y-102870000D02*
X132020000Y-102870000D01*
X132020000Y-100270000D02*
X132020000Y-97670000D01*
X134620000Y-100270000D02*
X132020000Y-100270000D01*
X134620000Y-102870000D02*
X134620000Y-100270000D01*
X132020000Y-97670000D02*
X142300000Y-97670000D01*
X134620000Y-102870000D02*
X142300000Y-102870000D01*
X142300000Y-102870000D02*
X142300000Y-97670000D01*
X152255000Y-115850000D02*
X153255000Y-115850000D01*
X152255000Y-115850000D02*
X152255000Y-114850000D01*
X157755000Y-112650000D02*
X155405000Y-112650000D01*
X157755000Y-113500000D02*
X157755000Y-112650000D01*
X157955000Y-113500000D02*
X157755000Y-113500000D01*
X157955000Y-114300000D02*
X157955000Y-113500000D01*
X157755000Y-114300000D02*
X157955000Y-114300000D01*
X157755000Y-115050000D02*
X157755000Y-114300000D01*
X155405000Y-115050000D02*
X157755000Y-115050000D01*
X153055000Y-112650000D02*
X155405000Y-112650000D01*
X153055000Y-113500000D02*
X153055000Y-112650000D01*
X152855000Y-113500000D02*
X153055000Y-113500000D01*
X152855000Y-114300000D02*
X152855000Y-113500000D01*
X153055000Y-114300000D02*
X152855000Y-114300000D01*
X153055000Y-115050000D02*
X153055000Y-114300000D01*
X155405000Y-115050000D02*
X153055000Y-115050000D01*
X158265000Y-112140000D02*
X152545000Y-112140000D01*
X158265000Y-115560000D02*
X158265000Y-112140000D01*
X152545000Y-115560000D02*
X158265000Y-115560000D01*
X152545000Y-112140000D02*
X152545000Y-115560000D01*
X136455000Y-115850000D02*
X137455000Y-115850000D01*
X136455000Y-115850000D02*
X136455000Y-114850000D01*
X141955000Y-112650000D02*
X139605000Y-112650000D01*
X141955000Y-113500000D02*
X141955000Y-112650000D01*
X142155000Y-113500000D02*
X141955000Y-113500000D01*
X142155000Y-114300000D02*
X142155000Y-113500000D01*
X141955000Y-114300000D02*
X142155000Y-114300000D01*
X141955000Y-115050000D02*
X141955000Y-114300000D01*
X139605000Y-115050000D02*
X141955000Y-115050000D01*
X137255000Y-112650000D02*
X139605000Y-112650000D01*
X137255000Y-113500000D02*
X137255000Y-112650000D01*
X137055000Y-113500000D02*
X137255000Y-113500000D01*
X137055000Y-114300000D02*
X137055000Y-113500000D01*
X137255000Y-114300000D02*
X137055000Y-114300000D01*
X137255000Y-115050000D02*
X137255000Y-114300000D01*
X139605000Y-115050000D02*
X137255000Y-115050000D01*
X142465000Y-112140000D02*
X136745000Y-112140000D01*
X142465000Y-115560000D02*
X142465000Y-112140000D01*
X136745000Y-115560000D02*
X142465000Y-115560000D01*
X136745000Y-112140000D02*
X136745000Y-115560000D01*
X126050000Y-110900000D02*
X126050000Y-109900000D01*
X126050000Y-110900000D02*
X125050000Y-110900000D01*
X122850000Y-105400000D02*
X122850000Y-107750000D01*
X123700000Y-105400000D02*
X122850000Y-105400000D01*
X123700000Y-105200000D02*
X123700000Y-105400000D01*
X124500000Y-105200000D02*
X123700000Y-105200000D01*
X124500000Y-105400000D02*
X124500000Y-105200000D01*
X125250000Y-105400000D02*
X124500000Y-105400000D01*
X125250000Y-107750000D02*
X125250000Y-105400000D01*
X122850000Y-110100000D02*
X122850000Y-107750000D01*
X123700000Y-110100000D02*
X122850000Y-110100000D01*
X123700000Y-110300000D02*
X123700000Y-110100000D01*
X124500000Y-110300000D02*
X123700000Y-110300000D01*
X124500000Y-110100000D02*
X124500000Y-110300000D01*
X125250000Y-110100000D02*
X124500000Y-110100000D01*
X125250000Y-107750000D02*
X125250000Y-110100000D01*
X122340000Y-104890000D02*
X122340000Y-110610000D01*
X125760000Y-104890000D02*
X122340000Y-104890000D01*
X125760000Y-110610000D02*
X125760000Y-104890000D01*
X122340000Y-110610000D02*
X125760000Y-110610000D01*
X144365000Y-115850000D02*
X145365000Y-115850000D01*
X144365000Y-115850000D02*
X144365000Y-114850000D01*
X149865000Y-112650000D02*
X147515000Y-112650000D01*
X149865000Y-113500000D02*
X149865000Y-112650000D01*
X150065000Y-113500000D02*
X149865000Y-113500000D01*
X150065000Y-114300000D02*
X150065000Y-113500000D01*
X149865000Y-114300000D02*
X150065000Y-114300000D01*
X149865000Y-115050000D02*
X149865000Y-114300000D01*
X147515000Y-115050000D02*
X149865000Y-115050000D01*
X145165000Y-112650000D02*
X147515000Y-112650000D01*
X145165000Y-113500000D02*
X145165000Y-112650000D01*
X144965000Y-113500000D02*
X145165000Y-113500000D01*
X144965000Y-114300000D02*
X144965000Y-113500000D01*
X145165000Y-114300000D02*
X144965000Y-114300000D01*
X145165000Y-115050000D02*
X145165000Y-114300000D01*
X147515000Y-115050000D02*
X145165000Y-115050000D01*
X150375000Y-112140000D02*
X144655000Y-112140000D01*
X150375000Y-115560000D02*
X150375000Y-112140000D01*
X144655000Y-115560000D02*
X150375000Y-115560000D01*
X144655000Y-112140000D02*
X144655000Y-115560000D01*
X178215000Y-101240000D02*
X179215000Y-101240000D01*
X178215000Y-101240000D02*
X178215000Y-100240000D01*
X182465000Y-98040000D02*
X180740000Y-98040000D01*
X182465000Y-98890000D02*
X182465000Y-98040000D01*
X182665000Y-98890000D02*
X182465000Y-98890000D01*
X182665000Y-99690000D02*
X182665000Y-98890000D01*
X182465000Y-99690000D02*
X182665000Y-99690000D01*
X182465000Y-100440000D02*
X182465000Y-99690000D01*
X180740000Y-100440000D02*
X182465000Y-100440000D01*
X179015000Y-98040000D02*
X180740000Y-98040000D01*
X179015000Y-98890000D02*
X179015000Y-98040000D01*
X178815000Y-98890000D02*
X179015000Y-98890000D01*
X178815000Y-99690000D02*
X178815000Y-98890000D01*
X179015000Y-99690000D02*
X178815000Y-99690000D01*
X179015000Y-100440000D02*
X179015000Y-99690000D01*
X180740000Y-100440000D02*
X179015000Y-100440000D01*
X182975000Y-97530000D02*
X178505000Y-97530000D01*
X182975000Y-100950000D02*
X182975000Y-97530000D01*
X178505000Y-100950000D02*
X182975000Y-100950000D01*
X178505000Y-97530000D02*
X178505000Y-100950000D01*
X177170000Y-106960000D02*
X178170000Y-106960000D01*
X177170000Y-106960000D02*
X177170000Y-105960000D01*
X182670000Y-103760000D02*
X180320000Y-103760000D01*
X182670000Y-104610000D02*
X182670000Y-103760000D01*
X182870000Y-104610000D02*
X182670000Y-104610000D01*
X182870000Y-105410000D02*
X182870000Y-104610000D01*
X182670000Y-105410000D02*
X182870000Y-105410000D01*
X182670000Y-106160000D02*
X182670000Y-105410000D01*
X180320000Y-106160000D02*
X182670000Y-106160000D01*
X177970000Y-103760000D02*
X180320000Y-103760000D01*
X177970000Y-104610000D02*
X177970000Y-103760000D01*
X177770000Y-104610000D02*
X177970000Y-104610000D01*
X177770000Y-105410000D02*
X177770000Y-104610000D01*
X177970000Y-105410000D02*
X177770000Y-105410000D01*
X177970000Y-106160000D02*
X177970000Y-105410000D01*
X180320000Y-106160000D02*
X177970000Y-106160000D01*
X183180000Y-103250000D02*
X177460000Y-103250000D01*
X183180000Y-106670000D02*
X183180000Y-103250000D01*
X177460000Y-106670000D02*
X183180000Y-106670000D01*
X177460000Y-103250000D02*
X177460000Y-106670000D01*
X178440000Y-112040000D02*
X179440000Y-112040000D01*
X178440000Y-112040000D02*
X178440000Y-111040000D01*
X182690000Y-108840000D02*
X180965000Y-108840000D01*
X182690000Y-109690000D02*
X182690000Y-108840000D01*
X182890000Y-109690000D02*
X182690000Y-109690000D01*
X182890000Y-110490000D02*
X182890000Y-109690000D01*
X182690000Y-110490000D02*
X182890000Y-110490000D01*
X182690000Y-111240000D02*
X182690000Y-110490000D01*
X180965000Y-111240000D02*
X182690000Y-111240000D01*
X179240000Y-108840000D02*
X180965000Y-108840000D01*
X179240000Y-109690000D02*
X179240000Y-108840000D01*
X179040000Y-109690000D02*
X179240000Y-109690000D01*
X179040000Y-110490000D02*
X179040000Y-109690000D01*
X179240000Y-110490000D02*
X179040000Y-110490000D01*
X179240000Y-111240000D02*
X179240000Y-110490000D01*
X180965000Y-111240000D02*
X179240000Y-111240000D01*
X183200000Y-108330000D02*
X178730000Y-108330000D01*
X183200000Y-111750000D02*
X183200000Y-108330000D01*
X178730000Y-111750000D02*
X183200000Y-111750000D01*
X178730000Y-108330000D02*
X178730000Y-111750000D01*
D10*
X172904761Y-97547619D02*
X172809523Y-97500000D01*
X172714285Y-97404761D01*
X172571428Y-97261904D01*
X172476190Y-97214285D01*
X172380952Y-97214285D01*
X172428571Y-97452380D02*
X172333333Y-97404761D01*
X172238095Y-97309523D01*
X172190476Y-97119047D01*
X172190476Y-96785714D01*
X172238095Y-96595238D01*
X172333333Y-96500000D01*
X172428571Y-96452380D01*
X172619047Y-96452380D01*
X172714285Y-96500000D01*
X172809523Y-96595238D01*
X172857142Y-96785714D01*
X172857142Y-97119047D01*
X172809523Y-97309523D01*
X172714285Y-97404761D01*
X172619047Y-97452380D01*
X172428571Y-97452380D01*
X173809523Y-97452380D02*
X173238095Y-97452380D01*
X173523809Y-97452380D02*
X173523809Y-96452380D01*
X173428571Y-96595238D01*
X173333333Y-96690476D01*
X173238095Y-96738095D01*
X174333333Y-110857142D02*
X174285714Y-110904761D01*
X174142857Y-110952380D01*
X174047619Y-110952380D01*
X173904761Y-110904761D01*
X173809523Y-110809523D01*
X173761904Y-110714285D01*
X173714285Y-110523809D01*
X173714285Y-110380952D01*
X173761904Y-110190476D01*
X173809523Y-110095238D01*
X173904761Y-110000000D01*
X174047619Y-109952380D01*
X174142857Y-109952380D01*
X174285714Y-110000000D01*
X174333333Y-110047619D01*
X175285714Y-110952380D02*
X174714285Y-110952380D01*
X175000000Y-110952380D02*
X175000000Y-109952380D01*
X174904761Y-110095238D01*
X174809523Y-110190476D01*
X174714285Y-110238095D01*
X166666666Y-110952380D02*
X166666666Y-111666666D01*
X166619047Y-111809523D01*
X166523809Y-111904761D01*
X166380952Y-111952380D01*
X166285714Y-111952380D01*
X167190476Y-111952380D02*
X167380952Y-111952380D01*
X167476190Y-111904761D01*
X167523809Y-111857142D01*
X167619047Y-111714285D01*
X167666666Y-111523809D01*
X167666666Y-111142857D01*
X167619047Y-111047619D01*
X167571428Y-111000000D01*
X167476190Y-110952380D01*
X167285714Y-110952380D01*
X167190476Y-111000000D01*
X167142857Y-111047619D01*
X167095238Y-111142857D01*
X167095238Y-111380952D01*
X167142857Y-111476190D01*
X167190476Y-111523809D01*
X167285714Y-111571428D01*
X167476190Y-111571428D01*
X167571428Y-111523809D01*
X167619047Y-111476190D01*
X167666666Y-111380952D01*
X173833333Y-107952380D02*
X173500000Y-107476190D01*
X173261904Y-107952380D02*
X173261904Y-106952380D01*
X173642857Y-106952380D01*
X173738095Y-107000000D01*
X173785714Y-107047619D01*
X173833333Y-107142857D01*
X173833333Y-107285714D01*
X173785714Y-107380952D01*
X173738095Y-107428571D01*
X173642857Y-107476190D01*
X173261904Y-107476190D01*
X174404761Y-107380952D02*
X174309523Y-107333333D01*
X174261904Y-107285714D01*
X174214285Y-107190476D01*
X174214285Y-107142857D01*
X174261904Y-107047619D01*
X174309523Y-107000000D01*
X174404761Y-106952380D01*
X174595238Y-106952380D01*
X174690476Y-107000000D01*
X174738095Y-107047619D01*
X174785714Y-107142857D01*
X174785714Y-107190476D01*
X174738095Y-107285714D01*
X174690476Y-107333333D01*
X174595238Y-107380952D01*
X174404761Y-107380952D01*
X174309523Y-107428571D01*
X174261904Y-107476190D01*
X174214285Y-107571428D01*
X174214285Y-107761904D01*
X174261904Y-107857142D01*
X174309523Y-107904761D01*
X174404761Y-107952380D01*
X174595238Y-107952380D01*
X174690476Y-107904761D01*
X174738095Y-107857142D01*
X174785714Y-107761904D01*
X174785714Y-107571428D01*
X174738095Y-107476190D01*
X174690476Y-107428571D01*
X174595238Y-107380952D01*
X174166666Y-113452380D02*
X174166666Y-114166666D01*
X174119047Y-114309523D01*
X174023809Y-114404761D01*
X173880952Y-114452380D01*
X173785714Y-114452380D01*
X174595238Y-113547619D02*
X174642857Y-113500000D01*
X174738095Y-113452380D01*
X174976190Y-113452380D01*
X175071428Y-113500000D01*
X175119047Y-113547619D01*
X175166666Y-113642857D01*
X175166666Y-113738095D01*
X175119047Y-113880952D01*
X174547619Y-114452380D01*
X175166666Y-114452380D01*
X170761904Y-103952380D02*
X170761904Y-102952380D01*
X171000000Y-102952380D01*
X171142857Y-103000000D01*
X171238095Y-103095238D01*
X171285714Y-103190476D01*
X171333333Y-103380952D01*
X171333333Y-103523809D01*
X171285714Y-103714285D01*
X171238095Y-103809523D01*
X171142857Y-103904761D01*
X171000000Y-103952380D01*
X170761904Y-103952380D01*
X172285714Y-103952380D02*
X171714285Y-103952380D01*
X172000000Y-103952380D02*
X172000000Y-102952380D01*
X171904761Y-103095238D01*
X171809523Y-103190476D01*
X171714285Y-103238095D01*
X155122380Y-100563333D02*
X155836666Y-100563333D01*
X155979523Y-100610952D01*
X156074761Y-100706190D01*
X156122380Y-100849047D01*
X156122380Y-100944285D01*
X155550952Y-99944285D02*
X155503333Y-100039523D01*
X155455714Y-100087142D01*
X155360476Y-100134761D01*
X155312857Y-100134761D01*
X155217619Y-100087142D01*
X155170000Y-100039523D01*
X155122380Y-99944285D01*
X155122380Y-99753809D01*
X155170000Y-99658571D01*
X155217619Y-99610952D01*
X155312857Y-99563333D01*
X155360476Y-99563333D01*
X155455714Y-99610952D01*
X155503333Y-99658571D01*
X155550952Y-99753809D01*
X155550952Y-99944285D01*
X155598571Y-100039523D01*
X155646190Y-100087142D01*
X155741428Y-100134761D01*
X155931904Y-100134761D01*
X156027142Y-100087142D01*
X156074761Y-100039523D01*
X156122380Y-99944285D01*
X156122380Y-99753809D01*
X156074761Y-99658571D01*
X156027142Y-99610952D01*
X155931904Y-99563333D01*
X155741428Y-99563333D01*
X155646190Y-99610952D01*
X155598571Y-99658571D01*
X155550952Y-99753809D01*
X166190476Y-105452380D02*
X166190476Y-106166666D01*
X166142857Y-106309523D01*
X166047619Y-106404761D01*
X165904761Y-106452380D01*
X165809523Y-106452380D01*
X167190476Y-106452380D02*
X166619047Y-106452380D01*
X166904761Y-106452380D02*
X166904761Y-105452380D01*
X166809523Y-105595238D01*
X166714285Y-105690476D01*
X166619047Y-105738095D01*
X168142857Y-106452380D02*
X167571428Y-106452380D01*
X167857142Y-106452380D02*
X167857142Y-105452380D01*
X167761904Y-105595238D01*
X167666666Y-105690476D01*
X167571428Y-105738095D01*
X176333333Y-97452380D02*
X176000000Y-96976190D01*
X175761904Y-97452380D02*
X175761904Y-96452380D01*
X176142857Y-96452380D01*
X176238095Y-96500000D01*
X176285714Y-96547619D01*
X176333333Y-96642857D01*
X176333333Y-96785714D01*
X176285714Y-96880952D01*
X176238095Y-96928571D01*
X176142857Y-96976190D01*
X175761904Y-96976190D01*
X176714285Y-96547619D02*
X176761904Y-96500000D01*
X176857142Y-96452380D01*
X177095238Y-96452380D01*
X177190476Y-96500000D01*
X177238095Y-96547619D01*
X177285714Y-96642857D01*
X177285714Y-96738095D01*
X177238095Y-96880952D01*
X176666666Y-97452380D01*
X177285714Y-97452380D01*
X126952380Y-114333333D02*
X127666666Y-114333333D01*
X127809523Y-114380952D01*
X127904761Y-114476190D01*
X127952380Y-114619047D01*
X127952380Y-114714285D01*
X126952380Y-113428571D02*
X126952380Y-113619047D01*
X127000000Y-113714285D01*
X127047619Y-113761904D01*
X127190476Y-113857142D01*
X127380952Y-113904761D01*
X127761904Y-113904761D01*
X127857142Y-113857142D01*
X127904761Y-113809523D01*
X127952380Y-113714285D01*
X127952380Y-113523809D01*
X127904761Y-113428571D01*
X127857142Y-113380952D01*
X127761904Y-113333333D01*
X127523809Y-113333333D01*
X127428571Y-113380952D01*
X127380952Y-113428571D01*
X127333333Y-113523809D01*
X127333333Y-113714285D01*
X127380952Y-113809523D01*
X127428571Y-113857142D01*
X127523809Y-113904761D01*
X144122380Y-100809523D02*
X144836666Y-100809523D01*
X144979523Y-100857142D01*
X145074761Y-100952380D01*
X145122380Y-101095238D01*
X145122380Y-101190476D01*
X145122380Y-99809523D02*
X145122380Y-100380952D01*
X145122380Y-100095238D02*
X144122380Y-100095238D01*
X144265238Y-100190476D01*
X144360476Y-100285714D01*
X144408095Y-100380952D01*
X144122380Y-98952380D02*
X144122380Y-99142857D01*
X144170000Y-99238095D01*
X144217619Y-99285714D01*
X144360476Y-99380952D01*
X144550952Y-99428571D01*
X144931904Y-99428571D01*
X145027142Y-99380952D01*
X145074761Y-99333333D01*
X145122380Y-99238095D01*
X145122380Y-99047619D01*
X145074761Y-98952380D01*
X145027142Y-98904761D01*
X144931904Y-98857142D01*
X144693809Y-98857142D01*
X144598571Y-98904761D01*
X144550952Y-98952380D01*
X144503333Y-99047619D01*
X144503333Y-99238095D01*
X144550952Y-99333333D01*
X144598571Y-99380952D01*
X144693809Y-99428571D01*
X175833333Y-112952380D02*
X175500000Y-112476190D01*
X175261904Y-112952380D02*
X175261904Y-111952380D01*
X175642857Y-111952380D01*
X175738095Y-112000000D01*
X175785714Y-112047619D01*
X175833333Y-112142857D01*
X175833333Y-112285714D01*
X175785714Y-112380952D01*
X175738095Y-112428571D01*
X175642857Y-112476190D01*
X175261904Y-112476190D01*
X176166666Y-111952380D02*
X176785714Y-111952380D01*
X176452380Y-112333333D01*
X176595238Y-112333333D01*
X176690476Y-112380952D01*
X176738095Y-112428571D01*
X176785714Y-112523809D01*
X176785714Y-112761904D01*
X176738095Y-112857142D01*
X176690476Y-112904761D01*
X176595238Y-112952380D01*
X176309523Y-112952380D01*
X176214285Y-112904761D01*
X176166666Y-112857142D01*
X169833333Y-97452380D02*
X169500000Y-96976190D01*
X169261904Y-97452380D02*
X169261904Y-96452380D01*
X169642857Y-96452380D01*
X169738095Y-96500000D01*
X169785714Y-96547619D01*
X169833333Y-96642857D01*
X169833333Y-96785714D01*
X169785714Y-96880952D01*
X169738095Y-96928571D01*
X169642857Y-96976190D01*
X169261904Y-96976190D01*
X170785714Y-97452380D02*
X170214285Y-97452380D01*
X170500000Y-97452380D02*
X170500000Y-96452380D01*
X170404761Y-96595238D01*
X170309523Y-96690476D01*
X170214285Y-96738095D01*
X152833333Y-108452380D02*
X152500000Y-107976190D01*
X152261904Y-108452380D02*
X152261904Y-107452380D01*
X152642857Y-107452380D01*
X152738095Y-107500000D01*
X152785714Y-107547619D01*
X152833333Y-107642857D01*
X152833333Y-107785714D01*
X152785714Y-107880952D01*
X152738095Y-107928571D01*
X152642857Y-107976190D01*
X152261904Y-107976190D01*
X153166666Y-107452380D02*
X153833333Y-107452380D01*
X153404761Y-108452380D01*
X137333333Y-108452380D02*
X137000000Y-107976190D01*
X136761904Y-108452380D02*
X136761904Y-107452380D01*
X137142857Y-107452380D01*
X137238095Y-107500000D01*
X137285714Y-107547619D01*
X137333333Y-107642857D01*
X137333333Y-107785714D01*
X137285714Y-107880952D01*
X137238095Y-107928571D01*
X137142857Y-107976190D01*
X136761904Y-107976190D01*
X138190476Y-107452380D02*
X138000000Y-107452380D01*
X137904761Y-107500000D01*
X137857142Y-107547619D01*
X137761904Y-107690476D01*
X137714285Y-107880952D01*
X137714285Y-108261904D01*
X137761904Y-108357142D01*
X137809523Y-108404761D01*
X137904761Y-108452380D01*
X138095238Y-108452380D01*
X138190476Y-108404761D01*
X138238095Y-108357142D01*
X138285714Y-108261904D01*
X138285714Y-108023809D01*
X138238095Y-107928571D01*
X138190476Y-107880952D01*
X138095238Y-107833333D01*
X137904761Y-107833333D01*
X137809523Y-107880952D01*
X137761904Y-107928571D01*
X137714285Y-108023809D01*
X144833333Y-108452380D02*
X144500000Y-107976190D01*
X144261904Y-108452380D02*
X144261904Y-107452380D01*
X144642857Y-107452380D01*
X144738095Y-107500000D01*
X144785714Y-107547619D01*
X144833333Y-107642857D01*
X144833333Y-107785714D01*
X144785714Y-107880952D01*
X144738095Y-107928571D01*
X144642857Y-107976190D01*
X144261904Y-107976190D01*
X145738095Y-107452380D02*
X145261904Y-107452380D01*
X145214285Y-107928571D01*
X145261904Y-107880952D01*
X145357142Y-107833333D01*
X145595238Y-107833333D01*
X145690476Y-107880952D01*
X145738095Y-107928571D01*
X145785714Y-108023809D01*
X145785714Y-108261904D01*
X145738095Y-108357142D01*
X145690476Y-108404761D01*
X145595238Y-108452380D01*
X145357142Y-108452380D01*
X145261904Y-108404761D01*
X145214285Y-108357142D01*
X129333333Y-108452380D02*
X129000000Y-107976190D01*
X128761904Y-108452380D02*
X128761904Y-107452380D01*
X129142857Y-107452380D01*
X129238095Y-107500000D01*
X129285714Y-107547619D01*
X129333333Y-107642857D01*
X129333333Y-107785714D01*
X129285714Y-107880952D01*
X129238095Y-107928571D01*
X129142857Y-107976190D01*
X128761904Y-107976190D01*
X130190476Y-107785714D02*
X130190476Y-108452380D01*
X129952380Y-107404761D02*
X129714285Y-108119047D01*
X130333333Y-108119047D01*
X126452380Y-100809523D02*
X127166666Y-100809523D01*
X127309523Y-100857142D01*
X127404761Y-100952380D01*
X127452380Y-101095238D01*
X127452380Y-101190476D01*
X127452380Y-99809523D02*
X127452380Y-100380952D01*
X127452380Y-100095238D02*
X126452380Y-100095238D01*
X126595238Y-100190476D01*
X126690476Y-100285714D01*
X126738095Y-100380952D01*
X126452380Y-98904761D02*
X126452380Y-99380952D01*
X126928571Y-99428571D01*
X126880952Y-99380952D01*
X126833333Y-99285714D01*
X126833333Y-99047619D01*
X126880952Y-98952380D01*
X126928571Y-98904761D01*
X127023809Y-98857142D01*
X127261904Y-98857142D01*
X127357142Y-98904761D01*
X127404761Y-98952380D01*
X127452380Y-99047619D01*
X127452380Y-99285714D01*
X127404761Y-99380952D01*
X127357142Y-99428571D01*
X130472380Y-101079523D02*
X131186666Y-101079523D01*
X131329523Y-101127142D01*
X131424761Y-101222380D01*
X131472380Y-101365238D01*
X131472380Y-101460476D01*
X131472380Y-100079523D02*
X131472380Y-100650952D01*
X131472380Y-100365238D02*
X130472380Y-100365238D01*
X130615238Y-100460476D01*
X130710476Y-100555714D01*
X130758095Y-100650952D01*
X130805714Y-99222380D02*
X131472380Y-99222380D01*
X130424761Y-99460476D02*
X131139047Y-99698571D01*
X131139047Y-99079523D01*
X150952380Y-114809523D02*
X151666666Y-114809523D01*
X151809523Y-114857142D01*
X151904761Y-114952380D01*
X151952380Y-115095238D01*
X151952380Y-115190476D01*
X151952380Y-113809523D02*
X151952380Y-114380952D01*
X151952380Y-114095238D02*
X150952380Y-114095238D01*
X151095238Y-114190476D01*
X151190476Y-114285714D01*
X151238095Y-114380952D01*
X150952380Y-113476190D02*
X150952380Y-112857142D01*
X151333333Y-113190476D01*
X151333333Y-113047619D01*
X151380952Y-112952380D01*
X151428571Y-112904761D01*
X151523809Y-112857142D01*
X151761904Y-112857142D01*
X151857142Y-112904761D01*
X151904761Y-112952380D01*
X151952380Y-113047619D01*
X151952380Y-113333333D01*
X151904761Y-113428571D01*
X151857142Y-113476190D01*
X134952380Y-114809523D02*
X135666666Y-114809523D01*
X135809523Y-114857142D01*
X135904761Y-114952380D01*
X135952380Y-115095238D01*
X135952380Y-115190476D01*
X135952380Y-113809523D02*
X135952380Y-114380952D01*
X135952380Y-114095238D02*
X134952380Y-114095238D01*
X135095238Y-114190476D01*
X135190476Y-114285714D01*
X135238095Y-114380952D01*
X135047619Y-113428571D02*
X135000000Y-113380952D01*
X134952380Y-113285714D01*
X134952380Y-113047619D01*
X135000000Y-112952380D01*
X135047619Y-112904761D01*
X135142857Y-112857142D01*
X135238095Y-112857142D01*
X135380952Y-112904761D01*
X135952380Y-113476190D01*
X135952380Y-112857142D01*
X126452380Y-108559523D02*
X127166666Y-108559523D01*
X127309523Y-108607142D01*
X127404761Y-108702380D01*
X127452380Y-108845238D01*
X127452380Y-108940476D01*
X127452380Y-107559523D02*
X127452380Y-108130952D01*
X127452380Y-107845238D02*
X126452380Y-107845238D01*
X126595238Y-107940476D01*
X126690476Y-108035714D01*
X126738095Y-108130952D01*
X126452380Y-106940476D02*
X126452380Y-106845238D01*
X126500000Y-106750000D01*
X126547619Y-106702380D01*
X126642857Y-106654761D01*
X126833333Y-106607142D01*
X127071428Y-106607142D01*
X127261904Y-106654761D01*
X127357142Y-106702380D01*
X127404761Y-106750000D01*
X127452380Y-106845238D01*
X127452380Y-106940476D01*
X127404761Y-107035714D01*
X127357142Y-107083333D01*
X127261904Y-107130952D01*
X127071428Y-107178571D01*
X126833333Y-107178571D01*
X126642857Y-107130952D01*
X126547619Y-107083333D01*
X126500000Y-107035714D01*
X126452380Y-106940476D01*
X142952380Y-114333333D02*
X143666666Y-114333333D01*
X143809523Y-114380952D01*
X143904761Y-114476190D01*
X143952380Y-114619047D01*
X143952380Y-114714285D01*
X142952380Y-113952380D02*
X142952380Y-113285714D01*
X143952380Y-113714285D01*
X177166666Y-101452380D02*
X177166666Y-102166666D01*
X177119047Y-102309523D01*
X177023809Y-102404761D01*
X176880952Y-102452380D01*
X176785714Y-102452380D01*
X178071428Y-101785714D02*
X178071428Y-102452380D01*
X177833333Y-101404761D02*
X177595238Y-102119047D01*
X178214285Y-102119047D01*
X175666666Y-106452380D02*
X175666666Y-107166666D01*
X175619047Y-107309523D01*
X175523809Y-107404761D01*
X175380952Y-107452380D01*
X175285714Y-107452380D01*
X176047619Y-106452380D02*
X176666666Y-106452380D01*
X176333333Y-106833333D01*
X176476190Y-106833333D01*
X176571428Y-106880952D01*
X176619047Y-106928571D01*
X176666666Y-107023809D01*
X176666666Y-107261904D01*
X176619047Y-107357142D01*
X176571428Y-107404761D01*
X176476190Y-107452380D01*
X176190476Y-107452380D01*
X176095238Y-107404761D01*
X176047619Y-107357142D01*
X177666666Y-112452380D02*
X177666666Y-113166666D01*
X177619047Y-113309523D01*
X177523809Y-113404761D01*
X177380952Y-113452380D01*
X177285714Y-113452380D01*
X178666666Y-113452380D02*
X178095238Y-113452380D01*
X178380952Y-113452380D02*
X178380952Y-112452380D01*
X178285714Y-112595238D01*
X178190476Y-112690476D01*
X178095238Y-112738095D01*
%LPC*%
G36*
G01*
X173584000Y-100090000D02*
X173584000Y-99290000D01*
G75*
G02*
X173635000Y-99239000I51000J0D01*
G01*
X174535000Y-99239000D01*
G75*
G02*
X174586000Y-99290000I0J-51000D01*
G01*
X174586000Y-100090000D01*
G75*
G02*
X174535000Y-100141000I-51000J0D01*
G01*
X173635000Y-100141000D01*
G75*
G02*
X173584000Y-100090000I0J51000D01*
G01*
G37*
G36*
G01*
X171584000Y-101040000D02*
X171584000Y-100240000D01*
G75*
G02*
X171635000Y-100189000I51000J0D01*
G01*
X172535000Y-100189000D01*
G75*
G02*
X172586000Y-100240000I0J-51000D01*
G01*
X172586000Y-101040000D01*
G75*
G02*
X172535000Y-101091000I-51000J0D01*
G01*
X171635000Y-101091000D01*
G75*
G02*
X171584000Y-101040000I0J51000D01*
G01*
G37*
G36*
G01*
X171584000Y-99140000D02*
X171584000Y-98340000D01*
G75*
G02*
X171635000Y-98289000I51000J0D01*
G01*
X172535000Y-98289000D01*
G75*
G02*
X172586000Y-98340000I0J-51000D01*
G01*
X172586000Y-99140000D01*
G75*
G02*
X172535000Y-99191000I-51000J0D01*
G01*
X171635000Y-99191000D01*
G75*
G02*
X171584000Y-99140000I0J51000D01*
G01*
G37*
G36*
G01*
X171861500Y-110956756D02*
X171861500Y-109043244D01*
G75*
G02*
X172130744Y-108774000I269244J0D01*
G01*
X173019256Y-108774000D01*
G75*
G02*
X173288500Y-109043244I0J-269244D01*
G01*
X173288500Y-110956756D01*
G75*
G02*
X173019256Y-111226000I-269244J0D01*
G01*
X172130744Y-111226000D01*
G75*
G02*
X171861500Y-110956756I0J269244D01*
G01*
G37*
G36*
G01*
X168786500Y-110956756D02*
X168786500Y-109043244D01*
G75*
G02*
X169055744Y-108774000I269244J0D01*
G01*
X169944256Y-108774000D01*
G75*
G02*
X170213500Y-109043244I0J-269244D01*
G01*
X170213500Y-110956756D01*
G75*
G02*
X169944256Y-111226000I-269244J0D01*
G01*
X169055744Y-111226000D01*
G75*
G02*
X168786500Y-110956756I0J269244D01*
G01*
G37*
D14*
X181500000Y-92500000D03*
X123500000Y-115500000D03*
X123500000Y-92500000D03*
X181500000Y-115500000D03*
D15*
X165840000Y-114280000D03*
X164590000Y-114280000D03*
X163340000Y-114280000D03*
G36*
G01*
X161639000Y-114755500D02*
X161639000Y-113804500D01*
G75*
G02*
X161864500Y-113579000I225500J0D01*
G01*
X162315500Y-113579000D01*
G75*
G02*
X162541000Y-113804500I0J-225500D01*
G01*
X162541000Y-114755500D01*
G75*
G02*
X162315500Y-114981000I-225500J0D01*
G01*
X161864500Y-114981000D01*
G75*
G02*
X161639000Y-114755500I0J225500D01*
G01*
G37*
G36*
G01*
X169899000Y-107800500D02*
X169899000Y-107199500D01*
G75*
G02*
X170124500Y-106974000I225500J0D01*
G01*
X170575500Y-106974000D01*
G75*
G02*
X170801000Y-107199500I0J-225500D01*
G01*
X170801000Y-107800500D01*
G75*
G02*
X170575500Y-108026000I-225500J0D01*
G01*
X170124500Y-108026000D01*
G75*
G02*
X169899000Y-107800500I0J225500D01*
G01*
G37*
G36*
G01*
X171549000Y-107800500D02*
X171549000Y-107199500D01*
G75*
G02*
X171774500Y-106974000I225500J0D01*
G01*
X172225500Y-106974000D01*
G75*
G02*
X172451000Y-107199500I0J-225500D01*
G01*
X172451000Y-107800500D01*
G75*
G02*
X172225500Y-108026000I-225500J0D01*
G01*
X171774500Y-108026000D01*
G75*
G02*
X171549000Y-107800500I0J225500D01*
G01*
G37*
X171750000Y-114280000D03*
G36*
G01*
X170049000Y-114755500D02*
X170049000Y-113804500D01*
G75*
G02*
X170274500Y-113579000I225500J0D01*
G01*
X170725500Y-113579000D01*
G75*
G02*
X170951000Y-113804500I0J-225500D01*
G01*
X170951000Y-114755500D01*
G75*
G02*
X170725500Y-114981000I-225500J0D01*
G01*
X170274500Y-114981000D01*
G75*
G02*
X170049000Y-114755500I0J225500D01*
G01*
G37*
G36*
G01*
X172488500Y-105218250D02*
X172488500Y-105781750D01*
G75*
G02*
X172244250Y-106026000I-244250J0D01*
G01*
X171755750Y-106026000D01*
G75*
G02*
X171511500Y-105781750I0J244250D01*
G01*
X171511500Y-105218250D01*
G75*
G02*
X171755750Y-104974000I244250J0D01*
G01*
X172244250Y-104974000D01*
G75*
G02*
X172488500Y-105218250I0J-244250D01*
G01*
G37*
G36*
G01*
X170913500Y-105218250D02*
X170913500Y-105781750D01*
G75*
G02*
X170669250Y-106026000I-244250J0D01*
G01*
X170180750Y-106026000D01*
G75*
G02*
X169936500Y-105781750I0J244250D01*
G01*
X169936500Y-105218250D01*
G75*
G02*
X170180750Y-104974000I244250J0D01*
G01*
X170669250Y-104974000D01*
G75*
G02*
X170913500Y-105218250I0J-244250D01*
G01*
G37*
D16*
X163080000Y-98960000D03*
X163080000Y-101500000D03*
X160540000Y-98960000D03*
X160540000Y-101500000D03*
X158000000Y-98960000D03*
G36*
G01*
X158850000Y-102401000D02*
X157150000Y-102401000D01*
G75*
G02*
X157099000Y-102350000I0J51000D01*
G01*
X157099000Y-100650000D01*
G75*
G02*
X157150000Y-100599000I51000J0D01*
G01*
X158850000Y-100599000D01*
G75*
G02*
X158901000Y-100650000I0J-51000D01*
G01*
X158901000Y-102350000D01*
G75*
G02*
X158850000Y-102401000I-51000J0D01*
G01*
G37*
D15*
X165840000Y-109030000D03*
X164590000Y-109030000D03*
X163340000Y-109030000D03*
G36*
G01*
X161639000Y-109505500D02*
X161639000Y-108554500D01*
G75*
G02*
X161864500Y-108329000I225500J0D01*
G01*
X162315500Y-108329000D01*
G75*
G02*
X162541000Y-108554500I0J-225500D01*
G01*
X162541000Y-109505500D01*
G75*
G02*
X162315500Y-109731000I-225500J0D01*
G01*
X161864500Y-109731000D01*
G75*
G02*
X161639000Y-109505500I0J225500D01*
G01*
G37*
G36*
G01*
X176229500Y-99879000D02*
X176830500Y-99879000D01*
G75*
G02*
X177056000Y-100104500I0J-225500D01*
G01*
X177056000Y-100555500D01*
G75*
G02*
X176830500Y-100781000I-225500J0D01*
G01*
X176229500Y-100781000D01*
G75*
G02*
X176004000Y-100555500I0J225500D01*
G01*
X176004000Y-100104500D01*
G75*
G02*
X176229500Y-99879000I225500J0D01*
G01*
G37*
G36*
G01*
X176229500Y-98229000D02*
X176830500Y-98229000D01*
G75*
G02*
X177056000Y-98454500I0J-225500D01*
G01*
X177056000Y-98905500D01*
G75*
G02*
X176830500Y-99131000I-225500J0D01*
G01*
X176229500Y-99131000D01*
G75*
G02*
X176004000Y-98905500I0J225500D01*
G01*
X176004000Y-98454500D01*
G75*
G02*
X176229500Y-98229000I225500J0D01*
G01*
G37*
G36*
G01*
X130034000Y-114775500D02*
X130034000Y-113824500D01*
G75*
G02*
X130259500Y-113599000I225500J0D01*
G01*
X130710500Y-113599000D01*
G75*
G02*
X130936000Y-113824500I0J-225500D01*
G01*
X130936000Y-114775500D01*
G75*
G02*
X130710500Y-115001000I-225500J0D01*
G01*
X130259500Y-115001000D01*
G75*
G02*
X130034000Y-114775500I0J225500D01*
G01*
G37*
X131735000Y-114300000D03*
X132985000Y-114300000D03*
D16*
X176660000Y-91250000D03*
X176660000Y-93790000D03*
X174120000Y-91250000D03*
X174120000Y-93790000D03*
X171580000Y-91250000D03*
X171580000Y-93790000D03*
X169040000Y-91250000D03*
X169040000Y-93790000D03*
X166500000Y-91250000D03*
X166500000Y-93790000D03*
X163960000Y-91250000D03*
X163960000Y-93790000D03*
X161420000Y-91250000D03*
X161420000Y-93790000D03*
X158880000Y-91250000D03*
X158880000Y-93790000D03*
X156340000Y-91250000D03*
X156340000Y-93790000D03*
X153800000Y-91250000D03*
X153800000Y-93790000D03*
X151260000Y-91250000D03*
X151260000Y-93790000D03*
X148720000Y-91250000D03*
X148720000Y-93790000D03*
X146180000Y-91250000D03*
X146180000Y-93790000D03*
X143640000Y-91250000D03*
X143640000Y-93790000D03*
X141100000Y-91250000D03*
X141100000Y-93790000D03*
X138560000Y-91250000D03*
X138560000Y-93790000D03*
X136020000Y-91250000D03*
X136020000Y-93790000D03*
X133480000Y-91250000D03*
X133480000Y-93790000D03*
X130940000Y-91250000D03*
X130940000Y-93790000D03*
X128400000Y-91250000D03*
G36*
G01*
X127550000Y-92889000D02*
X129250000Y-92889000D01*
G75*
G02*
X129301000Y-92940000I0J-51000D01*
G01*
X129301000Y-94640000D01*
G75*
G02*
X129250000Y-94691000I-51000J0D01*
G01*
X127550000Y-94691000D01*
G75*
G02*
X127499000Y-94640000I0J51000D01*
G01*
X127499000Y-92940000D01*
G75*
G02*
X127550000Y-92889000I51000J0D01*
G01*
G37*
X152080000Y-100000000D03*
X149540000Y-100000000D03*
G36*
G01*
X147850000Y-100901000D02*
X146150000Y-100901000D01*
G75*
G02*
X146099000Y-100850000I0J51000D01*
G01*
X146099000Y-99150000D01*
G75*
G02*
X146150000Y-99099000I51000J0D01*
G01*
X147850000Y-99099000D01*
G75*
G02*
X147901000Y-99150000I0J-51000D01*
G01*
X147901000Y-100850000D01*
G75*
G02*
X147850000Y-100901000I-51000J0D01*
G01*
G37*
G36*
G01*
X176800500Y-109951000D02*
X176199500Y-109951000D01*
G75*
G02*
X175974000Y-109725500I0J225500D01*
G01*
X175974000Y-109274500D01*
G75*
G02*
X176199500Y-109049000I225500J0D01*
G01*
X176800500Y-109049000D01*
G75*
G02*
X177026000Y-109274500I0J-225500D01*
G01*
X177026000Y-109725500D01*
G75*
G02*
X176800500Y-109951000I-225500J0D01*
G01*
G37*
G36*
G01*
X176800500Y-111601000D02*
X176199500Y-111601000D01*
G75*
G02*
X175974000Y-111375500I0J225500D01*
G01*
X175974000Y-110924500D01*
G75*
G02*
X176199500Y-110699000I225500J0D01*
G01*
X176800500Y-110699000D01*
G75*
G02*
X177026000Y-110924500I0J-225500D01*
G01*
X177026000Y-111375500D01*
G75*
G02*
X176800500Y-111601000I-225500J0D01*
G01*
G37*
G36*
G01*
X169879500Y-99879000D02*
X170480500Y-99879000D01*
G75*
G02*
X170706000Y-100104500I0J-225500D01*
G01*
X170706000Y-100555500D01*
G75*
G02*
X170480500Y-100781000I-225500J0D01*
G01*
X169879500Y-100781000D01*
G75*
G02*
X169654000Y-100555500I0J225500D01*
G01*
X169654000Y-100104500D01*
G75*
G02*
X169879500Y-99879000I225500J0D01*
G01*
G37*
G36*
G01*
X169879500Y-98229000D02*
X170480500Y-98229000D01*
G75*
G02*
X170706000Y-98454500I0J-225500D01*
G01*
X170706000Y-98905500D01*
G75*
G02*
X170480500Y-99131000I-225500J0D01*
G01*
X169879500Y-99131000D01*
G75*
G02*
X169654000Y-98905500I0J225500D01*
G01*
X169654000Y-98454500D01*
G75*
G02*
X169879500Y-98229000I225500J0D01*
G01*
G37*
G36*
G01*
X154731665Y-108606500D02*
X156038335Y-108606500D01*
G75*
G02*
X156311000Y-108879165I0J-272665D01*
G01*
X156311000Y-109560835D01*
G75*
G02*
X156038335Y-109833500I-272665J0D01*
G01*
X154731665Y-109833500D01*
G75*
G02*
X154459000Y-109560835I0J272665D01*
G01*
X154459000Y-108879165D01*
G75*
G02*
X154731665Y-108606500I272665J0D01*
G01*
G37*
G36*
G01*
X154731665Y-105681500D02*
X156038335Y-105681500D01*
G75*
G02*
X156311000Y-105954165I0J-272665D01*
G01*
X156311000Y-106635835D01*
G75*
G02*
X156038335Y-106908500I-272665J0D01*
G01*
X154731665Y-106908500D01*
G75*
G02*
X154459000Y-106635835I0J272665D01*
G01*
X154459000Y-105954165D01*
G75*
G02*
X154731665Y-105681500I272665J0D01*
G01*
G37*
G36*
G01*
X138951665Y-108606500D02*
X140258335Y-108606500D01*
G75*
G02*
X140531000Y-108879165I0J-272665D01*
G01*
X140531000Y-109560835D01*
G75*
G02*
X140258335Y-109833500I-272665J0D01*
G01*
X138951665Y-109833500D01*
G75*
G02*
X138679000Y-109560835I0J272665D01*
G01*
X138679000Y-108879165D01*
G75*
G02*
X138951665Y-108606500I272665J0D01*
G01*
G37*
G36*
G01*
X138951665Y-105681500D02*
X140258335Y-105681500D01*
G75*
G02*
X140531000Y-105954165I0J-272665D01*
G01*
X140531000Y-106635835D01*
G75*
G02*
X140258335Y-106908500I-272665J0D01*
G01*
X138951665Y-106908500D01*
G75*
G02*
X138679000Y-106635835I0J272665D01*
G01*
X138679000Y-105954165D01*
G75*
G02*
X138951665Y-105681500I272665J0D01*
G01*
G37*
G36*
G01*
X146841665Y-108606500D02*
X148148335Y-108606500D01*
G75*
G02*
X148421000Y-108879165I0J-272665D01*
G01*
X148421000Y-109560835D01*
G75*
G02*
X148148335Y-109833500I-272665J0D01*
G01*
X146841665Y-109833500D01*
G75*
G02*
X146569000Y-109560835I0J272665D01*
G01*
X146569000Y-108879165D01*
G75*
G02*
X146841665Y-108606500I272665J0D01*
G01*
G37*
G36*
G01*
X146841665Y-105681500D02*
X148148335Y-105681500D01*
G75*
G02*
X148421000Y-105954165I0J-272665D01*
G01*
X148421000Y-106635835D01*
G75*
G02*
X148148335Y-106908500I-272665J0D01*
G01*
X146841665Y-106908500D01*
G75*
G02*
X146569000Y-106635835I0J272665D01*
G01*
X146569000Y-105954165D01*
G75*
G02*
X146841665Y-105681500I272665J0D01*
G01*
G37*
G36*
G01*
X131061665Y-108606500D02*
X132368335Y-108606500D01*
G75*
G02*
X132641000Y-108879165I0J-272665D01*
G01*
X132641000Y-109560835D01*
G75*
G02*
X132368335Y-109833500I-272665J0D01*
G01*
X131061665Y-109833500D01*
G75*
G02*
X130789000Y-109560835I0J272665D01*
G01*
X130789000Y-108879165D01*
G75*
G02*
X131061665Y-108606500I272665J0D01*
G01*
G37*
G36*
G01*
X131061665Y-105681500D02*
X132368335Y-105681500D01*
G75*
G02*
X132641000Y-105954165I0J-272665D01*
G01*
X132641000Y-106635835D01*
G75*
G02*
X132368335Y-106908500I-272665J0D01*
G01*
X131061665Y-106908500D01*
G75*
G02*
X130789000Y-106635835I0J272665D01*
G01*
X130789000Y-105954165D01*
G75*
G02*
X131061665Y-105681500I272665J0D01*
G01*
G37*
D17*
X124500000Y-98500000D03*
X124500000Y-99750000D03*
G36*
G01*
X124975500Y-101451000D02*
X124024500Y-101451000D01*
G75*
G02*
X123799000Y-101225500I0J225500D01*
G01*
X123799000Y-100774500D01*
G75*
G02*
X124024500Y-100549000I225500J0D01*
G01*
X124975500Y-100549000D01*
G75*
G02*
X125201000Y-100774500I0J-225500D01*
G01*
X125201000Y-101225500D01*
G75*
G02*
X124975500Y-101451000I-225500J0D01*
G01*
G37*
D16*
X140970000Y-99000000D03*
X140970000Y-101540000D03*
X138430000Y-99000000D03*
X138430000Y-101540000D03*
X135890000Y-99000000D03*
X135890000Y-101540000D03*
X133350000Y-99000000D03*
G36*
G01*
X134200000Y-102441000D02*
X132500000Y-102441000D01*
G75*
G02*
X132449000Y-102390000I0J51000D01*
G01*
X132449000Y-100690000D01*
G75*
G02*
X132500000Y-100639000I51000J0D01*
G01*
X134200000Y-100639000D01*
G75*
G02*
X134251000Y-100690000I0J-51000D01*
G01*
X134251000Y-102390000D01*
G75*
G02*
X134200000Y-102441000I-51000J0D01*
G01*
G37*
D15*
X156655000Y-114300000D03*
X155405000Y-114300000D03*
G36*
G01*
X153704000Y-114775500D02*
X153704000Y-113824500D01*
G75*
G02*
X153929500Y-113599000I225500J0D01*
G01*
X154380500Y-113599000D01*
G75*
G02*
X154606000Y-113824500I0J-225500D01*
G01*
X154606000Y-114775500D01*
G75*
G02*
X154380500Y-115001000I-225500J0D01*
G01*
X153929500Y-115001000D01*
G75*
G02*
X153704000Y-114775500I0J225500D01*
G01*
G37*
X140855000Y-114300000D03*
X139605000Y-114300000D03*
G36*
G01*
X137904000Y-114775500D02*
X137904000Y-113824500D01*
G75*
G02*
X138129500Y-113599000I225500J0D01*
G01*
X138580500Y-113599000D01*
G75*
G02*
X138806000Y-113824500I0J-225500D01*
G01*
X138806000Y-114775500D01*
G75*
G02*
X138580500Y-115001000I-225500J0D01*
G01*
X138129500Y-115001000D01*
G75*
G02*
X137904000Y-114775500I0J225500D01*
G01*
G37*
D17*
X124500000Y-106500000D03*
X124500000Y-107750000D03*
G36*
G01*
X124975500Y-109451000D02*
X124024500Y-109451000D01*
G75*
G02*
X123799000Y-109225500I0J225500D01*
G01*
X123799000Y-108774500D01*
G75*
G02*
X124024500Y-108549000I225500J0D01*
G01*
X124975500Y-108549000D01*
G75*
G02*
X125201000Y-108774500I0J-225500D01*
G01*
X125201000Y-109225500D01*
G75*
G02*
X124975500Y-109451000I-225500J0D01*
G01*
G37*
D15*
X148765000Y-114300000D03*
X147515000Y-114300000D03*
G36*
G01*
X145814000Y-114775500D02*
X145814000Y-113824500D01*
G75*
G02*
X146039500Y-113599000I225500J0D01*
G01*
X146490500Y-113599000D01*
G75*
G02*
X146716000Y-113824500I0J-225500D01*
G01*
X146716000Y-114775500D01*
G75*
G02*
X146490500Y-115001000I-225500J0D01*
G01*
X146039500Y-115001000D01*
G75*
G02*
X145814000Y-114775500I0J225500D01*
G01*
G37*
X181365000Y-99690000D03*
G36*
G01*
X179664000Y-100165500D02*
X179664000Y-99214500D01*
G75*
G02*
X179889500Y-98989000I225500J0D01*
G01*
X180340500Y-98989000D01*
G75*
G02*
X180566000Y-99214500I0J-225500D01*
G01*
X180566000Y-100165500D01*
G75*
G02*
X180340500Y-100391000I-225500J0D01*
G01*
X179889500Y-100391000D01*
G75*
G02*
X179664000Y-100165500I0J225500D01*
G01*
G37*
X181570000Y-105410000D03*
X180320000Y-105410000D03*
G36*
G01*
X178619000Y-105885500D02*
X178619000Y-104934500D01*
G75*
G02*
X178844500Y-104709000I225500J0D01*
G01*
X179295500Y-104709000D01*
G75*
G02*
X179521000Y-104934500I0J-225500D01*
G01*
X179521000Y-105885500D01*
G75*
G02*
X179295500Y-106111000I-225500J0D01*
G01*
X178844500Y-106111000D01*
G75*
G02*
X178619000Y-105885500I0J225500D01*
G01*
G37*
X181590000Y-110490000D03*
G36*
G01*
X179889000Y-110965500D02*
X179889000Y-110014500D01*
G75*
G02*
X180114500Y-109789000I225500J0D01*
G01*
X180565500Y-109789000D01*
G75*
G02*
X180791000Y-110014500I0J-225500D01*
G01*
X180791000Y-110965500D01*
G75*
G02*
X180565500Y-111191000I-225500J0D01*
G01*
X180114500Y-111191000D01*
G75*
G02*
X179889000Y-110965500I0J225500D01*
G01*
G37*
M02*
