%TF.GenerationSoftware,KiCad,Pcbnew,5.1.10-88a1d61d58~88~ubuntu20.04.1*%
%TF.CreationDate,2021-05-10T23:55:53-04:00*%
%TF.ProjectId,reminder-mainboard,72656d69-6e64-4657-922d-6d61696e626f,rev?*%
%TF.SameCoordinates,Original*%
%TF.FileFunction,Soldermask,Top*%
%TF.FilePolarity,Negative*%
%FSLAX46Y46*%
G04 Gerber Fmt 4.6, Leading zero omitted, Abs format (unit mm)*
G04 Created by KiCad (PCBNEW 5.1.10-88a1d61d58~88~ubuntu20.04.1) date 2021-05-10 23:55:53*
%MOMM*%
%LPD*%
G01*
G04 APERTURE LIST*
%ADD10C,2.802000*%
%ADD11O,0.902000X1.402000*%
%ADD12O,1.802000X1.802000*%
%ADD13O,1.402000X0.902000*%
G04 APERTURE END LIST*
G36*
G01*
X173584000Y-100090000D02*
X173584000Y-99290000D01*
G75*
G02*
X173635000Y-99239000I51000J0D01*
G01*
X174535000Y-99239000D01*
G75*
G02*
X174586000Y-99290000I0J-51000D01*
G01*
X174586000Y-100090000D01*
G75*
G02*
X174535000Y-100141000I-51000J0D01*
G01*
X173635000Y-100141000D01*
G75*
G02*
X173584000Y-100090000I0J51000D01*
G01*
G37*
G36*
G01*
X171584000Y-101040000D02*
X171584000Y-100240000D01*
G75*
G02*
X171635000Y-100189000I51000J0D01*
G01*
X172535000Y-100189000D01*
G75*
G02*
X172586000Y-100240000I0J-51000D01*
G01*
X172586000Y-101040000D01*
G75*
G02*
X172535000Y-101091000I-51000J0D01*
G01*
X171635000Y-101091000D01*
G75*
G02*
X171584000Y-101040000I0J51000D01*
G01*
G37*
G36*
G01*
X171584000Y-99140000D02*
X171584000Y-98340000D01*
G75*
G02*
X171635000Y-98289000I51000J0D01*
G01*
X172535000Y-98289000D01*
G75*
G02*
X172586000Y-98340000I0J-51000D01*
G01*
X172586000Y-99140000D01*
G75*
G02*
X172535000Y-99191000I-51000J0D01*
G01*
X171635000Y-99191000D01*
G75*
G02*
X171584000Y-99140000I0J51000D01*
G01*
G37*
G36*
G01*
X171861500Y-110956756D02*
X171861500Y-109043244D01*
G75*
G02*
X172130744Y-108774000I269244J0D01*
G01*
X173019256Y-108774000D01*
G75*
G02*
X173288500Y-109043244I0J-269244D01*
G01*
X173288500Y-110956756D01*
G75*
G02*
X173019256Y-111226000I-269244J0D01*
G01*
X172130744Y-111226000D01*
G75*
G02*
X171861500Y-110956756I0J269244D01*
G01*
G37*
G36*
G01*
X168786500Y-110956756D02*
X168786500Y-109043244D01*
G75*
G02*
X169055744Y-108774000I269244J0D01*
G01*
X169944256Y-108774000D01*
G75*
G02*
X170213500Y-109043244I0J-269244D01*
G01*
X170213500Y-110956756D01*
G75*
G02*
X169944256Y-111226000I-269244J0D01*
G01*
X169055744Y-111226000D01*
G75*
G02*
X168786500Y-110956756I0J269244D01*
G01*
G37*
D10*
X181500000Y-92500000D03*
X123500000Y-115500000D03*
X123500000Y-92500000D03*
X181500000Y-115500000D03*
D11*
X165840000Y-114280000D03*
X164590000Y-114280000D03*
X163340000Y-114280000D03*
G36*
G01*
X161639000Y-114755500D02*
X161639000Y-113804500D01*
G75*
G02*
X161864500Y-113579000I225500J0D01*
G01*
X162315500Y-113579000D01*
G75*
G02*
X162541000Y-113804500I0J-225500D01*
G01*
X162541000Y-114755500D01*
G75*
G02*
X162315500Y-114981000I-225500J0D01*
G01*
X161864500Y-114981000D01*
G75*
G02*
X161639000Y-114755500I0J225500D01*
G01*
G37*
G36*
G01*
X169899000Y-107800500D02*
X169899000Y-107199500D01*
G75*
G02*
X170124500Y-106974000I225500J0D01*
G01*
X170575500Y-106974000D01*
G75*
G02*
X170801000Y-107199500I0J-225500D01*
G01*
X170801000Y-107800500D01*
G75*
G02*
X170575500Y-108026000I-225500J0D01*
G01*
X170124500Y-108026000D01*
G75*
G02*
X169899000Y-107800500I0J225500D01*
G01*
G37*
G36*
G01*
X171549000Y-107800500D02*
X171549000Y-107199500D01*
G75*
G02*
X171774500Y-106974000I225500J0D01*
G01*
X172225500Y-106974000D01*
G75*
G02*
X172451000Y-107199500I0J-225500D01*
G01*
X172451000Y-107800500D01*
G75*
G02*
X172225500Y-108026000I-225500J0D01*
G01*
X171774500Y-108026000D01*
G75*
G02*
X171549000Y-107800500I0J225500D01*
G01*
G37*
X171750000Y-114280000D03*
G36*
G01*
X170049000Y-114755500D02*
X170049000Y-113804500D01*
G75*
G02*
X170274500Y-113579000I225500J0D01*
G01*
X170725500Y-113579000D01*
G75*
G02*
X170951000Y-113804500I0J-225500D01*
G01*
X170951000Y-114755500D01*
G75*
G02*
X170725500Y-114981000I-225500J0D01*
G01*
X170274500Y-114981000D01*
G75*
G02*
X170049000Y-114755500I0J225500D01*
G01*
G37*
G36*
G01*
X172488500Y-105218250D02*
X172488500Y-105781750D01*
G75*
G02*
X172244250Y-106026000I-244250J0D01*
G01*
X171755750Y-106026000D01*
G75*
G02*
X171511500Y-105781750I0J244250D01*
G01*
X171511500Y-105218250D01*
G75*
G02*
X171755750Y-104974000I244250J0D01*
G01*
X172244250Y-104974000D01*
G75*
G02*
X172488500Y-105218250I0J-244250D01*
G01*
G37*
G36*
G01*
X170913500Y-105218250D02*
X170913500Y-105781750D01*
G75*
G02*
X170669250Y-106026000I-244250J0D01*
G01*
X170180750Y-106026000D01*
G75*
G02*
X169936500Y-105781750I0J244250D01*
G01*
X169936500Y-105218250D01*
G75*
G02*
X170180750Y-104974000I244250J0D01*
G01*
X170669250Y-104974000D01*
G75*
G02*
X170913500Y-105218250I0J-244250D01*
G01*
G37*
D12*
X163080000Y-98960000D03*
X163080000Y-101500000D03*
X160540000Y-98960000D03*
X160540000Y-101500000D03*
X158000000Y-98960000D03*
G36*
G01*
X158850000Y-102401000D02*
X157150000Y-102401000D01*
G75*
G02*
X157099000Y-102350000I0J51000D01*
G01*
X157099000Y-100650000D01*
G75*
G02*
X157150000Y-100599000I51000J0D01*
G01*
X158850000Y-100599000D01*
G75*
G02*
X158901000Y-100650000I0J-51000D01*
G01*
X158901000Y-102350000D01*
G75*
G02*
X158850000Y-102401000I-51000J0D01*
G01*
G37*
D11*
X165840000Y-109030000D03*
X164590000Y-109030000D03*
X163340000Y-109030000D03*
G36*
G01*
X161639000Y-109505500D02*
X161639000Y-108554500D01*
G75*
G02*
X161864500Y-108329000I225500J0D01*
G01*
X162315500Y-108329000D01*
G75*
G02*
X162541000Y-108554500I0J-225500D01*
G01*
X162541000Y-109505500D01*
G75*
G02*
X162315500Y-109731000I-225500J0D01*
G01*
X161864500Y-109731000D01*
G75*
G02*
X161639000Y-109505500I0J225500D01*
G01*
G37*
G36*
G01*
X176229500Y-99879000D02*
X176830500Y-99879000D01*
G75*
G02*
X177056000Y-100104500I0J-225500D01*
G01*
X177056000Y-100555500D01*
G75*
G02*
X176830500Y-100781000I-225500J0D01*
G01*
X176229500Y-100781000D01*
G75*
G02*
X176004000Y-100555500I0J225500D01*
G01*
X176004000Y-100104500D01*
G75*
G02*
X176229500Y-99879000I225500J0D01*
G01*
G37*
G36*
G01*
X176229500Y-98229000D02*
X176830500Y-98229000D01*
G75*
G02*
X177056000Y-98454500I0J-225500D01*
G01*
X177056000Y-98905500D01*
G75*
G02*
X176830500Y-99131000I-225500J0D01*
G01*
X176229500Y-99131000D01*
G75*
G02*
X176004000Y-98905500I0J225500D01*
G01*
X176004000Y-98454500D01*
G75*
G02*
X176229500Y-98229000I225500J0D01*
G01*
G37*
G36*
G01*
X130034000Y-114775500D02*
X130034000Y-113824500D01*
G75*
G02*
X130259500Y-113599000I225500J0D01*
G01*
X130710500Y-113599000D01*
G75*
G02*
X130936000Y-113824500I0J-225500D01*
G01*
X130936000Y-114775500D01*
G75*
G02*
X130710500Y-115001000I-225500J0D01*
G01*
X130259500Y-115001000D01*
G75*
G02*
X130034000Y-114775500I0J225500D01*
G01*
G37*
X131735000Y-114300000D03*
X132985000Y-114300000D03*
D12*
X176660000Y-91250000D03*
X176660000Y-93790000D03*
X174120000Y-91250000D03*
X174120000Y-93790000D03*
X171580000Y-91250000D03*
X171580000Y-93790000D03*
X169040000Y-91250000D03*
X169040000Y-93790000D03*
X166500000Y-91250000D03*
X166500000Y-93790000D03*
X163960000Y-91250000D03*
X163960000Y-93790000D03*
X161420000Y-91250000D03*
X161420000Y-93790000D03*
X158880000Y-91250000D03*
X158880000Y-93790000D03*
X156340000Y-91250000D03*
X156340000Y-93790000D03*
X153800000Y-91250000D03*
X153800000Y-93790000D03*
X151260000Y-91250000D03*
X151260000Y-93790000D03*
X148720000Y-91250000D03*
X148720000Y-93790000D03*
X146180000Y-91250000D03*
X146180000Y-93790000D03*
X143640000Y-91250000D03*
X143640000Y-93790000D03*
X141100000Y-91250000D03*
X141100000Y-93790000D03*
X138560000Y-91250000D03*
X138560000Y-93790000D03*
X136020000Y-91250000D03*
X136020000Y-93790000D03*
X133480000Y-91250000D03*
X133480000Y-93790000D03*
X130940000Y-91250000D03*
X130940000Y-93790000D03*
X128400000Y-91250000D03*
G36*
G01*
X127550000Y-92889000D02*
X129250000Y-92889000D01*
G75*
G02*
X129301000Y-92940000I0J-51000D01*
G01*
X129301000Y-94640000D01*
G75*
G02*
X129250000Y-94691000I-51000J0D01*
G01*
X127550000Y-94691000D01*
G75*
G02*
X127499000Y-94640000I0J51000D01*
G01*
X127499000Y-92940000D01*
G75*
G02*
X127550000Y-92889000I51000J0D01*
G01*
G37*
X152080000Y-100000000D03*
X149540000Y-100000000D03*
G36*
G01*
X147850000Y-100901000D02*
X146150000Y-100901000D01*
G75*
G02*
X146099000Y-100850000I0J51000D01*
G01*
X146099000Y-99150000D01*
G75*
G02*
X146150000Y-99099000I51000J0D01*
G01*
X147850000Y-99099000D01*
G75*
G02*
X147901000Y-99150000I0J-51000D01*
G01*
X147901000Y-100850000D01*
G75*
G02*
X147850000Y-100901000I-51000J0D01*
G01*
G37*
G36*
G01*
X176800500Y-109951000D02*
X176199500Y-109951000D01*
G75*
G02*
X175974000Y-109725500I0J225500D01*
G01*
X175974000Y-109274500D01*
G75*
G02*
X176199500Y-109049000I225500J0D01*
G01*
X176800500Y-109049000D01*
G75*
G02*
X177026000Y-109274500I0J-225500D01*
G01*
X177026000Y-109725500D01*
G75*
G02*
X176800500Y-109951000I-225500J0D01*
G01*
G37*
G36*
G01*
X176800500Y-111601000D02*
X176199500Y-111601000D01*
G75*
G02*
X175974000Y-111375500I0J225500D01*
G01*
X175974000Y-110924500D01*
G75*
G02*
X176199500Y-110699000I225500J0D01*
G01*
X176800500Y-110699000D01*
G75*
G02*
X177026000Y-110924500I0J-225500D01*
G01*
X177026000Y-111375500D01*
G75*
G02*
X176800500Y-111601000I-225500J0D01*
G01*
G37*
G36*
G01*
X169879500Y-99879000D02*
X170480500Y-99879000D01*
G75*
G02*
X170706000Y-100104500I0J-225500D01*
G01*
X170706000Y-100555500D01*
G75*
G02*
X170480500Y-100781000I-225500J0D01*
G01*
X169879500Y-100781000D01*
G75*
G02*
X169654000Y-100555500I0J225500D01*
G01*
X169654000Y-100104500D01*
G75*
G02*
X169879500Y-99879000I225500J0D01*
G01*
G37*
G36*
G01*
X169879500Y-98229000D02*
X170480500Y-98229000D01*
G75*
G02*
X170706000Y-98454500I0J-225500D01*
G01*
X170706000Y-98905500D01*
G75*
G02*
X170480500Y-99131000I-225500J0D01*
G01*
X169879500Y-99131000D01*
G75*
G02*
X169654000Y-98905500I0J225500D01*
G01*
X169654000Y-98454500D01*
G75*
G02*
X169879500Y-98229000I225500J0D01*
G01*
G37*
G36*
G01*
X154731665Y-108606500D02*
X156038335Y-108606500D01*
G75*
G02*
X156311000Y-108879165I0J-272665D01*
G01*
X156311000Y-109560835D01*
G75*
G02*
X156038335Y-109833500I-272665J0D01*
G01*
X154731665Y-109833500D01*
G75*
G02*
X154459000Y-109560835I0J272665D01*
G01*
X154459000Y-108879165D01*
G75*
G02*
X154731665Y-108606500I272665J0D01*
G01*
G37*
G36*
G01*
X154731665Y-105681500D02*
X156038335Y-105681500D01*
G75*
G02*
X156311000Y-105954165I0J-272665D01*
G01*
X156311000Y-106635835D01*
G75*
G02*
X156038335Y-106908500I-272665J0D01*
G01*
X154731665Y-106908500D01*
G75*
G02*
X154459000Y-106635835I0J272665D01*
G01*
X154459000Y-105954165D01*
G75*
G02*
X154731665Y-105681500I272665J0D01*
G01*
G37*
G36*
G01*
X138951665Y-108606500D02*
X140258335Y-108606500D01*
G75*
G02*
X140531000Y-108879165I0J-272665D01*
G01*
X140531000Y-109560835D01*
G75*
G02*
X140258335Y-109833500I-272665J0D01*
G01*
X138951665Y-109833500D01*
G75*
G02*
X138679000Y-109560835I0J272665D01*
G01*
X138679000Y-108879165D01*
G75*
G02*
X138951665Y-108606500I272665J0D01*
G01*
G37*
G36*
G01*
X138951665Y-105681500D02*
X140258335Y-105681500D01*
G75*
G02*
X140531000Y-105954165I0J-272665D01*
G01*
X140531000Y-106635835D01*
G75*
G02*
X140258335Y-106908500I-272665J0D01*
G01*
X138951665Y-106908500D01*
G75*
G02*
X138679000Y-106635835I0J272665D01*
G01*
X138679000Y-105954165D01*
G75*
G02*
X138951665Y-105681500I272665J0D01*
G01*
G37*
G36*
G01*
X146841665Y-108606500D02*
X148148335Y-108606500D01*
G75*
G02*
X148421000Y-108879165I0J-272665D01*
G01*
X148421000Y-109560835D01*
G75*
G02*
X148148335Y-109833500I-272665J0D01*
G01*
X146841665Y-109833500D01*
G75*
G02*
X146569000Y-109560835I0J272665D01*
G01*
X146569000Y-108879165D01*
G75*
G02*
X146841665Y-108606500I272665J0D01*
G01*
G37*
G36*
G01*
X146841665Y-105681500D02*
X148148335Y-105681500D01*
G75*
G02*
X148421000Y-105954165I0J-272665D01*
G01*
X148421000Y-106635835D01*
G75*
G02*
X148148335Y-106908500I-272665J0D01*
G01*
X146841665Y-106908500D01*
G75*
G02*
X146569000Y-106635835I0J272665D01*
G01*
X146569000Y-105954165D01*
G75*
G02*
X146841665Y-105681500I272665J0D01*
G01*
G37*
G36*
G01*
X131061665Y-108606500D02*
X132368335Y-108606500D01*
G75*
G02*
X132641000Y-108879165I0J-272665D01*
G01*
X132641000Y-109560835D01*
G75*
G02*
X132368335Y-109833500I-272665J0D01*
G01*
X131061665Y-109833500D01*
G75*
G02*
X130789000Y-109560835I0J272665D01*
G01*
X130789000Y-108879165D01*
G75*
G02*
X131061665Y-108606500I272665J0D01*
G01*
G37*
G36*
G01*
X131061665Y-105681500D02*
X132368335Y-105681500D01*
G75*
G02*
X132641000Y-105954165I0J-272665D01*
G01*
X132641000Y-106635835D01*
G75*
G02*
X132368335Y-106908500I-272665J0D01*
G01*
X131061665Y-106908500D01*
G75*
G02*
X130789000Y-106635835I0J272665D01*
G01*
X130789000Y-105954165D01*
G75*
G02*
X131061665Y-105681500I272665J0D01*
G01*
G37*
D13*
X124500000Y-98500000D03*
X124500000Y-99750000D03*
G36*
G01*
X124975500Y-101451000D02*
X124024500Y-101451000D01*
G75*
G02*
X123799000Y-101225500I0J225500D01*
G01*
X123799000Y-100774500D01*
G75*
G02*
X124024500Y-100549000I225500J0D01*
G01*
X124975500Y-100549000D01*
G75*
G02*
X125201000Y-100774500I0J-225500D01*
G01*
X125201000Y-101225500D01*
G75*
G02*
X124975500Y-101451000I-225500J0D01*
G01*
G37*
D12*
X140970000Y-99000000D03*
X140970000Y-101540000D03*
X138430000Y-99000000D03*
X138430000Y-101540000D03*
X135890000Y-99000000D03*
X135890000Y-101540000D03*
X133350000Y-99000000D03*
G36*
G01*
X134200000Y-102441000D02*
X132500000Y-102441000D01*
G75*
G02*
X132449000Y-102390000I0J51000D01*
G01*
X132449000Y-100690000D01*
G75*
G02*
X132500000Y-100639000I51000J0D01*
G01*
X134200000Y-100639000D01*
G75*
G02*
X134251000Y-100690000I0J-51000D01*
G01*
X134251000Y-102390000D01*
G75*
G02*
X134200000Y-102441000I-51000J0D01*
G01*
G37*
D11*
X156655000Y-114300000D03*
X155405000Y-114300000D03*
G36*
G01*
X153704000Y-114775500D02*
X153704000Y-113824500D01*
G75*
G02*
X153929500Y-113599000I225500J0D01*
G01*
X154380500Y-113599000D01*
G75*
G02*
X154606000Y-113824500I0J-225500D01*
G01*
X154606000Y-114775500D01*
G75*
G02*
X154380500Y-115001000I-225500J0D01*
G01*
X153929500Y-115001000D01*
G75*
G02*
X153704000Y-114775500I0J225500D01*
G01*
G37*
X140855000Y-114300000D03*
X139605000Y-114300000D03*
G36*
G01*
X137904000Y-114775500D02*
X137904000Y-113824500D01*
G75*
G02*
X138129500Y-113599000I225500J0D01*
G01*
X138580500Y-113599000D01*
G75*
G02*
X138806000Y-113824500I0J-225500D01*
G01*
X138806000Y-114775500D01*
G75*
G02*
X138580500Y-115001000I-225500J0D01*
G01*
X138129500Y-115001000D01*
G75*
G02*
X137904000Y-114775500I0J225500D01*
G01*
G37*
D13*
X124500000Y-106500000D03*
X124500000Y-107750000D03*
G36*
G01*
X124975500Y-109451000D02*
X124024500Y-109451000D01*
G75*
G02*
X123799000Y-109225500I0J225500D01*
G01*
X123799000Y-108774500D01*
G75*
G02*
X124024500Y-108549000I225500J0D01*
G01*
X124975500Y-108549000D01*
G75*
G02*
X125201000Y-108774500I0J-225500D01*
G01*
X125201000Y-109225500D01*
G75*
G02*
X124975500Y-109451000I-225500J0D01*
G01*
G37*
D11*
X148765000Y-114300000D03*
X147515000Y-114300000D03*
G36*
G01*
X145814000Y-114775500D02*
X145814000Y-113824500D01*
G75*
G02*
X146039500Y-113599000I225500J0D01*
G01*
X146490500Y-113599000D01*
G75*
G02*
X146716000Y-113824500I0J-225500D01*
G01*
X146716000Y-114775500D01*
G75*
G02*
X146490500Y-115001000I-225500J0D01*
G01*
X146039500Y-115001000D01*
G75*
G02*
X145814000Y-114775500I0J225500D01*
G01*
G37*
X181365000Y-99690000D03*
G36*
G01*
X179664000Y-100165500D02*
X179664000Y-99214500D01*
G75*
G02*
X179889500Y-98989000I225500J0D01*
G01*
X180340500Y-98989000D01*
G75*
G02*
X180566000Y-99214500I0J-225500D01*
G01*
X180566000Y-100165500D01*
G75*
G02*
X180340500Y-100391000I-225500J0D01*
G01*
X179889500Y-100391000D01*
G75*
G02*
X179664000Y-100165500I0J225500D01*
G01*
G37*
X181570000Y-105410000D03*
X180320000Y-105410000D03*
G36*
G01*
X178619000Y-105885500D02*
X178619000Y-104934500D01*
G75*
G02*
X178844500Y-104709000I225500J0D01*
G01*
X179295500Y-104709000D01*
G75*
G02*
X179521000Y-104934500I0J-225500D01*
G01*
X179521000Y-105885500D01*
G75*
G02*
X179295500Y-106111000I-225500J0D01*
G01*
X178844500Y-106111000D01*
G75*
G02*
X178619000Y-105885500I0J225500D01*
G01*
G37*
X181590000Y-110490000D03*
G36*
G01*
X179889000Y-110965500D02*
X179889000Y-110014500D01*
G75*
G02*
X180114500Y-109789000I225500J0D01*
G01*
X180565500Y-109789000D01*
G75*
G02*
X180791000Y-110014500I0J-225500D01*
G01*
X180791000Y-110965500D01*
G75*
G02*
X180565500Y-111191000I-225500J0D01*
G01*
X180114500Y-111191000D01*
G75*
G02*
X179889000Y-110965500I0J225500D01*
G01*
G37*
M02*
